{"glyphs":{"0":{"ha":865,"x_min":111,"x_max":754,"o":"m 433 -17 q 280 26 344 -17 q 180 144 215 69 q 128 304 144 219 q 111 486 111 389 q 126 651 111 571 q 174 812 140 732 q 274 940 207 892 q 433 989 340 989 q 586 944 521 989 q 686 825 651 900 q 738 666 721 750 q 754 486 754 582 q 746 355 754 419 q 715 221 738 290 q 658 101 693 151 q 565 17 624 50 q 433 -17 507 -17 m 433 53 q 555 94 504 53 q 630 203 606 135 q 665 340 654 271 q 675 486 675 408 q 663 643 675 571 q 626 781 651 715 q 551 883 600 846 q 433 921 501 921 q 311 880 363 921 q 235 769 260 839 q 199 631 210 700 q 189 486 189 563 q 201 328 189 401 q 239 191 213 256 q 315 90 265 126 q 433 53 365 53 z "},"1":{"ha":468,"x_min":69,"x_max":308,"o":"m 235 0 l 235 803 l 69 803 l 69 847 q 199 873 157 847 q 260 972 240 899 l 308 972 l 308 0 l 235 0 z "},"2":{"ha":838,"x_min":111,"x_max":726,"o":"m 111 0 q 128 124 111 67 q 165 217 144 181 q 231 295 186 254 q 304 357 275 336 q 393 417 333 378 q 468 467 446 451 q 531 517 490 483 q 590 577 572 551 q 624 641 608 603 q 640 721 640 679 q 582 865 640 810 q 422 921 524 921 q 194 751 239 921 l 128 782 q 231 931 151 872 q 426 989 311 989 q 640 915 563 989 q 718 721 718 842 q 699 620 718 668 q 659 541 681 572 q 589 469 638 510 q 515 413 540 429 q 429 357 490 397 q 257 222 314 283 q 190 72 200 161 l 726 72 l 726 0 l 111 0 z "},"3":{"ha":824,"x_min":79,"x_max":714,"o":"m 397 -17 q 79 203 164 -17 l 149 231 q 397 54 222 54 q 569 107 501 54 q 636 258 636 160 q 577 414 636 357 q 408 471 518 471 l 350 471 l 350 540 l 392 540 q 540 593 483 540 q 597 736 597 646 q 541 869 597 818 q 403 919 485 919 q 179 768 250 919 l 111 796 q 219 933 144 876 q 401 989 294 989 q 597 921 519 989 q 675 743 675 853 q 638 610 675 671 q 533 519 601 550 q 665 426 617 496 q 714 260 714 357 q 623 61 714 139 q 397 -17 532 -17 z "},"4":{"ha":819,"x_min":54,"x_max":749,"o":"m 528 0 l 528 274 l 54 274 l 54 314 l 561 972 l 601 972 l 601 338 l 749 338 l 749 274 l 601 274 l 601 0 l 528 0 m 528 338 l 528 833 l 153 338 l 528 338 z "},"5":{"ha":876,"x_min":113,"x_max":765,"o":"m 422 -17 q 237 22 319 -17 q 113 108 154 60 l 157 165 q 421 50 267 50 q 615 126 543 50 q 688 310 688 203 q 620 487 688 417 q 447 557 553 557 q 211 456 301 557 l 150 474 l 229 972 l 700 972 l 700 904 l 290 904 l 232 549 q 451 628 322 628 q 676 540 586 628 q 765 315 765 453 q 674 82 765 181 q 422 -17 582 -17 z "},"6":{"ha":818,"x_min":96,"x_max":710,"o":"m 406 -17 q 175 85 254 -17 q 96 338 96 188 q 226 742 96 561 q 572 989 356 924 l 572 925 q 322 761 426 879 q 188 490 217 643 q 284 569 222 540 q 418 597 346 597 q 626 509 543 597 q 710 299 710 421 q 623 74 710 164 q 406 -17 536 -17 m 404 53 q 572 119 507 53 q 636 289 636 186 q 573 462 636 394 q 404 529 510 529 q 238 462 303 529 q 172 292 172 394 q 238 121 172 189 q 404 53 304 53 z "},"7":{"ha":697,"x_min":65,"x_max":632,"o":"m 240 0 q 311 476 243 257 q 550 906 379 694 l 65 906 l 65 972 l 632 972 l 632 919 q 317 0 319 561 l 240 0 z "},"8":{"ha":835,"x_min":111,"x_max":725,"o":"m 638 66 q 594 25 638 66 q 418 -17 550 -17 q 199 65 286 -17 q 111 269 111 147 q 163 438 111 364 q 297 538 214 511 q 193 618 231 561 q 156 743 156 675 q 231 917 156 844 q 418 989 306 989 q 605 917 529 989 q 681 743 681 844 q 644 618 681 674 q 536 538 607 563 q 674 437 622 510 q 725 269 725 364 q 638 66 725 149 m 282 611 q 308 587 282 611 q 418 563 333 563 q 553 611 503 563 q 604 736 604 660 q 551 870 604 819 q 418 921 499 921 q 283 870 336 921 q 231 736 231 819 q 282 611 231 660 m 418 53 q 581 114 517 53 q 646 276 646 175 q 582 440 646 372 q 418 508 518 508 q 253 440 317 508 q 189 276 189 372 q 253 113 189 174 q 418 53 318 53 z "},"9":{"ha":818,"x_min":96,"x_max":710,"o":"m 251 -17 l 251 47 q 494 219 394 92 q 615 493 594 346 q 378 386 539 386 q 177 472 258 386 q 96 679 96 558 q 185 900 96 811 q 406 989 274 989 q 631 889 551 989 q 710 640 710 789 q 581 226 710 413 q 251 -17 453 40 m 396 450 q 567 517 500 450 q 633 685 633 583 q 567 853 633 785 q 401 921 500 921 q 233 854 299 921 q 168 688 168 788 q 231 517 168 583 q 396 450 293 450 z "}," ":{"ha":313,"x_min":0,"x_max":0,"o":""},"!":{"ha":372,"x_min":122,"x_max":250,"o":"m 181 268 l 150 664 l 150 989 l 226 989 l 226 664 l 194 268 l 181 268 m 186 -19 q 141 0 160 -19 q 122 44 122 19 q 141 90 122 71 q 186 110 160 110 q 232 90 214 110 q 250 44 250 71 q 232 -1 250 18 q 186 -19 214 -19 z "},"\"":{"ha":519,"x_min":96,"x_max":424,"o":"m 96 972 l 183 972 l 171 601 l 107 601 l 96 972 m 336 972 l 424 972 l 411 601 l 347 601 l 336 972 z "},"#":{"ha":949,"x_min":86,"x_max":864,"o":"m 210 0 l 256 293 l 86 293 l 99 363 l 265 363 l 307 626 l 143 626 l 154 694 l 317 694 l 360 972 l 433 972 l 390 694 l 619 694 l 663 972 l 739 972 l 696 694 l 864 694 l 853 626 l 686 626 l 643 363 l 807 363 l 796 293 l 633 293 l 589 0 l 513 0 l 557 293 l 329 293 l 283 0 l 210 0 m 339 363 l 567 363 l 610 626 l 381 626 l 339 363 z "},"$":{"ha":819,"x_min":99,"x_max":708,"o":"m 371 -136 l 371 -14 q 201 51 274 -4 q 99 185 129 107 l 171 210 q 267 96 203 139 q 414 53 332 53 q 573 103 515 53 q 631 246 631 153 q 404 488 631 403 q 303 532 344 511 q 218 586 263 553 q 151 665 174 619 q 128 769 128 711 q 192 919 128 858 q 371 988 257 979 l 371 1096 l 446 1096 l 446 986 q 586 935 528 976 q 664 832 644 894 l 593 808 q 397 919 547 919 q 256 879 307 919 q 204 769 204 839 q 222 697 204 729 q 278 638 240 664 q 348 597 315 613 q 435 558 381 581 q 632 440 556 511 q 708 247 708 368 q 636 62 708 131 q 446 -15 564 -7 l 446 -136 l 371 -136 z "},"%":{"ha":1232,"x_min":89,"x_max":1143,"o":"m 303 494 q 142 568 194 494 q 89 742 89 642 q 142 913 89 836 q 303 989 194 989 q 465 915 413 989 q 518 742 518 840 q 465 569 518 643 q 303 494 413 494 m 324 -17 l 244 -17 l 908 989 l 988 989 l 324 -17 m 196 612 q 214 586 196 612 q 303 560 232 560 q 410 613 374 560 q 446 742 446 665 q 410 871 446 818 q 303 924 374 924 q 196 869 232 924 q 160 742 160 815 q 196 612 160 664 m 1090 58 q 1064 20 1090 58 q 929 -17 1038 -17 q 767 57 821 -17 q 714 231 714 131 q 767 401 714 325 q 929 478 821 478 q 1090 403 1038 478 q 1143 231 1143 329 q 1090 58 1143 132 m 822 101 q 840 75 822 101 q 929 49 858 49 q 1036 102 1000 49 q 1072 231 1072 156 q 1036 360 1072 307 q 929 413 1000 413 q 822 359 857 413 q 786 231 786 306 q 822 101 786 153 z "},"&":{"ha":903,"x_min":74,"x_max":865,"o":"m 339 -17 q 147 53 219 -17 q 74 242 74 124 q 135 408 74 338 q 311 546 196 479 q 213 685 242 632 q 185 790 185 739 q 247 935 185 882 q 404 989 310 989 q 555 932 496 989 q 614 788 614 875 q 417 532 614 650 l 647 258 q 707 443 693 343 l 779 443 q 697 200 767 313 l 865 0 l 769 0 l 653 138 q 339 -17 524 -17 m 399 921 q 296 885 335 921 q 257 789 257 849 q 285 703 257 749 q 376 581 314 657 q 542 778 542 679 q 501 882 542 843 q 399 921 460 921 m 349 53 q 606 194 499 53 l 353 494 q 197 374 247 432 q 146 246 146 317 q 203 105 146 157 q 349 53 260 53 z "},"'":{"ha":279,"x_min":96,"x_max":183,"o":"m 96 972 l 183 972 l 171 601 l 107 601 l 96 972 z "},"(":{"ha":469,"x_min":132,"x_max":388,"o":"m 301 -181 q 132 394 132 42 q 317 989 132 768 l 388 989 q 267 757 329 917 q 206 394 206 597 q 372 -181 206 67 l 301 -181 z "},")":{"ha":469,"x_min":82,"x_max":339,"o":"m 97 -181 q 264 394 264 67 q 202 757 264 597 q 82 989 140 917 l 154 989 q 339 394 339 768 q 169 -181 339 42 l 97 -181 z "},"*":{"ha":736,"x_min":81,"x_max":656,"o":"m 425 546 l 367 664 l 310 546 l 222 425 l 163 471 l 249 590 l 339 679 l 218 697 l 81 743 l 106 814 l 240 769 l 350 704 l 331 826 l 331 978 l 406 978 l 406 826 l 385 704 l 494 769 l 631 814 l 656 743 l 517 697 l 394 679 l 488 590 l 574 471 l 514 425 l 425 546 z "},"+":{"ha":914,"x_min":131,"x_max":783,"o":"m 494 439 l 494 150 l 418 150 l 418 439 l 131 439 l 131 511 l 418 511 l 418 803 l 494 803 l 494 511 l 783 511 l 783 439 l 494 439 z "},",":{"ha":297,"x_min":85,"x_max":221,"o":"m 101 -190 q 158 -24 158 -121 q 106 -6 128 -24 q 85 40 85 13 q 103 90 85 71 q 147 108 121 108 q 199 85 178 108 q 221 18 221 63 q 192 -107 221 -49 q 121 -196 163 -165 l 101 -190 z "},"-":{"ha":557,"x_min":124,"x_max":433,"o":"m 124 378 l 124 450 l 433 450 l 433 378 l 124 378 z "},".":{"ha":297,"x_min":85,"x_max":213,"o":"m 149 -19 q 103 0 122 -19 q 85 44 85 19 q 103 90 85 71 q 149 110 122 110 q 194 90 176 110 q 213 44 213 71 q 194 -1 213 18 q 149 -19 176 -19 z "},"/":{"ha":672,"x_min":8,"x_max":629,"o":"m 8 -181 l 554 989 l 629 989 l 83 -181 l 8 -181 z "},":":{"ha":297,"x_min":85,"x_max":213,"o":"m 149 542 q 103 561 122 542 q 85 606 85 581 q 103 651 85 632 q 149 671 122 671 q 194 651 176 671 q 213 606 213 632 q 194 560 213 579 q 149 542 176 542 m 149 -19 q 103 0 122 -19 q 85 44 85 19 q 103 90 85 71 q 149 110 122 110 q 194 90 176 110 q 213 44 213 71 q 194 -1 213 18 q 149 -19 176 -19 z "},";":{"ha":297,"x_min":85,"x_max":221,"o":"m 149 542 q 103 561 122 542 q 85 606 85 581 q 103 651 85 632 q 149 671 122 671 q 194 651 176 671 q 213 606 213 632 q 194 560 213 579 q 149 542 176 542 m 101 -190 q 154 -22 154 -125 q 105 -4 125 -22 q 85 40 85 14 q 103 90 85 71 q 147 108 121 108 q 199 85 178 108 q 221 18 221 63 q 192 -107 221 -49 q 121 -196 163 -165 l 101 -190 z "},"<":{"ha":914,"x_min":131,"x_max":783,"o":"m 783 167 l 131 440 l 131 513 l 783 786 l 783 711 l 217 476 l 783 243 l 783 167 z "},"=":{"ha":914,"x_min":131,"x_max":783,"o":"m 131 561 l 131 632 l 783 632 l 783 561 l 131 561 m 131 318 l 131 390 l 783 390 l 783 318 l 131 318 z "},">":{"ha":914,"x_min":131,"x_max":783,"o":"m 783 440 l 131 167 l 131 242 l 697 476 l 131 711 l 131 786 l 783 513 l 783 440 z "},"?":{"ha":728,"x_min":74,"x_max":649,"o":"m 311 226 l 311 267 q 338 394 311 338 q 403 487 365 450 q 480 558 442 524 q 545 638 518 592 q 572 738 572 683 q 517 867 572 815 q 367 919 463 919 q 204 863 264 919 q 144 719 144 807 l 74 719 q 153 912 74 835 q 367 989 233 989 q 574 917 499 989 q 649 736 649 844 q 622 621 649 672 q 556 534 594 569 q 480 464 518 499 q 415 379 442 429 q 388 267 388 329 l 388 226 l 311 226 m 347 -19 q 302 0 321 -19 q 283 44 283 19 q 302 90 283 71 q 347 110 321 110 q 393 90 375 110 q 411 44 411 71 q 393 -1 411 18 q 347 -19 375 -19 z "},"@":{"ha":1107,"x_min":78,"x_max":1029,"o":"m 553 -17 q 213 113 349 -17 q 78 465 78 242 q 226 840 78 692 q 579 989 374 989 q 904 875 779 989 q 1029 578 1029 761 q 966 323 1029 424 q 810 222 903 222 q 726 250 758 222 q 688 326 694 278 q 508 210 625 210 q 363 274 419 210 q 307 446 307 339 q 378 646 307 557 q 560 735 449 735 q 667 698 625 735 q 722 600 710 661 l 742 717 l 810 717 l 758 414 q 753 360 753 388 q 770 302 753 322 q 817 282 788 282 q 920 367 879 282 q 961 581 961 451 q 854 828 961 736 q 582 921 747 921 q 272 792 393 921 q 150 464 150 663 q 260 169 150 286 q 558 51 371 51 q 744 74 663 51 l 728 3 q 553 -17 660 -17 m 524 276 q 651 342 601 276 q 701 500 701 407 q 661 622 701 575 q 565 668 621 668 q 432 603 481 668 q 383 444 383 539 q 422 322 383 368 q 524 276 460 276 z "},"A":{"ha":901,"x_min":88,"x_max":815,"o":"m 739 0 l 647 263 l 254 263 l 165 0 l 88 0 l 422 972 l 478 972 l 815 0 l 739 0 m 626 326 l 489 728 q 450 850 458 817 q 413 728 443 819 l 275 326 l 626 326 z "},"B":{"ha":888,"x_min":150,"x_max":781,"o":"m 150 972 l 460 972 q 678 901 611 972 q 746 725 746 831 q 700 591 746 649 q 576 510 654 533 q 724 431 668 496 q 781 267 781 367 q 710 77 781 154 q 482 0 640 0 l 150 0 l 150 972 m 435 538 q 615 588 553 538 q 676 728 676 639 q 467 907 676 907 l 224 907 l 224 538 l 435 538 m 497 67 q 662 121 613 67 q 711 258 711 175 q 451 472 711 472 l 224 472 l 224 67 l 497 67 z "},"C":{"ha":892,"x_min":108,"x_max":799,"o":"m 497 -17 q 274 58 364 -17 q 146 242 183 132 q 108 486 108 351 q 123 640 108 567 q 169 776 138 713 q 244 888 200 840 q 354 962 289 935 q 497 989 419 989 q 677 947 613 989 q 785 832 742 904 l 719 794 q 633 887 683 853 q 497 921 582 921 q 319 855 392 921 q 217 694 247 789 q 186 486 186 600 q 264 178 186 303 q 497 53 342 53 q 732 188 658 53 l 799 161 q 686 34 763 85 q 497 -17 610 -17 z "},"D":{"ha":933,"x_min":150,"x_max":825,"o":"m 150 972 l 390 972 q 594 931 507 972 q 731 818 682 889 q 802 664 779 747 q 825 486 825 581 q 813 349 825 415 q 769 219 800 283 q 690 106 738 154 q 563 29 642 58 q 385 0 485 0 l 150 0 l 150 972 m 388 69 q 532 94 468 69 q 635 160 596 119 q 701 256 675 200 q 737 367 726 311 q 747 486 747 424 q 728 640 747 568 q 669 773 708 713 q 560 869 629 833 q 399 904 490 904 l 224 904 l 224 69 l 388 69 z "},"E":{"ha":818,"x_min":150,"x_max":711,"o":"m 150 0 l 150 972 l 681 972 l 681 903 l 224 903 l 224 538 l 532 538 l 532 469 l 224 469 l 224 69 l 711 69 l 711 0 l 150 0 z "},"F":{"ha":774,"x_min":150,"x_max":694,"o":"m 150 0 l 150 972 l 694 972 l 694 903 l 224 903 l 224 538 l 542 538 l 542 469 l 224 469 l 224 0 l 150 0 z "},"G":{"ha":949,"x_min":108,"x_max":819,"o":"m 499 -17 q 320 26 397 -17 q 198 140 243 68 q 131 300 153 213 q 108 486 108 388 q 148 735 108 625 q 278 917 188 846 q 499 989 368 989 q 781 844 682 989 l 715 804 q 499 921 633 921 q 353 882 415 921 q 256 778 290 843 q 203 640 221 714 q 186 486 186 567 q 217 274 186 368 q 320 116 247 179 q 499 53 393 53 q 676 128 611 53 q 742 343 742 204 l 742 381 l 550 381 l 550 447 l 819 447 l 819 371 q 731 82 819 181 q 499 -17 643 -17 z "},"H":{"ha":944,"x_min":150,"x_max":796,"o":"m 722 0 l 722 471 l 224 471 l 224 0 l 150 0 l 150 972 l 224 972 l 224 540 l 722 540 l 722 972 l 796 972 l 796 0 l 722 0 z "},"I":{"ha":372,"x_min":150,"x_max":224,"o":"m 150 0 l 150 972 l 224 972 l 224 0 l 150 0 z "},"J":{"ha":735,"x_min":47,"x_max":589,"o":"m 300 -17 q 141 25 200 -17 q 47 149 82 67 l 107 181 q 181 83 140 114 q 303 51 222 51 q 453 108 390 51 q 515 297 515 164 l 515 972 l 589 972 l 589 313 q 563 150 589 218 q 491 48 536 82 q 399 -1 446 14 q 300 -17 353 -17 z "},"K":{"ha":876,"x_min":150,"x_max":794,"o":"m 711 0 l 394 579 l 224 365 l 224 0 l 150 0 l 150 972 l 224 972 l 224 465 l 626 972 l 710 972 l 446 642 l 794 0 l 711 0 z "},"L":{"ha":757,"x_min":150,"x_max":706,"o":"m 150 0 l 150 972 l 224 972 l 224 69 l 706 69 l 706 0 l 150 0 z "},"M":{"ha":1111,"x_min":150,"x_max":963,"o":"m 963 0 l 889 0 l 889 714 l 889 774 q 876 747 886 767 q 863 714 867 726 l 550 -17 l 247 714 q 224 772 231 753 l 224 714 l 224 0 l 150 0 l 150 972 l 214 972 l 528 226 q 554 164 538 206 q 581 226 564 185 l 897 972 l 963 972 l 963 0 z "},"N":{"ha":963,"x_min":150,"x_max":814,"o":"m 814 0 l 740 0 l 264 768 q 224 836 228 828 l 224 768 l 224 0 l 150 0 l 150 972 l 224 972 l 699 201 q 740 132 713 179 l 740 201 l 740 972 l 814 972 l 814 0 z "},"O":{"ha":997,"x_min":108,"x_max":890,"o":"m 650 13 q 616 -2 650 13 q 499 -17 582 -17 q 348 13 415 -17 q 236 90 281 42 q 163 206 192 139 q 121 342 133 272 q 108 486 108 411 q 121 631 108 561 q 163 767 133 700 q 236 882 192 833 q 348 960 281 931 q 499 989 415 989 q 650 960 582 989 q 762 882 718 931 q 835 767 806 833 q 878 631 865 700 q 890 486 890 561 q 878 342 890 411 q 835 206 865 272 q 762 90 806 139 q 650 13 718 42 m 353 89 q 384 71 353 89 q 499 53 415 53 q 645 92 582 53 q 744 195 708 131 q 796 333 779 260 q 813 486 813 406 q 796 648 813 574 q 744 785 779 722 q 646 885 708 849 q 499 921 583 921 q 353 882 415 921 q 255 778 290 843 q 203 640 219 714 q 186 486 186 567 q 203 324 186 399 q 255 188 219 250 q 353 89 290 125 z "},"P":{"ha":850,"x_min":150,"x_max":786,"o":"m 150 0 l 150 972 l 479 972 q 713 890 640 972 q 786 686 786 807 q 710 488 786 574 q 479 401 633 401 l 224 401 l 224 0 l 150 0 m 483 471 q 658 535 601 471 q 714 686 714 599 q 660 840 714 776 q 483 904 607 904 l 224 904 l 224 471 l 483 471 z "},"Q":{"ha":997,"x_min":108,"x_max":890,"o":"m 499 -17 q 348 13 415 -17 q 236 90 281 42 q 163 206 192 139 q 121 342 133 272 q 108 486 108 411 q 121 631 108 561 q 163 767 133 700 q 236 882 192 833 q 348 960 281 931 q 499 989 415 989 q 650 960 582 989 q 762 882 718 931 q 835 767 806 833 q 878 631 865 700 q 890 486 890 561 q 856 256 890 364 q 747 78 821 147 l 831 -47 l 778 -85 l 696 38 q 499 -17 610 -17 m 499 53 q 656 99 588 53 l 581 210 l 633 249 l 706 142 q 813 486 813 260 q 796 648 813 574 q 744 785 779 722 q 646 885 708 849 q 499 921 583 921 q 353 882 415 921 q 255 778 290 843 q 203 640 219 714 q 186 486 186 567 q 203 324 186 399 q 255 188 219 250 q 353 89 290 125 q 499 53 415 53 z "},"R":{"ha":896,"x_min":150,"x_max":785,"o":"m 150 0 l 150 972 l 494 972 q 716 897 647 972 q 785 713 785 822 q 724 538 785 611 q 538 449 663 464 l 757 0 l 675 0 l 461 446 l 224 446 l 224 0 l 150 0 m 224 513 l 496 513 q 660 570 608 513 q 711 710 711 628 q 701 776 711 744 q 667 839 690 808 q 600 888 644 869 q 496 906 556 906 l 224 906 l 224 513 z "},"S":{"ha":815,"x_min":97,"x_max":707,"o":"m 413 -17 q 216 41 300 -17 q 97 185 132 99 l 169 210 q 267 94 203 138 q 414 51 331 51 q 572 102 514 51 q 631 246 631 153 q 404 488 631 403 q 303 532 344 511 q 217 586 261 553 q 149 666 172 619 q 126 769 126 713 q 200 926 126 864 q 401 989 274 989 q 569 946 499 989 q 663 832 640 903 l 593 810 q 397 921 543 921 q 254 881 306 921 q 203 769 203 840 q 221 697 203 729 q 276 638 239 664 q 347 597 314 613 q 435 558 379 581 q 532 513 490 536 q 617 452 574 489 q 683 363 660 415 q 707 247 707 311 q 626 53 707 124 q 413 -17 544 -17 z "},"T":{"ha":786,"x_min":89,"x_max":697,"o":"m 429 903 l 429 0 l 356 0 l 356 903 l 89 903 l 89 972 l 697 972 l 697 903 l 429 903 z "},"U":{"ha":929,"x_min":143,"x_max":786,"o":"m 465 -17 q 143 354 143 -17 l 143 972 l 217 972 l 217 356 q 465 51 217 51 q 713 356 713 51 l 713 972 l 786 972 l 786 354 q 465 -17 786 -17 z "},"V":{"ha":883,"x_min":82,"x_max":801,"o":"m 415 0 l 82 972 l 161 972 l 421 203 q 433 164 425 189 q 444 131 442 139 q 456 164 447 139 q 468 203 464 189 l 722 972 l 801 972 l 469 0 l 415 0 z "},"W":{"ha":1153,"x_min":82,"x_max":1071,"o":"m 294 0 l 82 972 l 161 972 l 314 250 q 331 165 328 181 q 351 247 338 194 l 544 972 l 601 972 l 793 247 q 813 174 794 244 q 829 250 815 188 l 993 972 l 1071 972 l 847 0 l 796 0 l 604 699 q 572 818 603 703 q 556 753 567 794 q 542 699 544 711 l 349 0 l 294 0 z "},"X":{"ha":769,"x_min":68,"x_max":703,"o":"m 624 0 l 382 440 l 147 0 l 68 0 l 347 506 l 90 972 l 171 972 l 386 578 l 599 972 l 678 972 l 421 513 l 703 0 l 624 0 z "},"Y":{"ha":844,"x_min":69,"x_max":776,"o":"m 386 0 l 386 383 l 69 972 l 150 972 l 422 454 l 699 972 l 776 972 l 460 386 l 460 0 l 386 0 z "},"Z":{"ha":856,"x_min":96,"x_max":761,"o":"m 96 0 l 96 47 l 665 904 l 128 904 l 128 972 l 761 972 l 761 922 l 197 69 l 761 69 l 761 0 l 96 0 z "},"[":{"ha":524,"x_min":171,"x_max":438,"o":"m 171 -181 l 171 989 l 438 989 l 438 922 l 244 922 l 244 -114 l 438 -114 l 438 -181 l 171 -181 z "},"\\":{"ha":672,"x_min":10,"x_max":629,"o":"m 556 -181 l 10 989 l 83 989 l 629 -181 l 556 -181 z "},"]":{"ha":524,"x_min":88,"x_max":354,"o":"m 354 -181 l 88 -181 l 88 -114 l 281 -114 l 281 922 l 88 922 l 88 989 l 354 989 l 354 -181 z "},"^":{"ha":914,"x_min":150,"x_max":765,"o":"m 689 503 l 457 894 l 226 503 l 150 503 l 417 989 l 496 989 l 765 503 l 689 503 z "},"_":{"ha":733,"x_min":13,"x_max":721,"o":"m 13 -231 l 13 -154 l 721 -154 l 721 -231 l 13 -231 z "},"`":{"ha":463,"x_min":26,"x_max":342,"o":"m 267 800 l 26 1017 l 139 1017 l 342 800 l 267 800 z "},"a":{"ha":719,"x_min":93,"x_max":614,"o":"m 543 0 l 543 90 q 326 -17 450 -17 q 156 44 219 -17 q 93 219 93 106 q 165 390 93 332 q 343 449 236 449 q 543 390 443 449 l 543 472 q 498 620 543 579 q 379 661 453 661 q 167 589 279 661 l 144 653 q 386 726 267 726 q 465 716 428 726 q 537 681 501 706 q 593 608 572 657 q 614 489 614 558 l 614 0 l 543 0 m 332 49 q 543 174 447 49 l 543 319 q 349 383 447 383 q 218 342 271 383 q 165 219 165 300 q 210 95 165 142 q 332 49 254 49 z "},"b":{"ha":775,"x_min":135,"x_max":690,"o":"m 417 -17 q 208 83 293 -17 l 208 0 l 135 0 l 135 967 l 208 1003 l 208 624 q 296 699 242 671 q 408 726 350 726 q 614 628 538 726 q 690 356 690 529 q 618 80 690 176 q 417 -17 546 -17 m 407 53 q 560 133 507 53 q 613 356 613 214 q 560 581 613 503 q 404 658 507 658 q 287 619 340 658 q 208 532 233 579 l 208 181 q 294 88 240 122 q 407 53 347 53 z "},"c":{"ha":663,"x_min":86,"x_max":592,"o":"m 354 -17 q 158 81 231 -17 q 86 354 86 179 q 160 628 86 529 q 364 726 233 726 q 497 688 440 726 q 582 578 554 650 l 513 551 q 363 658 471 658 q 164 354 164 658 q 214 132 164 211 q 356 53 264 53 q 460 85 415 53 q 522 172 504 117 l 592 146 q 504 27 568 71 q 354 -17 440 -17 z "},"d":{"ha":775,"x_min":86,"x_max":642,"o":"m 367 -17 q 162 84 238 -17 q 86 356 86 185 q 162 628 86 531 q 372 726 238 726 q 568 633 486 726 l 568 967 l 642 1003 l 642 0 l 568 0 l 568 82 q 367 -17 489 -17 m 378 53 q 486 88 435 53 q 568 181 538 124 l 568 535 q 378 658 494 658 q 219 579 275 658 q 164 356 164 500 q 222 140 164 226 q 378 53 281 53 z "},"e":{"ha":729,"x_min":86,"x_max":651,"o":"m 382 -17 q 166 88 246 -17 q 86 356 86 192 q 167 628 86 529 q 382 726 249 726 q 577 637 503 726 q 651 369 651 547 q 650 328 651 346 l 164 328 q 231 124 174 194 q 386 54 288 54 q 550 111 475 54 l 590 61 q 382 -17 497 -17 m 163 394 l 575 394 q 516 599 574 539 q 382 660 458 660 q 228 593 288 660 q 163 394 169 526 z "},"f":{"ha":444,"x_min":47,"x_max":406,"o":"m 235 643 l 235 0 l 161 0 l 161 643 l 47 643 l 47 710 l 161 710 l 161 835 q 199 951 161 913 q 303 989 238 989 q 406 961 357 989 l 406 897 q 313 921 356 921 q 251 897 267 921 q 235 824 235 872 l 235 710 l 406 710 l 406 643 l 235 643 z "},"g":{"ha":778,"x_min":86,"x_max":644,"o":"m 322 -296 l 286 -236 q 507 -175 443 -228 q 571 -28 571 -122 l 571 99 q 367 -17 504 -17 q 167 81 249 -17 q 86 356 86 179 q 165 627 86 528 q 372 726 243 726 q 495 696 444 726 q 571 625 546 665 l 571 710 l 644 710 l 644 -11 q 322 -296 644 -279 m 379 53 q 488 91 436 53 q 571 188 540 129 l 571 536 q 486 626 539 593 q 381 658 433 658 q 219 580 275 658 q 164 356 164 501 q 225 134 164 215 q 379 53 286 53 z "},"h":{"ha":772,"x_min":135,"x_max":646,"o":"m 135 0 l 135 968 l 208 1003 l 208 607 q 290 697 236 667 q 404 726 344 726 q 586 651 526 726 q 646 414 646 575 l 646 0 l 572 0 l 572 439 q 399 660 572 660 q 208 425 208 660 l 208 0 l 135 0 z "},"i":{"ha":347,"x_min":122,"x_max":226,"o":"m 211 883 q 203 875 211 883 q 174 868 196 868 q 137 883 151 868 q 122 919 122 897 q 137 959 122 943 q 174 975 151 975 q 211 959 196 975 q 226 919 226 943 q 211 883 226 897 m 138 0 l 138 710 l 211 710 l 211 0 l 138 0 z "},"j":{"ha":347,"x_min":-33,"x_max":226,"o":"m 212 883 q 205 875 212 883 q 175 868 197 868 q 138 883 153 868 q 122 919 122 897 q 138 959 122 943 q 175 975 153 975 q 212 959 197 975 q 226 919 226 943 q 212 883 226 897 m 1 -296 l -33 -236 q 99 -190 60 -228 q 139 -78 139 -151 l 139 710 l 213 710 l 213 -57 q 165 -221 213 -162 q 1 -296 113 -289 z "},"k":{"ha":704,"x_min":135,"x_max":661,"o":"m 661 0 l 579 0 l 343 464 l 208 319 l 208 0 l 135 0 l 135 967 l 208 1003 l 208 408 l 485 710 l 572 710 l 394 518 l 661 0 z "},"l":{"ha":349,"x_min":138,"x_max":211,"o":"m 138 0 l 138 967 l 211 1003 l 211 0 l 138 0 z "},"m":{"ha":1165,"x_min":135,"x_max":1039,"o":"m 965 0 l 965 440 q 800 660 965 660 q 671 597 718 660 q 624 440 624 533 l 624 0 l 550 0 l 550 440 q 386 660 550 660 q 254 599 300 660 q 208 442 208 539 l 208 0 l 135 0 l 135 710 l 208 710 l 208 617 q 404 726 275 726 q 522 690 471 726 q 597 586 574 654 q 681 689 625 651 q 806 726 738 726 q 974 660 910 726 q 1039 481 1039 593 l 1039 0 l 965 0 z "},"n":{"ha":772,"x_min":135,"x_max":646,"o":"m 572 0 l 572 439 q 399 660 572 660 q 208 425 208 660 l 208 0 l 135 0 l 135 710 l 208 710 l 208 607 q 290 697 238 667 q 404 726 343 726 q 586 651 526 726 q 646 414 646 575 l 646 0 l 572 0 z "},"o":{"ha":756,"x_min":86,"x_max":671,"o":"m 591 83 q 551 33 591 83 q 378 -17 511 -17 q 165 81 244 -17 q 86 354 86 179 q 165 627 86 528 q 378 726 244 726 q 591 628 511 726 q 671 356 671 531 q 591 83 671 182 m 219 132 q 247 92 219 132 q 378 53 275 53 q 537 133 481 53 q 593 356 593 213 q 538 578 593 499 q 378 658 482 658 q 219 581 274 658 q 164 354 164 503 q 219 132 164 211 z "},"p":{"ha":781,"x_min":135,"x_max":696,"o":"m 408 -17 q 208 94 278 -17 l 208 -246 l 135 -282 l 135 710 l 208 710 l 208 626 q 414 726 286 726 q 620 626 544 726 q 696 356 696 525 q 617 81 696 179 q 408 -17 538 -17 m 403 53 q 562 131 506 53 q 618 356 618 210 q 560 576 618 494 q 403 658 503 658 q 291 625 343 658 q 208 535 239 592 l 208 183 q 403 53 288 53 z "},"q":{"ha":779,"x_min":86,"x_max":646,"o":"m 374 -17 q 164 79 242 -17 q 86 351 86 175 q 160 624 86 521 q 364 726 235 726 q 572 626 489 726 l 572 710 l 646 710 l 646 -243 l 572 -278 l 572 94 q 374 -17 499 -17 m 376 53 q 572 185 493 53 l 572 535 q 488 626 540 593 q 376 658 436 658 q 221 572 278 658 q 164 351 164 486 q 219 129 164 206 q 376 53 274 53 z "},"r":{"ha":531,"x_min":135,"x_max":499,"o":"m 135 0 l 135 710 l 208 710 l 208 585 q 401 726 267 726 q 499 697 464 726 l 488 625 q 394 650 447 650 q 266 588 324 650 q 208 397 208 526 l 208 0 l 135 0 z "},"s":{"ha":639,"x_min":93,"x_max":553,"o":"m 326 -17 q 93 99 193 -17 l 146 146 q 331 50 228 50 q 440 81 399 50 q 481 169 481 111 q 432 269 481 232 q 296 342 383 307 q 144 426 196 381 q 93 549 93 471 q 153 677 93 628 q 311 726 213 726 q 529 629 442 726 l 478 586 q 310 660 401 660 q 203 630 242 660 q 164 550 164 600 q 176 499 164 521 q 217 458 188 476 q 266 430 247 439 q 332 401 285 421 q 417 365 386 381 q 483 324 447 350 q 536 260 519 297 q 553 172 553 222 q 492 35 553 86 q 326 -17 432 -17 z "},"t":{"ha":507,"x_min":51,"x_max":432,"o":"m 307 -17 q 172 146 172 -17 l 172 643 l 51 643 l 51 710 l 172 710 l 172 967 l 246 1003 l 246 710 l 426 710 l 426 643 l 246 643 l 246 169 q 262 83 246 113 q 326 54 278 54 q 432 92 375 54 l 424 14 q 307 -17 374 -17 z "},"u":{"ha":772,"x_min":128,"x_max":639,"o":"m 565 0 l 565 94 q 372 -17 501 -17 q 188 58 247 -17 q 128 296 128 133 l 128 710 l 201 710 l 201 271 q 374 50 201 50 q 565 286 565 50 l 565 710 l 639 710 l 639 0 l 565 0 z "},"v":{"ha":694,"x_min":65,"x_max":629,"o":"m 321 0 l 65 710 l 140 710 l 329 182 q 349 122 336 164 q 369 182 353 133 l 556 710 l 629 710 l 374 0 l 321 0 z "},"w":{"ha":974,"x_min":65,"x_max":910,"o":"m 243 0 l 65 710 l 139 710 l 265 181 l 282 107 q 303 181 289 133 l 461 710 l 513 710 l 672 181 l 694 103 q 711 181 700 131 l 836 710 l 910 710 l 732 0 l 669 0 l 517 476 l 486 572 q 457 476 479 549 l 306 0 l 243 0 z "},"x":{"ha":688,"x_min":65,"x_max":624,"o":"m 65 0 l 304 369 l 83 710 l 163 710 l 307 488 q 319 468 313 478 q 333 447 325 458 q 344 429 340 436 l 381 488 l 525 710 l 606 710 l 383 369 l 624 0 l 543 0 l 381 251 l 344 310 q 333 290 339 300 q 319 269 326 281 q 307 251 311 258 l 144 0 l 65 0 z "},"y":{"ha":717,"x_min":65,"x_max":651,"o":"m 217 -269 l 322 19 l 65 710 l 139 710 l 332 178 q 344 143 336 167 q 356 107 351 119 l 381 178 l 575 710 l 651 710 l 290 -269 l 217 -269 z "},"z":{"ha":690,"x_min":96,"x_max":588,"o":"m 96 0 l 96 46 l 490 643 l 124 643 l 124 710 l 588 710 l 588 667 l 192 67 l 586 67 l 586 0 l 96 0 z "},"{":{"ha":522,"x_min":89,"x_max":450,"o":"m 450 -181 q 213 140 213 -174 l 213 218 q 180 331 213 289 q 94 372 147 372 l 89 372 l 89 439 l 94 439 q 181 479 149 439 q 213 592 213 519 l 213 668 q 450 989 213 982 l 450 926 q 329 868 369 924 q 289 713 289 813 l 289 617 q 252 458 289 501 q 138 404 215 414 q 253 356 217 399 q 289 192 289 314 l 289 96 q 329 -60 289 -4 q 450 -118 369 -115 l 450 -181 z "},"|":{"ha":372,"x_min":150,"x_max":224,"o":"m 150 -525 l 150 1475 l 224 1475 l 224 -525 l 150 -525 z "},"}":{"ha":522,"x_min":74,"x_max":433,"o":"m 74 -181 l 74 -118 q 233 96 233 -112 l 233 192 q 270 356 233 314 q 386 404 307 399 q 270 458 307 414 q 233 617 233 503 l 233 713 q 74 926 233 921 l 74 989 q 311 668 311 982 l 311 592 q 342 479 311 519 q 428 439 374 439 l 433 439 l 433 372 l 428 372 q 343 331 375 372 q 311 218 311 289 l 311 140 q 74 -181 311 -174 z "},"~":{"ha":914,"x_min":133,"x_max":781,"o":"m 613 385 q 447 440 549 385 q 296 494 344 494 q 219 465 249 494 q 188 385 190 436 l 133 385 q 175 513 133 461 q 301 565 217 565 q 469 511 367 565 q 618 457 572 457 q 695 486 665 457 q 728 565 725 515 l 781 565 q 738 437 781 489 q 613 385 696 385 z "}," ":{"ha":313,"x_min":0,"x_max":0,"o":""},"¡":{"ha":369,"x_min":122,"x_max":250,"o":"m 231 617 q 222 607 231 617 q 186 597 213 597 q 141 617 160 597 q 122 663 122 638 q 141 707 122 688 q 186 726 160 726 q 231 707 213 726 q 250 663 250 688 q 231 617 250 638 m 224 -278 l 147 -278 l 147 46 l 178 442 l 193 442 l 224 46 l 224 -278 z "},"¢":{"ha":707,"x_min":101,"x_max":607,"o":"m 331 -17 l 331 117 q 163 228 224 132 q 101 485 101 325 q 162 737 101 642 q 331 851 222 832 l 331 989 l 403 989 l 403 856 q 600 707 549 844 l 528 679 q 383 783 489 783 q 179 485 179 783 q 231 265 179 343 q 375 188 282 188 q 476 219 433 188 q 535 306 519 251 l 607 279 q 403 115 560 128 l 403 -17 l 331 -17 z "},"£":{"ha":836,"x_min":135,"x_max":761,"o":"m 138 0 l 138 83 q 272 372 272 174 q 268 425 272 400 l 135 425 l 135 488 l 250 488 q 228 540 243 504 q 205 597 213 575 q 190 654 197 618 q 182 726 182 690 q 259 913 182 836 q 481 989 336 989 q 740 907 636 989 l 711 839 q 481 918 619 918 q 317 861 372 918 q 261 726 261 804 q 296 582 261 668 q 333 488 331 496 l 564 488 l 564 425 l 347 425 q 351 381 351 401 q 204 68 351 199 l 761 68 l 761 0 l 138 0 z "},"¤":{"ha":879,"x_min":81,"x_max":799,"o":"m 439 131 q 232 199 317 131 l 138 104 l 81 161 l 178 257 q 124 463 124 339 q 178 669 124 583 l 81 765 l 136 821 l 231 726 q 439 796 319 796 q 647 726 558 796 l 742 821 l 799 763 l 703 668 q 757 463 757 582 q 700 256 757 342 l 799 158 l 743 104 l 649 200 q 439 131 560 131 m 439 203 q 614 276 547 203 q 681 463 681 349 q 614 651 681 578 q 439 724 547 724 q 266 651 332 724 q 200 463 200 578 q 266 276 200 349 q 439 203 332 203 z "},"¥":{"ha":772,"x_min":43,"x_max":731,"o":"m 432 429 l 646 429 l 646 365 l 424 365 l 424 236 l 646 236 l 646 171 l 424 171 l 424 0 l 350 0 l 350 171 l 110 171 l 110 236 l 350 236 l 350 365 l 110 365 l 110 429 l 340 429 l 43 972 l 124 972 l 386 482 l 653 972 l 731 972 l 432 429 z "},"¦":{"ha":372,"x_min":150,"x_max":224,"o":"m 150 508 l 150 1146 l 224 1146 l 224 508 l 150 508 m 150 -312 l 150 325 l 224 325 l 224 -312 l 150 -312 z "},"§":{"ha":744,"x_min":100,"x_max":644,"o":"m 371 -167 q 209 -135 281 -167 q 100 -58 138 -103 l 156 -7 q 369 -94 239 -94 q 567 50 567 -94 q 553 105 567 79 q 524 147 540 131 q 475 181 507 164 q 422 208 443 199 q 359 233 400 217 q 301 256 318 249 q 225 290 251 276 q 169 326 199 303 q 126 378 139 349 q 113 446 113 407 q 147 544 113 503 q 238 599 182 585 q 113 793 113 656 q 185 936 113 883 q 365 989 258 989 q 613 892 522 989 l 554 843 q 365 915 479 915 q 239 883 286 915 q 192 788 192 850 q 197 746 192 764 q 221 711 203 728 q 253 683 239 694 q 303 656 267 672 q 360 632 339 640 q 432 604 381 624 q 497 578 472 589 q 553 547 522 567 q 602 508 585 528 q 632 456 619 488 q 644 388 644 425 q 542 238 644 278 q 644 51 644 175 q 572 -111 644 -56 q 371 -167 499 -167 m 475 272 q 567 383 567 307 q 553 434 567 411 q 522 472 539 457 q 465 506 506 488 q 401 533 425 524 q 322 561 378 542 q 226 522 261 551 q 192 446 192 492 q 209 396 192 418 q 260 356 226 374 q 324 327 293 339 q 403 299 356 315 q 475 272 450 282 z "},"¨":{"ha":463,"x_min":65,"x_max":401,"o":"m 156 857 q 148 849 156 857 q 118 842 140 842 q 81 857 96 842 q 65 894 65 872 q 81 933 65 917 q 118 949 96 949 q 156 933 140 949 q 171 894 171 918 q 156 857 171 872 m 386 857 q 378 849 386 857 q 349 842 371 842 q 311 857 326 842 q 296 894 296 872 q 311 933 296 917 q 349 949 326 949 q 386 933 371 949 q 401 894 401 918 q 386 857 401 872 z "},"©":{"ha":1211,"x_min":103,"x_max":1108,"o":"m 964 128 q 892 56 964 128 q 606 -17 819 -17 q 247 128 392 -17 q 103 486 103 272 q 247 844 103 700 q 606 989 392 989 q 964 844 819 989 q 1108 486 1108 700 q 964 128 1108 272 m 292 171 q 355 108 292 171 q 606 44 417 44 q 919 171 794 44 q 1043 486 1043 297 q 919 801 1043 675 q 606 928 794 928 q 292 801 417 928 q 168 486 168 675 q 292 171 168 297 m 614 192 q 435 269 499 192 q 372 493 372 347 q 437 715 372 633 q 619 796 501 796 q 817 658 764 796 l 750 631 q 613 726 713 726 q 446 493 446 726 q 486 317 446 375 q 615 260 526 260 q 763 369 735 260 l 824 344 q 746 231 801 271 q 614 192 690 192 z "},"ª":{"ha":632,"x_min":75,"x_max":529,"o":"m 457 393 l 457 443 q 282 379 379 379 q 131 429 188 379 q 75 572 75 479 q 142 716 75 665 q 300 767 210 767 q 457 729 382 767 l 457 765 q 422 888 457 853 q 306 922 386 922 q 146 874 214 922 l 126 938 q 313 989 200 989 q 471 944 413 989 q 529 776 529 899 l 529 393 l 457 393 m 288 443 q 457 513 382 443 l 457 661 q 306 701 389 701 q 198 669 243 701 q 153 572 153 638 q 190 476 153 510 q 288 443 226 443 z "},"«":{"ha":672,"x_min":67,"x_max":626,"o":"m 278 0 l 67 356 l 278 710 l 361 710 l 150 356 l 361 0 l 278 0 m 542 0 l 331 356 l 542 710 l 626 710 l 415 356 l 626 0 l 542 0 z "},"¬":{"ha":914,"x_min":131,"x_max":783,"o":"m 708 244 l 708 572 l 131 572 l 131 643 l 783 643 l 783 244 l 708 244 z "},"­":{"ha":557,"x_min":124,"x_max":433,"o":"m 124 378 l 124 450 l 433 450 l 433 378 l 124 378 z "},"®":{"ha":1211,"x_min":103,"x_max":1108,"o":"m 964 128 q 892 56 964 128 q 606 -17 819 -17 q 247 128 392 -17 q 103 486 103 272 q 247 844 103 700 q 606 989 392 989 q 964 844 819 989 q 1108 486 1108 700 q 964 128 1108 272 m 292 171 q 355 108 292 171 q 606 44 417 44 q 919 171 794 44 q 1043 486 1043 297 q 919 801 1043 675 q 606 928 794 928 q 292 801 417 928 q 168 486 168 675 q 292 171 168 297 m 406 190 l 406 778 l 672 778 q 794 725 754 778 q 835 608 835 672 q 795 495 835 543 q 685 439 756 447 l 829 190 l 750 190 l 613 436 l 475 436 l 475 190 l 406 190 m 475 500 l 668 500 q 740 531 715 500 q 765 607 765 561 q 742 680 765 649 q 668 711 718 711 l 475 711 l 475 500 z "},"¯":{"ha":463,"x_min":1,"x_max":460,"o":"m 1 856 l 1 921 l 460 921 l 460 856 l 1 856 z "},"°":{"ha":565,"x_min":72,"x_max":494,"o":"m 283 647 q 133 708 193 647 q 72 857 72 768 q 133 1006 72 946 q 283 1065 193 1065 q 433 1006 372 1065 q 494 857 494 946 q 433 708 494 768 q 283 647 372 647 m 186 758 q 206 738 186 758 q 283 718 225 718 q 380 758 342 718 q 418 857 418 797 q 380 956 418 917 q 283 996 342 996 q 186 956 225 996 q 147 857 147 917 q 186 758 147 797 z "},"±":{"ha":914,"x_min":131,"x_max":783,"o":"m 493 529 l 493 285 l 418 285 l 418 529 l 131 529 l 131 600 l 418 600 l 418 844 l 493 844 l 493 600 l 783 600 l 783 529 l 493 529 m 131 0 l 131 72 l 783 72 l 783 0 l 131 0 z "},"²":{"ha":511,"x_min":61,"x_max":431,"o":"m 61 617 q 74 708 61 668 q 119 783 88 749 q 178 837 151 817 q 256 890 204 857 q 336 959 311 925 q 361 1046 361 993 q 332 1120 361 1088 q 246 1153 303 1153 q 119 1051 146 1153 l 61 1075 q 126 1174 76 1136 q 251 1213 175 1213 q 381 1167 331 1213 q 431 1043 431 1121 q 394 924 431 971 q 276 828 358 876 q 136 682 158 757 l 429 682 l 429 617 l 61 617 z "},"³":{"ha":507,"x_min":50,"x_max":447,"o":"m 253 603 q 50 739 108 603 l 113 764 q 253 663 157 663 q 343 692 310 663 q 376 772 376 721 q 347 854 376 821 q 267 888 317 888 l 221 888 l 221 947 l 251 947 q 326 978 299 947 q 353 1053 353 1010 q 326 1125 353 1096 q 250 1154 300 1154 q 126 1065 167 1154 l 65 1088 q 140 1179 90 1144 q 253 1214 189 1214 q 376 1172 328 1214 q 424 1057 424 1129 q 401 978 424 1015 q 340 925 379 942 q 418 874 389 913 q 447 778 447 835 q 392 650 447 697 q 253 603 338 603 z "},"´":{"ha":463,"x_min":121,"x_max":436,"o":"m 121 800 l 324 1017 l 436 1017 l 196 800 l 121 800 z "},"µ":{"ha":776,"x_min":131,"x_max":642,"o":"m 568 0 l 568 96 q 367 -17 492 -17 q 204 69 257 -17 l 204 -242 l 131 -278 l 131 710 l 204 710 l 204 271 q 249 97 204 143 q 378 50 294 50 q 568 286 568 50 l 568 710 l 642 710 l 642 0 l 568 0 z "},"¶":{"ha":882,"x_min":54,"x_max":744,"o":"m 422 -278 l 422 388 q 247 414 322 388 q 132 485 172 440 q 73 580 92 531 q 54 683 54 629 q 130 889 54 806 q 369 972 206 972 l 744 972 l 744 -153 l 657 -192 l 657 886 l 510 886 l 510 -239 l 422 -278 z "},"·":{"ha":297,"x_min":85,"x_max":213,"o":"m 149 421 q 103 440 122 421 q 85 485 85 460 q 103 531 85 511 q 149 550 122 550 q 194 531 176 550 q 213 485 213 511 q 194 440 213 458 q 149 421 176 421 z "},"¸":{"ha":463,"x_min":129,"x_max":385,"o":"m 239 -325 q 129 -286 171 -325 l 178 -253 q 235 -272 197 -272 q 292 -250 269 -272 q 315 -194 315 -228 q 290 -142 315 -164 q 228 -119 264 -119 q 176 -128 194 -119 l 161 -110 l 254 14 l 299 14 l 244 -79 q 350 -113 315 -79 q 385 -194 385 -147 q 344 -288 385 -251 q 239 -325 304 -325 z "},"¹":{"ha":275,"x_min":36,"x_max":175,"o":"m 107 617 l 107 1074 l 36 1074 l 36 1119 q 131 1203 114 1121 l 175 1203 l 175 617 l 107 617 z "},"º":{"ha":649,"x_min":71,"x_max":578,"o":"m 324 378 q 139 458 207 378 q 71 683 71 539 q 140 908 71 826 q 324 989 208 989 q 510 908 442 989 q 578 683 578 826 q 510 458 578 539 q 324 378 442 378 m 324 449 q 456 510 408 449 q 503 683 503 572 q 456 857 503 796 q 324 918 410 918 q 194 856 242 918 q 147 683 147 794 q 195 511 147 574 q 324 449 243 449 z "},"»":{"ha":672,"x_min":46,"x_max":606,"o":"m 46 0 l 257 356 l 46 710 l 129 710 l 340 356 l 129 0 l 46 0 m 310 0 l 521 356 l 310 710 l 394 710 l 606 356 l 394 0 l 310 0 z "},"¼":{"ha":933,"x_min":28,"x_max":869,"o":"m 28 -17 l 692 989 l 769 989 l 106 -17 l 28 -17 m 121 393 l 121 850 l 50 850 l 50 896 q 144 979 128 897 l 190 979 l 190 393 l 121 393 m 725 0 l 725 157 l 432 157 l 432 192 l 740 588 l 794 588 l 794 219 l 869 219 l 869 157 l 794 157 l 794 0 l 725 0 m 725 219 l 725 483 l 525 219 l 725 219 z "},"½":{"ha":1001,"x_min":28,"x_max":921,"o":"m 28 -17 l 692 989 l 769 989 l 106 -17 l 28 -17 m 121 393 l 121 850 l 50 850 l 50 896 q 144 979 128 897 l 190 979 l 190 393 l 121 393 m 551 0 q 565 92 551 51 q 610 166 578 132 q 668 220 642 200 q 746 274 694 240 q 826 342 801 308 q 851 429 851 376 q 822 503 851 471 q 736 536 793 536 q 610 435 636 536 l 551 458 q 616 558 567 519 q 742 596 665 596 q 871 550 821 596 q 921 426 921 504 q 885 307 921 354 q 767 211 849 260 q 671 140 703 172 q 626 67 639 107 l 919 67 l 919 0 l 551 0 z "},"¾":{"ha":1133,"x_min":51,"x_max":1068,"o":"m 254 376 q 51 513 110 376 l 114 538 q 254 436 158 436 q 344 466 311 436 q 378 547 378 496 q 348 629 378 596 q 268 663 318 663 l 222 663 l 222 722 l 253 722 q 327 753 300 722 q 354 829 354 785 q 328 901 354 872 q 251 929 301 929 q 128 840 168 929 l 67 863 q 141 955 92 921 q 254 989 190 989 q 378 947 331 989 q 425 833 425 906 q 403 755 425 792 q 342 701 381 718 q 419 649 390 688 q 449 553 449 610 q 394 424 449 472 q 254 376 339 376 m 226 -17 l 890 989 l 968 989 l 304 -17 l 226 -17 m 924 0 l 924 157 l 631 157 l 631 192 l 939 588 l 993 588 l 993 219 l 1068 219 l 1068 157 l 993 157 l 993 0 l 924 0 m 924 219 l 924 483 l 724 219 l 924 219 z "},"¿":{"ha":728,"x_min":79,"x_max":660,"o":"m 379 599 q 335 617 353 599 q 317 663 317 636 q 335 707 317 688 q 379 726 353 726 q 426 707 406 726 q 446 663 446 688 q 426 617 446 636 q 379 599 407 599 m 358 -278 q 153 -206 226 -278 q 79 -21 79 -133 q 106 92 79 42 q 172 176 133 142 q 248 246 210 211 q 313 331 286 281 q 340 446 340 382 l 340 485 l 415 485 l 415 446 q 388 318 415 374 q 323 227 361 263 q 247 159 285 192 q 181 81 208 126 q 154 -21 154 36 q 208 -157 154 -104 q 358 -210 263 -210 q 524 -150 464 -210 q 585 7 585 -90 l 660 7 q 576 -198 660 -118 q 358 -278 493 -278 z "},"À":{"ha":901,"x_min":88,"x_max":815,"o":"m 485 1063 l 244 1279 l 357 1279 l 560 1063 l 485 1063 m 739 0 l 647 263 l 254 263 l 165 0 l 88 0 l 422 972 l 478 972 l 815 0 l 739 0 m 626 326 l 489 728 q 450 850 458 817 q 413 728 443 819 l 275 326 l 626 326 z "},"Á":{"ha":901,"x_min":88,"x_max":815,"o":"m 339 1063 l 542 1279 l 654 1279 l 414 1063 l 339 1063 m 739 0 l 647 263 l 254 263 l 165 0 l 88 0 l 422 972 l 478 972 l 815 0 l 739 0 m 626 326 l 489 728 q 450 850 458 817 q 413 728 443 819 l 275 326 l 626 326 z "},"Â":{"ha":901,"x_min":88,"x_max":815,"o":"m 621 1063 l 450 1217 l 279 1063 l 208 1063 l 418 1279 l 482 1279 l 692 1063 l 621 1063 m 739 0 l 647 263 l 254 263 l 165 0 l 88 0 l 422 972 l 478 972 l 815 0 l 739 0 m 626 326 l 489 728 q 450 850 458 817 q 413 728 443 819 l 275 326 l 626 326 z "},"Ã":{"ha":901,"x_min":88,"x_max":815,"o":"m 560 1099 q 437 1144 510 1099 q 331 1190 364 1190 q 282 1167 301 1190 q 261 1104 263 1144 l 215 1104 q 247 1217 215 1176 q 340 1257 278 1257 q 463 1211 390 1257 q 569 1165 536 1165 q 618 1188 599 1165 q 639 1251 638 1211 l 683 1251 q 652 1139 683 1179 q 560 1099 621 1099 m 739 0 l 647 263 l 254 263 l 165 0 l 88 0 l 422 972 l 478 972 l 815 0 l 739 0 m 626 326 l 489 728 q 450 850 458 817 q 413 728 443 819 l 275 326 l 626 326 z "},"Ä":{"ha":901,"x_min":88,"x_max":815,"o":"m 374 1119 q 366 1112 374 1119 q 336 1104 358 1104 q 299 1119 314 1104 q 283 1157 283 1135 q 299 1195 283 1179 q 336 1211 314 1211 q 374 1196 358 1211 q 389 1157 389 1181 q 374 1119 389 1135 m 604 1119 q 597 1112 604 1119 q 567 1104 589 1104 q 529 1119 544 1104 q 514 1157 514 1135 q 529 1195 514 1179 q 567 1211 544 1211 q 604 1196 589 1211 q 619 1157 619 1181 q 604 1119 619 1135 m 739 0 l 647 263 l 254 263 l 165 0 l 88 0 l 422 972 l 478 972 l 815 0 l 739 0 m 626 326 l 489 728 q 450 850 458 817 q 413 728 443 819 l 275 326 l 626 326 z "},"Å":{"ha":901,"x_min":88,"x_max":815,"o":"m 88 0 l 394 892 q 322 948 350 908 q 293 1038 293 988 q 340 1147 293 1101 q 453 1193 388 1193 q 565 1147 518 1193 q 613 1038 613 1101 q 583 947 613 988 q 507 890 553 907 l 815 0 l 739 0 l 647 263 l 254 263 l 165 0 l 88 0 m 453 939 q 520 967 493 939 q 547 1038 547 996 q 520 1108 547 1081 q 453 1136 493 1136 q 386 1108 414 1136 q 358 1038 358 1081 q 386 967 358 996 q 453 939 414 939 m 275 326 l 626 326 l 489 728 q 450 850 458 817 q 413 728 443 819 l 275 326 z "},"Æ":{"ha":1186,"x_min":-10,"x_max":1079,"o":"m -10 0 l 554 972 l 1049 972 l 1049 903 l 651 903 l 651 538 l 914 538 l 914 469 l 651 469 l 651 69 l 1079 69 l 1079 0 l 578 0 l 578 263 l 225 263 l 75 0 l -10 0 m 260 326 l 578 326 l 578 888 q 539 818 576 885 l 260 326 z "},"Ç":{"ha":892,"x_min":108,"x_max":799,"o":"m 476 -325 q 365 -286 407 -325 l 415 -253 q 471 -272 435 -272 q 530 -250 507 -272 q 553 -194 553 -228 q 527 -142 553 -164 q 465 -119 501 -119 q 414 -128 431 -119 l 399 -110 l 468 -15 q 304 35 375 -10 q 192 151 233 79 q 129 307 150 222 q 108 486 108 392 q 123 640 108 567 q 169 776 138 713 q 244 888 200 840 q 354 962 289 935 q 497 989 419 989 q 677 947 613 989 q 785 832 742 904 l 719 794 q 633 887 683 853 q 497 921 582 921 q 319 855 392 921 q 215 694 246 789 q 185 486 185 600 q 263 178 185 303 q 497 53 342 53 q 732 188 658 53 l 799 161 q 692 38 763 89 q 518 -17 622 -12 l 481 -79 q 587 -113 551 -79 q 622 -194 622 -147 q 581 -288 622 -251 q 476 -325 540 -325 z "},"È":{"ha":818,"x_min":150,"x_max":711,"o":"m 417 1063 l 176 1279 l 289 1279 l 492 1063 l 417 1063 m 150 0 l 150 972 l 681 972 l 681 903 l 224 903 l 224 538 l 532 538 l 532 469 l 224 469 l 224 69 l 711 69 l 711 0 l 150 0 z "},"É":{"ha":818,"x_min":150,"x_max":711,"o":"m 304 1063 l 507 1279 l 619 1279 l 379 1063 l 304 1063 m 150 0 l 150 972 l 681 972 l 681 903 l 224 903 l 224 538 l 532 538 l 532 469 l 224 469 l 224 69 l 711 69 l 711 0 l 150 0 z "},"Ê":{"ha":818,"x_min":150,"x_max":711,"o":"m 585 1063 l 414 1217 l 243 1063 l 172 1063 l 382 1279 l 446 1279 l 656 1063 l 585 1063 m 150 0 l 150 972 l 681 972 l 681 903 l 224 903 l 224 538 l 532 538 l 532 469 l 224 469 l 224 69 l 711 69 l 711 0 l 150 0 z "},"Ë":{"ha":818,"x_min":150,"x_max":711,"o":"m 339 1119 q 331 1112 339 1119 q 301 1104 324 1104 q 264 1119 279 1104 q 249 1157 249 1135 q 264 1195 249 1179 q 301 1211 279 1211 q 339 1196 324 1211 q 354 1157 354 1181 q 339 1119 354 1135 m 569 1119 q 562 1112 569 1119 q 532 1104 554 1104 q 494 1119 510 1104 q 479 1157 479 1135 q 494 1195 479 1179 q 532 1211 510 1211 q 569 1196 554 1211 q 585 1157 585 1181 q 569 1119 585 1135 m 150 0 l 150 972 l 681 972 l 681 903 l 224 903 l 224 538 l 532 538 l 532 469 l 224 469 l 224 69 l 711 69 l 711 0 l 150 0 z "},"Ì":{"ha":372,"x_min":-21,"x_max":294,"o":"m 219 1063 l -21 1279 l 92 1279 l 294 1063 l 219 1063 m 150 0 l 150 972 l 224 972 l 224 0 l 150 0 z "},"Í":{"ha":372,"x_min":74,"x_max":389,"o":"m 74 1063 l 276 1279 l 389 1279 l 149 1063 l 74 1063 m 150 0 l 150 972 l 224 972 l 224 0 l 150 0 z "},"Î":{"ha":372,"x_min":-57,"x_max":426,"o":"m 356 1063 l 185 1217 l 14 1063 l -57 1063 l 153 1279 l 217 1279 l 426 1063 l 356 1063 m 150 0 l 150 972 l 224 972 l 224 0 l 150 0 z "},"Ï":{"ha":372,"x_min":18,"x_max":354,"o":"m 108 1119 q 101 1112 108 1119 q 71 1104 93 1104 q 33 1119 49 1104 q 18 1157 18 1135 q 33 1195 18 1179 q 71 1211 49 1211 q 108 1196 93 1211 q 124 1157 124 1181 q 108 1119 124 1135 m 339 1119 q 331 1112 339 1119 q 301 1104 324 1104 q 264 1119 279 1104 q 249 1157 249 1135 q 264 1195 249 1179 q 301 1211 279 1211 q 339 1196 324 1211 q 354 1157 354 1181 q 339 1119 354 1135 m 150 0 l 150 972 l 224 972 l 224 0 l 150 0 z "},"Ð":{"ha":933,"x_min":53,"x_max":825,"o":"m 150 451 l 53 451 l 53 519 l 150 519 l 150 972 l 390 972 q 594 931 507 972 q 731 818 682 889 q 802 664 779 747 q 825 486 825 581 q 813 349 825 415 q 769 219 800 283 q 690 106 738 154 q 563 29 642 58 q 385 0 485 0 l 150 0 l 150 451 m 388 69 q 532 94 468 69 q 635 160 596 119 q 701 256 675 200 q 737 367 726 311 q 747 486 747 424 q 728 640 747 568 q 669 773 708 713 q 560 869 629 833 q 399 904 490 904 l 224 904 l 224 519 l 453 519 l 453 451 l 224 451 l 224 69 l 388 69 z "},"Ñ":{"ha":963,"x_min":150,"x_max":814,"o":"m 590 1099 q 467 1144 540 1099 q 361 1190 394 1190 q 313 1167 332 1190 q 292 1104 293 1144 l 246 1104 q 277 1217 246 1176 q 371 1257 308 1257 q 494 1211 421 1257 q 600 1165 567 1165 q 649 1188 629 1165 q 669 1251 668 1211 l 714 1251 q 683 1139 714 1179 q 590 1099 651 1099 m 814 0 l 740 0 l 264 768 q 224 836 228 828 l 224 768 l 224 0 l 150 0 l 150 972 l 224 972 l 699 201 q 740 132 713 179 l 740 201 l 740 972 l 814 972 l 814 0 z "},"Ò":{"ha":997,"x_min":108,"x_max":890,"o":"m 546 1064 l 306 1281 l 418 1281 l 621 1064 l 546 1064 m 650 13 q 616 -2 650 13 q 499 -17 582 -17 q 348 13 415 -17 q 236 90 281 42 q 163 206 192 139 q 121 342 133 272 q 108 486 108 411 q 121 631 108 561 q 163 767 133 700 q 236 882 192 833 q 348 960 281 931 q 499 989 415 989 q 650 960 582 989 q 762 882 718 931 q 835 767 806 833 q 878 631 865 700 q 890 486 890 561 q 878 342 890 411 q 835 206 865 272 q 762 90 806 139 q 650 13 718 42 m 353 89 q 384 71 353 89 q 499 53 415 53 q 645 92 582 53 q 744 195 708 131 q 796 333 779 260 q 813 486 813 406 q 796 648 813 574 q 744 785 779 722 q 646 885 708 849 q 499 921 583 921 q 353 882 415 921 q 255 778 290 843 q 203 640 219 714 q 186 486 186 567 q 203 324 186 399 q 255 188 219 250 q 353 89 290 125 z "},"Ó":{"ha":997,"x_min":108,"x_max":890,"o":"m 386 1063 l 589 1279 l 701 1279 l 461 1063 l 386 1063 m 650 13 q 616 -2 650 13 q 499 -17 582 -17 q 348 13 415 -17 q 236 90 281 42 q 163 206 192 139 q 121 342 133 272 q 108 486 108 411 q 121 631 108 561 q 163 767 133 700 q 236 882 192 833 q 348 960 281 931 q 499 989 415 989 q 650 960 582 989 q 762 882 718 931 q 835 767 806 833 q 878 631 865 700 q 890 486 890 561 q 878 342 890 411 q 835 206 865 272 q 762 90 806 139 q 650 13 718 42 m 353 89 q 384 71 353 89 q 499 53 415 53 q 645 92 582 53 q 744 195 708 131 q 796 333 779 260 q 813 486 813 406 q 796 648 813 574 q 744 785 779 722 q 646 885 708 849 q 499 921 583 921 q 353 882 415 921 q 255 778 290 843 q 203 640 219 714 q 186 486 186 567 q 203 324 186 399 q 255 188 219 250 q 353 89 290 125 z "},"Ô":{"ha":997,"x_min":108,"x_max":890,"o":"m 668 1063 l 497 1217 l 326 1063 l 256 1063 l 465 1279 l 529 1279 l 739 1063 l 668 1063 m 650 13 q 616 -2 650 13 q 499 -17 582 -17 q 348 13 415 -17 q 236 90 281 42 q 163 206 192 139 q 121 342 133 272 q 108 486 108 411 q 121 631 108 561 q 163 767 133 700 q 236 882 192 833 q 348 960 281 931 q 499 989 415 989 q 650 960 582 989 q 762 882 718 931 q 835 767 806 833 q 878 631 865 700 q 890 486 890 561 q 878 342 890 411 q 835 206 865 272 q 762 90 806 139 q 650 13 718 42 m 353 89 q 384 71 353 89 q 499 53 415 53 q 645 92 582 53 q 744 195 708 131 q 796 333 779 260 q 813 486 813 406 q 796 648 813 574 q 744 785 779 722 q 646 885 708 849 q 499 921 583 921 q 353 882 415 921 q 255 778 290 843 q 203 640 219 714 q 186 486 186 567 q 203 324 186 399 q 255 188 219 250 q 353 89 290 125 z "},"Õ":{"ha":997,"x_min":108,"x_max":890,"o":"m 607 1099 q 484 1144 557 1099 q 378 1190 411 1190 q 329 1167 349 1190 q 308 1104 310 1144 l 263 1104 q 294 1217 263 1176 q 388 1257 325 1257 q 510 1211 438 1257 q 617 1165 583 1165 q 665 1188 646 1165 q 686 1251 685 1211 l 731 1251 q 699 1139 731 1179 q 607 1099 668 1099 m 650 13 q 616 -2 650 13 q 499 -17 582 -17 q 348 13 415 -17 q 236 90 281 42 q 163 206 192 139 q 121 342 133 272 q 108 486 108 411 q 121 631 108 561 q 163 767 133 700 q 236 882 192 833 q 348 960 281 931 q 499 989 415 989 q 650 960 582 989 q 762 882 718 931 q 835 767 806 833 q 878 631 865 700 q 890 486 890 561 q 878 342 890 411 q 835 206 865 272 q 762 90 806 139 q 650 13 718 42 m 353 89 q 384 71 353 89 q 499 53 415 53 q 645 92 582 53 q 744 195 708 131 q 796 333 779 260 q 813 486 813 406 q 796 648 813 574 q 744 785 779 722 q 646 885 708 849 q 499 921 583 921 q 353 882 415 921 q 255 778 290 843 q 203 640 219 714 q 186 486 186 567 q 203 324 186 399 q 255 188 219 250 q 353 89 290 125 z "},"Ö":{"ha":997,"x_min":108,"x_max":890,"o":"m 421 1119 q 413 1112 421 1119 q 383 1104 406 1104 q 346 1119 361 1104 q 331 1157 331 1135 q 346 1195 331 1179 q 383 1211 361 1211 q 421 1196 406 1211 q 436 1157 436 1181 q 421 1119 436 1135 m 651 1119 q 644 1112 651 1119 q 614 1104 636 1104 q 576 1119 592 1104 q 561 1157 561 1135 q 576 1195 561 1179 q 614 1211 592 1211 q 651 1196 636 1211 q 667 1157 667 1181 q 651 1119 667 1135 m 650 13 q 616 -2 650 13 q 499 -17 582 -17 q 348 13 415 -17 q 236 90 281 42 q 163 206 192 139 q 121 342 133 272 q 108 486 108 411 q 121 631 108 561 q 163 767 133 700 q 236 882 192 833 q 348 960 281 931 q 499 989 415 989 q 650 960 582 989 q 762 882 718 931 q 835 767 806 833 q 878 631 865 700 q 890 486 890 561 q 878 342 890 411 q 835 206 865 272 q 762 90 806 139 q 650 13 718 42 m 353 89 q 384 71 353 89 q 499 53 415 53 q 645 92 582 53 q 744 195 708 131 q 796 333 779 260 q 813 486 813 406 q 796 648 813 574 q 744 785 779 722 q 646 885 708 849 q 499 921 583 921 q 353 882 415 921 q 255 778 290 843 q 203 640 219 714 q 186 486 186 567 q 203 324 186 399 q 255 188 219 250 q 353 89 290 125 z "},"×":{"ha":914,"x_min":154,"x_max":758,"o":"m 458 424 l 208 172 l 154 224 l 407 476 l 156 726 l 207 776 l 457 526 l 707 776 l 758 725 l 507 475 l 758 222 l 708 174 l 458 424 z "},"Ø":{"ha":997,"x_min":108,"x_max":890,"o":"m 124 -17 l 214 118 q 108 486 108 256 q 121 631 108 561 q 163 767 133 700 q 236 882 192 833 q 348 960 281 931 q 499 989 415 989 q 736 904 640 989 l 794 989 l 874 989 l 785 854 q 890 486 890 717 q 878 342 890 411 q 835 206 865 272 q 762 90 806 139 q 650 13 718 42 q 499 -17 582 -17 q 260 69 356 -17 l 203 -17 l 124 -17 m 257 183 l 697 843 q 499 921 617 921 q 352 882 415 921 q 254 778 289 843 q 202 640 219 714 q 185 486 185 567 q 257 183 185 297 m 499 53 q 645 92 582 53 q 744 195 708 131 q 796 333 779 260 q 813 486 813 406 q 740 789 813 675 l 300 129 q 499 53 376 53 z "},"Ù":{"ha":929,"x_min":143,"x_max":786,"o":"m 499 1063 l 258 1279 l 371 1279 l 574 1063 l 499 1063 m 465 -17 q 143 354 143 -17 l 143 972 l 217 972 l 217 356 q 465 51 217 51 q 713 356 713 51 l 713 972 l 786 972 l 786 354 q 465 -17 786 -17 z "},"Ú":{"ha":929,"x_min":143,"x_max":786,"o":"m 353 1063 l 556 1279 l 668 1279 l 428 1063 l 353 1063 m 465 -17 q 143 354 143 -17 l 143 972 l 217 972 l 217 356 q 465 51 217 51 q 713 356 713 51 l 713 972 l 786 972 l 786 354 q 465 -17 786 -17 z "},"Û":{"ha":929,"x_min":143,"x_max":786,"o":"m 635 1063 l 464 1217 l 293 1063 l 222 1063 l 432 1279 l 496 1279 l 706 1063 l 635 1063 m 465 -17 q 143 354 143 -17 l 143 972 l 217 972 l 217 356 q 465 51 217 51 q 713 356 713 51 l 713 972 l 786 972 l 786 354 q 465 -17 786 -17 z "},"Ü":{"ha":929,"x_min":143,"x_max":786,"o":"m 388 1119 q 380 1112 388 1119 q 350 1104 372 1104 q 313 1119 328 1104 q 297 1157 297 1135 q 313 1195 297 1179 q 350 1211 328 1211 q 388 1196 372 1211 q 403 1157 403 1181 q 388 1119 403 1135 m 618 1119 q 610 1112 618 1119 q 581 1104 603 1104 q 543 1119 558 1104 q 528 1157 528 1135 q 543 1195 528 1179 q 581 1211 558 1211 q 618 1196 603 1211 q 633 1157 633 1181 q 618 1119 633 1135 m 465 -17 q 143 354 143 -17 l 143 972 l 217 972 l 217 356 q 465 51 217 51 q 713 356 713 51 l 713 972 l 786 972 l 786 354 q 465 -17 786 -17 z "},"Ý":{"ha":844,"x_min":69,"x_max":776,"o":"m 307 1063 l 510 1279 l 622 1279 l 382 1063 l 307 1063 m 386 0 l 386 383 l 69 972 l 150 972 l 422 454 l 699 972 l 776 972 l 460 386 l 460 0 l 386 0 z "},"Þ":{"ha":849,"x_min":150,"x_max":786,"o":"m 150 0 l 150 972 l 224 972 l 224 779 l 479 779 q 713 697 640 779 q 786 493 786 615 q 769 394 786 442 q 718 303 753 346 q 622 234 683 260 q 479 208 560 208 l 224 208 l 224 0 l 150 0 m 483 278 q 656 342 600 278 q 713 493 713 407 q 659 647 713 582 q 483 711 606 711 l 224 711 l 224 278 l 483 278 z "},"ß":{"ha":783,"x_min":122,"x_max":697,"o":"m 122 -276 l 122 669 q 200 910 122 832 q 386 989 278 989 q 575 920 503 989 q 647 739 647 851 q 612 609 647 667 q 500 533 576 551 q 647 441 596 510 q 697 283 697 372 q 619 65 697 146 q 418 -17 540 -17 q 322 1 358 -17 l 358 60 q 419 53 383 53 q 560 111 500 53 q 619 281 619 169 q 561 433 619 371 q 381 494 503 494 l 375 494 l 375 561 l 381 561 q 519 604 469 561 q 569 736 569 647 q 523 872 569 824 q 386 921 476 921 q 249 859 301 921 q 196 672 196 797 l 196 -239 l 122 -276 z "},"à":{"ha":719,"x_min":93,"x_max":614,"o":"m 406 800 l 165 1017 l 278 1017 l 481 800 l 406 800 m 543 0 l 543 90 q 326 -17 450 -17 q 156 44 219 -17 q 93 219 93 106 q 165 390 93 332 q 343 449 236 449 q 543 390 443 449 l 543 472 q 498 620 543 579 q 379 661 453 661 q 167 589 279 661 l 144 653 q 386 726 267 726 q 465 716 428 726 q 537 681 501 706 q 593 608 572 657 q 614 489 614 558 l 614 0 l 543 0 m 332 49 q 543 174 447 49 l 543 319 q 349 383 447 383 q 218 342 271 383 q 165 219 165 300 q 210 95 165 142 q 332 49 254 49 z "},"á":{"ha":719,"x_min":93,"x_max":614,"o":"m 272 800 l 475 1017 l 588 1017 l 347 800 l 272 800 m 543 0 l 543 90 q 326 -17 450 -17 q 156 44 219 -17 q 93 219 93 106 q 165 390 93 332 q 343 449 236 449 q 543 390 443 449 l 543 472 q 498 620 543 579 q 379 661 453 661 q 167 589 279 661 l 144 653 q 386 726 267 726 q 465 716 428 726 q 537 681 501 706 q 593 608 572 657 q 614 489 614 558 l 614 0 l 543 0 m 332 49 q 543 174 447 49 l 543 319 q 349 383 447 383 q 218 342 271 383 q 165 219 165 300 q 210 95 165 142 q 332 49 254 49 z "},"â":{"ha":719,"x_min":93,"x_max":625,"o":"m 554 800 l 383 954 l 213 800 l 142 800 l 351 1017 l 415 1017 l 625 800 l 554 800 m 543 0 l 543 90 q 326 -17 450 -17 q 156 44 219 -17 q 93 219 93 106 q 165 390 93 332 q 343 449 236 449 q 543 390 443 449 l 543 472 q 498 620 543 579 q 379 661 453 661 q 167 589 279 661 l 144 653 q 386 726 267 726 q 465 716 428 726 q 537 681 501 706 q 593 608 572 657 q 614 489 614 558 l 614 0 l 543 0 m 332 49 q 543 174 447 49 l 543 319 q 349 383 447 383 q 218 342 271 383 q 165 219 165 300 q 210 95 165 142 q 332 49 254 49 z "},"ã":{"ha":719,"x_min":93,"x_max":617,"o":"m 493 836 q 370 882 443 836 q 264 928 297 928 q 215 905 235 928 q 194 842 196 882 l 149 842 q 180 954 149 914 q 274 994 211 994 q 397 949 324 994 q 503 903 469 903 q 551 926 532 903 q 572 989 571 949 l 617 989 q 585 876 617 917 q 493 836 554 836 m 543 0 l 543 90 q 326 -17 450 -17 q 156 44 219 -17 q 93 219 93 106 q 165 390 93 332 q 343 449 236 449 q 543 390 443 449 l 543 472 q 498 620 543 579 q 379 661 453 661 q 167 589 279 661 l 144 653 q 386 726 267 726 q 465 716 428 726 q 537 681 501 706 q 593 608 572 657 q 614 489 614 558 l 614 0 l 543 0 m 332 49 q 543 174 447 49 l 543 319 q 349 383 447 383 q 218 342 271 383 q 165 219 165 300 q 210 95 165 142 q 332 49 254 49 z "},"ä":{"ha":719,"x_min":93,"x_max":614,"o":"m 307 857 q 299 849 307 857 q 269 842 292 842 q 232 857 247 842 q 217 894 217 872 q 232 933 217 917 q 269 949 247 949 q 307 933 292 949 q 322 894 322 918 q 307 857 322 872 m 538 857 q 530 849 538 857 q 500 842 522 842 q 463 857 478 842 q 447 894 447 872 q 463 933 447 917 q 500 949 478 949 q 538 933 522 949 q 553 894 553 918 q 538 857 553 872 m 543 0 l 543 90 q 326 -17 450 -17 q 156 44 219 -17 q 93 219 93 106 q 165 390 93 332 q 343 449 236 449 q 543 390 443 449 l 543 472 q 498 620 543 579 q 379 661 453 661 q 167 589 279 661 l 144 653 q 386 726 267 726 q 465 716 428 726 q 537 681 501 706 q 593 608 572 657 q 614 489 614 558 l 614 0 l 543 0 m 332 49 q 543 174 447 49 l 543 319 q 349 383 447 383 q 218 342 271 383 q 165 219 165 300 q 210 95 165 142 q 332 49 254 49 z "},"å":{"ha":719,"x_min":93,"x_max":614,"o":"m 501 845 q 478 822 501 845 q 389 799 454 799 q 276 845 324 799 q 229 956 229 892 q 276 1065 229 1019 q 389 1111 324 1111 q 501 1065 454 1111 q 549 956 549 1019 q 501 845 549 892 m 389 857 q 457 885 429 857 q 485 956 485 914 q 457 1026 485 999 q 389 1054 429 1054 q 322 1026 350 1054 q 294 956 294 999 q 322 885 294 914 q 389 857 350 857 m 543 0 l 543 90 q 326 -17 450 -17 q 156 44 219 -17 q 93 219 93 106 q 165 390 93 332 q 343 449 236 449 q 543 390 443 449 l 543 472 q 498 620 543 579 q 379 661 453 661 q 167 589 279 661 l 144 653 q 386 726 267 726 q 465 716 428 726 q 537 681 501 706 q 593 608 572 657 q 614 489 614 558 l 614 0 l 543 0 m 332 49 q 543 174 447 49 l 543 319 q 349 383 447 383 q 218 342 271 383 q 165 219 165 300 q 210 95 165 142 q 332 49 254 49 z "},"æ":{"ha":1182,"x_min":93,"x_max":1107,"o":"m 326 -17 q 156 44 219 -17 q 93 219 93 106 q 164 390 93 332 q 343 449 235 449 q 543 390 443 449 l 543 472 q 379 661 543 661 q 167 589 279 661 l 144 653 q 386 726 267 726 q 522 692 464 726 q 597 581 579 657 q 697 690 633 653 q 838 726 760 726 q 1034 636 961 726 q 1107 369 1107 546 q 1106 328 1107 346 l 621 328 q 688 123 631 192 q 842 54 744 54 q 1006 111 931 54 l 1047 61 q 838 -17 954 -17 q 687 27 751 -17 q 588 143 622 71 q 466 23 538 63 q 326 -17 394 -17 m 619 394 l 1032 394 q 972 600 1031 540 q 839 660 914 660 q 685 594 744 660 q 619 394 626 529 m 332 49 q 462 93 401 49 q 563 206 522 138 q 543 319 547 256 q 349 383 447 383 q 218 342 271 383 q 165 219 165 300 q 210 95 165 142 q 332 49 254 49 z "},"ç":{"ha":663,"x_min":86,"x_max":592,"o":"m 347 -325 q 238 -286 279 -325 l 286 -253 q 343 -272 306 -272 q 401 -250 378 -272 q 425 -194 425 -228 q 399 -142 425 -164 q 336 -119 372 -119 q 285 -128 303 -119 l 269 -110 l 339 -17 q 154 88 222 -10 q 86 354 86 185 q 160 628 86 529 q 364 726 233 726 q 497 688 440 726 q 582 578 554 650 l 513 551 q 363 658 471 658 q 164 354 164 658 q 214 132 164 211 q 356 53 264 53 q 460 85 415 53 q 522 172 504 117 l 592 146 q 516 37 569 79 q 390 -14 463 -6 l 353 -79 q 458 -113 424 -79 q 492 -194 492 -147 q 452 -288 492 -251 q 347 -325 413 -325 z "},"è":{"ha":729,"x_min":86,"x_max":651,"o":"m 415 800 l 175 1017 l 288 1017 l 490 800 l 415 800 m 382 -17 q 166 88 246 -17 q 86 356 86 192 q 167 628 86 529 q 382 726 249 726 q 577 637 503 726 q 651 369 651 547 q 650 328 651 346 l 164 328 q 231 124 174 194 q 386 54 288 54 q 550 111 475 54 l 590 61 q 382 -17 497 -17 m 163 394 l 575 394 q 516 599 574 539 q 382 660 458 660 q 228 593 288 660 q 163 394 169 526 z "},"é":{"ha":729,"x_min":86,"x_max":651,"o":"m 269 800 l 472 1017 l 585 1017 l 344 800 l 269 800 m 382 -17 q 166 88 246 -17 q 86 356 86 192 q 167 628 86 529 q 382 726 249 726 q 577 637 503 726 q 651 369 651 547 q 650 328 651 346 l 164 328 q 231 124 174 194 q 386 54 288 54 q 550 111 475 54 l 590 61 q 382 -17 497 -17 m 163 394 l 575 394 q 516 599 574 539 q 382 660 458 660 q 228 593 288 660 q 163 394 169 526 z "},"ê":{"ha":729,"x_min":86,"x_max":651,"o":"m 551 800 l 381 954 l 210 800 l 139 800 l 349 1017 l 413 1017 l 622 800 l 551 800 m 382 -17 q 166 88 246 -17 q 86 356 86 192 q 167 628 86 529 q 382 726 249 726 q 577 637 503 726 q 651 369 651 547 q 650 328 651 346 l 164 328 q 231 124 174 194 q 386 54 288 54 q 550 111 475 54 l 590 61 q 382 -17 497 -17 m 163 394 l 575 394 q 516 599 574 539 q 382 660 458 660 q 228 593 288 660 q 163 394 169 526 z "},"ë":{"ha":729,"x_min":86,"x_max":651,"o":"m 304 857 q 297 849 304 857 q 267 842 289 842 q 229 857 244 842 q 214 894 214 872 q 229 933 214 917 q 267 949 244 949 q 304 933 289 949 q 319 894 319 918 q 304 857 319 872 m 535 857 q 527 849 535 857 q 497 842 519 842 q 460 857 475 842 q 444 894 444 872 q 460 933 444 917 q 497 949 475 949 q 535 933 519 949 q 550 894 550 918 q 535 857 550 872 m 382 -17 q 166 88 246 -17 q 86 356 86 192 q 167 628 86 529 q 382 726 249 726 q 577 637 503 726 q 651 369 651 547 q 650 328 651 346 l 164 328 q 231 124 174 194 q 386 54 288 54 q 550 111 475 54 l 590 61 q 382 -17 497 -17 m 163 394 l 575 394 q 516 599 574 539 q 382 660 458 660 q 228 593 288 660 q 163 394 169 526 z "},"ì":{"ha":347,"x_min":-32,"x_max":283,"o":"m 208 800 l -32 1017 l 81 1017 l 283 800 l 208 800 m 138 0 l 138 710 l 211 710 l 211 0 l 138 0 z "},"í":{"ha":347,"x_min":64,"x_max":379,"o":"m 64 800 l 267 1017 l 379 1017 l 139 800 l 64 800 m 138 0 l 138 710 l 211 710 l 211 0 l 138 0 z "},"î":{"ha":347,"x_min":-69,"x_max":414,"o":"m 343 800 l 172 954 l 1 800 l -69 800 l 140 1017 l 204 1017 l 414 800 l 343 800 m 138 0 l 138 710 l 211 710 l 211 0 l 138 0 z "},"ï":{"ha":347,"x_min":6,"x_max":342,"o":"m 96 857 q 88 849 96 857 q 58 842 81 842 q 21 857 36 842 q 6 894 6 872 q 21 933 6 917 q 58 949 36 949 q 96 933 81 949 q 111 894 111 918 q 96 857 111 872 m 326 857 q 319 849 326 857 q 289 842 311 842 q 251 857 267 842 q 236 894 236 872 q 251 933 236 917 q 289 949 267 949 q 326 933 311 949 q 342 894 342 918 q 326 857 342 872 m 138 0 l 138 710 l 211 710 l 211 0 l 138 0 z "},"ð":{"ha":756,"x_min":86,"x_max":671,"o":"m 378 -17 q 166 74 246 -17 q 86 307 86 165 q 169 543 86 453 q 378 633 251 633 q 517 592 463 633 q 594 489 572 551 q 417 840 569 722 l 321 739 l 283 778 l 369 871 q 192 928 289 918 l 192 989 q 414 918 317 974 l 499 1010 l 539 971 l 460 888 q 671 372 671 724 q 594 85 671 188 q 378 -17 517 -17 m 378 53 q 532 125 472 53 q 592 306 592 197 q 531 491 592 417 q 378 565 471 565 q 225 492 286 565 q 164 307 164 418 q 224 125 164 197 q 378 53 285 53 z "},"ñ":{"ha":772,"x_min":135,"x_max":646,"o":"m 507 836 q 384 882 457 836 q 278 928 311 928 q 229 905 249 928 q 208 842 210 882 l 163 842 q 194 954 163 914 q 288 994 225 994 q 410 949 338 994 q 517 903 483 903 q 565 926 546 903 q 586 989 585 949 l 631 989 q 599 876 631 917 q 507 836 568 836 m 572 0 l 572 439 q 399 660 572 660 q 208 425 208 660 l 208 0 l 135 0 l 135 710 l 208 710 l 208 607 q 290 697 238 667 q 404 726 343 726 q 586 651 526 726 q 646 414 646 575 l 646 0 l 572 0 z "},"ò":{"ha":756,"x_min":86,"x_max":671,"o":"m 404 800 l 164 1017 l 276 1017 l 479 800 l 404 800 m 591 83 q 551 33 591 83 q 378 -17 511 -17 q 165 81 244 -17 q 86 354 86 179 q 165 627 86 528 q 378 726 244 726 q 591 628 511 726 q 671 356 671 531 q 591 83 671 182 m 219 132 q 247 92 219 132 q 378 53 275 53 q 537 133 481 53 q 593 356 593 213 q 538 578 593 499 q 378 658 482 658 q 219 581 274 658 q 164 354 164 503 q 219 132 164 211 z "},"ó":{"ha":756,"x_min":86,"x_max":671,"o":"m 265 800 l 468 1017 l 581 1017 l 340 800 l 265 800 m 591 83 q 551 33 591 83 q 378 -17 511 -17 q 165 81 244 -17 q 86 354 86 179 q 165 627 86 528 q 378 726 244 726 q 591 628 511 726 q 671 356 671 531 q 591 83 671 182 m 219 132 q 247 92 219 132 q 378 53 275 53 q 537 133 481 53 q 593 356 593 213 q 538 578 593 499 q 378 658 482 658 q 219 581 274 658 q 164 354 164 503 q 219 132 164 211 z "},"ô":{"ha":756,"x_min":86,"x_max":671,"o":"m 547 800 l 376 954 l 206 800 l 135 800 l 344 1017 l 408 1017 l 618 800 l 547 800 m 591 83 q 551 33 591 83 q 378 -17 511 -17 q 165 81 244 -17 q 86 354 86 179 q 165 627 86 528 q 378 726 244 726 q 591 628 511 726 q 671 356 671 531 q 591 83 671 182 m 219 132 q 247 92 219 132 q 378 53 275 53 q 537 133 481 53 q 593 356 593 213 q 538 578 593 499 q 378 658 482 658 q 219 581 274 658 q 164 354 164 503 q 219 132 164 211 z "},"õ":{"ha":756,"x_min":86,"x_max":671,"o":"m 486 836 q 363 882 436 836 q 257 928 290 928 q 208 905 228 928 q 188 842 189 882 l 142 842 q 173 954 142 914 q 267 994 204 994 q 390 949 317 994 q 496 903 463 903 q 544 926 525 903 q 565 989 564 949 l 610 989 q 578 876 610 917 q 486 836 547 836 m 591 83 q 551 33 591 83 q 378 -17 511 -17 q 165 81 244 -17 q 86 354 86 179 q 165 627 86 528 q 378 726 244 726 q 591 628 511 726 q 671 356 671 531 q 591 83 671 182 m 219 132 q 247 92 219 132 q 378 53 275 53 q 537 133 481 53 q 593 356 593 213 q 538 578 593 499 q 378 658 482 658 q 219 581 274 658 q 164 354 164 503 q 219 132 164 211 z "},"ö":{"ha":756,"x_min":86,"x_max":671,"o":"m 300 857 q 292 849 300 857 q 263 842 285 842 q 225 857 240 842 q 210 894 210 872 q 225 933 210 917 q 263 949 240 949 q 300 933 285 949 q 315 894 315 918 q 300 857 315 872 m 531 857 q 523 849 531 857 q 493 842 515 842 q 456 857 471 842 q 440 894 440 872 q 456 933 440 917 q 493 949 471 949 q 531 933 515 949 q 546 894 546 918 q 531 857 546 872 m 591 83 q 551 33 591 83 q 378 -17 511 -17 q 165 81 244 -17 q 86 354 86 179 q 165 627 86 528 q 378 726 244 726 q 591 628 511 726 q 671 356 671 531 q 591 83 671 182 m 219 132 q 247 92 219 132 q 378 53 275 53 q 537 133 481 53 q 593 356 593 213 q 538 578 593 499 q 378 658 482 658 q 219 581 274 658 q 164 354 164 503 q 219 132 164 211 z "},"÷":{"ha":914,"x_min":131,"x_max":783,"o":"m 453 710 q 415 725 431 710 q 400 763 400 740 q 415 801 400 785 q 453 818 431 818 q 492 801 476 818 q 508 763 508 785 q 492 725 508 740 q 453 710 476 710 m 131 440 l 131 511 l 783 511 l 783 440 l 131 440 m 453 135 q 415 149 431 135 q 400 186 400 164 q 415 226 400 210 q 453 242 431 242 q 492 226 476 242 q 508 186 508 210 q 492 149 508 164 q 453 135 476 135 z "},"ø":{"ha":756,"x_min":82,"x_max":674,"o":"m 674 726 l 599 618 q 671 356 671 519 q 591 83 671 182 q 378 -17 511 -17 q 200 46 271 -17 l 157 -17 l 82 -17 l 157 92 q 86 354 86 192 q 165 627 86 528 q 378 726 244 726 q 556 665 483 726 l 599 726 l 674 726 m 164 354 q 203 158 164 236 l 515 606 q 378 658 463 658 q 219 581 274 658 q 164 354 164 503 m 593 356 q 553 553 593 476 l 242 106 q 378 53 294 53 q 537 133 481 53 q 593 356 593 213 z "},"ù":{"ha":772,"x_min":128,"x_max":639,"o":"m 410 800 l 169 1017 l 282 1017 l 485 800 l 410 800 m 565 0 l 565 94 q 372 -17 501 -17 q 188 58 247 -17 q 128 296 128 133 l 128 710 l 201 710 l 201 271 q 374 50 201 50 q 565 286 565 50 l 565 710 l 639 710 l 639 0 l 565 0 z "},"ú":{"ha":772,"x_min":128,"x_max":639,"o":"m 264 800 l 467 1017 l 579 1017 l 339 800 l 264 800 m 565 0 l 565 94 q 372 -17 501 -17 q 188 58 247 -17 q 128 296 128 133 l 128 710 l 201 710 l 201 271 q 374 50 201 50 q 565 286 565 50 l 565 710 l 639 710 l 639 0 l 565 0 z "},"û":{"ha":772,"x_min":128,"x_max":639,"o":"m 546 800 l 375 954 l 204 800 l 133 800 l 343 1017 l 407 1017 l 617 800 l 546 800 m 565 0 l 565 94 q 372 -17 501 -17 q 188 58 247 -17 q 128 296 128 133 l 128 710 l 201 710 l 201 271 q 374 50 201 50 q 565 286 565 50 l 565 710 l 639 710 l 639 0 l 565 0 z "},"ü":{"ha":772,"x_min":128,"x_max":639,"o":"m 299 857 q 291 849 299 857 q 261 842 283 842 q 224 857 239 842 q 208 894 208 872 q 224 933 208 917 q 261 949 239 949 q 299 933 283 949 q 314 894 314 918 q 299 857 314 872 m 529 857 q 522 849 529 857 q 492 842 514 842 q 454 857 469 842 q 439 894 439 872 q 454 933 439 917 q 492 949 469 949 q 529 933 514 949 q 544 894 544 918 q 529 857 544 872 m 565 0 l 565 94 q 372 -17 501 -17 q 188 58 247 -17 q 128 296 128 133 l 128 710 l 201 710 l 201 271 q 374 50 201 50 q 565 286 565 50 l 565 710 l 639 710 l 639 0 l 565 0 z "},"ý":{"ha":717,"x_min":65,"x_max":651,"o":"m 244 800 l 447 1017 l 560 1017 l 319 800 l 244 800 m 217 -269 l 322 19 l 65 710 l 139 710 l 332 178 q 344 143 336 167 q 356 107 351 119 l 381 178 l 575 710 l 651 710 l 290 -269 l 217 -269 z "},"þ":{"ha":781,"x_min":135,"x_max":696,"o":"m 617 81 q 578 32 617 81 q 408 -17 539 -17 q 208 94 278 -17 l 208 -246 l 135 -282 l 135 960 l 208 996 l 208 626 q 414 726 286 726 q 620 626 544 726 q 696 356 696 525 q 617 81 696 179 m 403 53 q 562 132 506 53 q 618 356 618 211 q 560 576 618 494 q 403 658 503 658 q 291 625 343 658 q 208 535 239 592 l 208 183 q 403 53 288 53 z "},"ÿ":{"ha":717,"x_min":65,"x_max":651,"o":"m 279 857 q 272 849 279 857 q 242 842 264 842 q 204 857 219 842 q 189 894 189 872 q 204 933 189 917 q 242 949 219 949 q 279 933 264 949 q 294 894 294 918 q 279 857 294 872 m 510 857 q 502 849 510 857 q 472 842 494 842 q 435 857 450 842 q 419 894 419 872 q 435 933 419 917 q 472 949 450 949 q 510 933 494 949 q 525 894 525 918 q 510 857 525 872 m 217 -269 l 322 19 l 65 710 l 139 710 l 332 178 q 344 143 336 167 q 356 107 351 119 l 381 178 l 575 710 l 651 710 l 290 -269 l 217 -269 z "},"Ā":{"ha":901,"x_min":88,"x_max":815,"o":"m 219 1118 l 219 1183 l 678 1183 l 678 1118 l 219 1118 m 739 0 l 647 263 l 254 263 l 165 0 l 88 0 l 422 972 l 478 972 l 815 0 l 739 0 m 626 326 l 489 728 q 450 850 458 817 q 413 728 443 819 l 275 326 l 626 326 z "},"ā":{"ha":719,"x_min":93,"x_max":614,"o":"m 153 856 l 153 921 l 611 921 l 611 856 l 153 856 m 543 0 l 543 90 q 326 -17 450 -17 q 156 44 219 -17 q 93 219 93 106 q 165 390 93 332 q 343 449 236 449 q 543 390 443 449 l 543 472 q 498 620 543 579 q 379 661 453 661 q 167 589 279 661 l 144 653 q 386 726 267 726 q 465 716 428 726 q 537 681 501 706 q 593 608 572 657 q 614 489 614 558 l 614 0 l 543 0 m 332 49 q 543 174 447 49 l 543 319 q 349 383 447 383 q 218 342 271 383 q 165 219 165 300 q 210 95 165 142 q 332 49 254 49 z "},"Ă":{"ha":901,"x_min":88,"x_max":815,"o":"m 450 1069 q 268 1132 329 1069 q 207 1293 207 1194 l 279 1293 q 327 1177 279 1218 q 450 1136 375 1136 q 573 1177 525 1136 q 621 1293 621 1218 l 692 1293 q 631 1132 692 1194 q 450 1069 569 1069 m 739 0 l 647 263 l 254 263 l 165 0 l 88 0 l 422 972 l 478 972 l 815 0 l 739 0 m 626 326 l 489 728 q 450 850 458 817 q 413 728 443 819 l 275 326 l 626 326 z "},"ă":{"ha":719,"x_min":93,"x_max":625,"o":"m 383 807 q 201 869 263 807 q 140 1031 140 932 l 213 1031 q 260 915 213 956 q 383 874 308 874 q 506 915 458 874 q 554 1031 554 956 l 625 1031 q 564 869 625 932 q 383 807 503 807 m 543 0 l 543 90 q 326 -17 450 -17 q 156 44 219 -17 q 93 219 93 106 q 165 390 93 332 q 343 449 236 449 q 543 390 443 449 l 543 472 q 498 620 543 579 q 379 661 453 661 q 167 589 279 661 l 144 653 q 386 726 267 726 q 465 716 428 726 q 537 681 501 706 q 593 608 572 657 q 614 489 614 558 l 614 0 l 543 0 m 332 49 q 543 174 447 49 l 543 319 q 349 383 447 383 q 218 342 271 383 q 165 219 165 300 q 210 95 165 142 q 332 49 254 49 z "},"Ą":{"ha":901,"x_min":88,"x_max":840,"o":"m 710 -325 q 608 -290 649 -325 q 567 -189 567 -256 q 610 -78 567 -128 q 739 1 654 -28 l 647 263 l 254 263 l 165 0 l 88 0 l 422 972 l 478 972 l 815 0 q 633 -183 633 -62 q 657 -249 633 -226 q 714 -271 681 -271 q 796 -232 757 -271 l 840 -264 q 710 -325 788 -325 m 275 326 l 626 326 l 489 729 q 450 850 460 807 q 413 729 444 824 l 275 326 z "},"ą":{"ha":719,"x_min":93,"x_max":649,"o":"m 518 -325 q 416 -290 457 -325 q 375 -189 375 -256 q 420 -77 375 -126 q 543 3 465 -28 l 543 90 q 326 -17 450 -17 q 156 44 219 -17 q 93 219 93 106 q 165 390 93 332 q 343 449 236 449 q 543 390 443 449 l 543 472 q 498 620 543 579 q 379 661 453 661 q 167 589 279 661 l 144 653 q 386 726 267 726 q 465 716 428 726 q 537 681 501 706 q 593 608 572 657 q 614 489 614 558 l 614 0 q 442 -183 442 -67 q 465 -249 442 -226 q 522 -271 489 -271 q 604 -232 565 -271 l 649 -264 q 518 -325 596 -325 m 332 49 q 543 174 447 49 l 543 319 q 349 383 447 383 q 218 342 271 383 q 165 219 165 300 q 210 95 165 142 q 332 49 254 49 z "},"Ć":{"ha":892,"x_min":108,"x_max":799,"o":"m 392 1063 l 594 1279 l 707 1279 l 467 1063 l 392 1063 m 497 -17 q 274 58 364 -17 q 146 242 183 132 q 108 486 108 351 q 123 640 108 567 q 169 776 138 713 q 244 888 200 840 q 354 962 289 935 q 497 989 419 989 q 677 947 613 989 q 785 832 742 904 l 719 794 q 633 887 683 853 q 497 921 582 921 q 319 855 392 921 q 217 694 247 789 q 186 486 186 600 q 264 178 186 303 q 497 53 342 53 q 732 188 658 53 l 799 161 q 686 34 763 85 q 497 -17 610 -17 z "},"ć":{"ha":663,"x_min":86,"x_max":592,"o":"m 250 800 l 453 1017 l 565 1017 l 325 800 l 250 800 m 354 -17 q 158 81 231 -17 q 86 354 86 179 q 160 628 86 529 q 364 726 233 726 q 497 688 440 726 q 582 578 554 650 l 513 551 q 363 658 471 658 q 164 354 164 658 q 214 132 164 211 q 356 53 264 53 q 460 85 415 53 q 522 172 504 117 l 592 146 q 504 27 568 71 q 354 -17 440 -17 z "},"Ĉ":{"ha":892,"x_min":108,"x_max":799,"o":"m 665 1063 l 494 1217 l 324 1063 l 253 1063 l 463 1279 l 526 1279 l 736 1063 l 665 1063 m 497 -17 q 274 58 364 -17 q 146 242 183 132 q 108 486 108 351 q 123 640 108 567 q 169 776 138 713 q 244 888 200 840 q 354 962 289 935 q 497 989 419 989 q 677 947 613 989 q 785 832 742 904 l 719 794 q 633 887 683 853 q 497 921 582 921 q 319 855 392 921 q 217 694 247 789 q 186 486 186 600 q 264 178 186 303 q 497 53 342 53 q 732 188 658 53 l 799 161 q 686 34 763 85 q 497 -17 610 -17 z "},"ĉ":{"ha":663,"x_min":86,"x_max":603,"o":"m 532 800 l 361 954 l 190 800 l 119 800 l 329 1017 l 393 1017 l 603 800 l 532 800 m 354 -17 q 158 81 231 -17 q 86 354 86 179 q 160 628 86 529 q 364 726 233 726 q 497 688 440 726 q 582 578 554 650 l 513 551 q 363 658 471 658 q 164 354 164 658 q 214 132 164 211 q 356 53 264 53 q 460 85 415 53 q 522 172 504 117 l 592 146 q 504 27 568 71 q 354 -17 440 -17 z "},"Ċ":{"ha":892,"x_min":108,"x_max":799,"o":"m 533 1119 q 526 1112 533 1119 q 496 1104 518 1104 q 458 1119 474 1104 q 443 1157 443 1135 q 458 1195 443 1179 q 496 1211 474 1211 q 533 1196 518 1211 q 549 1157 549 1181 q 533 1119 549 1135 m 497 -17 q 274 58 364 -17 q 146 242 183 132 q 108 486 108 351 q 123 640 108 567 q 169 776 138 713 q 244 888 200 840 q 354 962 289 935 q 497 989 419 989 q 677 947 613 989 q 785 832 742 904 l 719 794 q 633 887 683 853 q 497 921 582 921 q 319 855 392 921 q 217 694 247 789 q 186 486 186 600 q 264 178 186 303 q 497 53 342 53 q 732 188 658 53 l 799 161 q 686 34 763 85 q 497 -17 610 -17 z "},"ċ":{"ha":663,"x_min":86,"x_max":592,"o":"m 400 857 q 392 849 400 857 q 363 842 385 842 q 325 857 340 842 q 310 894 310 872 q 325 933 310 917 q 363 949 340 949 q 400 933 385 949 q 415 894 415 918 q 400 857 415 872 m 354 -17 q 158 81 231 -17 q 86 354 86 179 q 160 628 86 529 q 364 726 233 726 q 497 688 440 726 q 582 578 554 650 l 513 551 q 363 658 471 658 q 164 354 164 658 q 214 132 164 211 q 356 53 264 53 q 460 85 415 53 q 522 172 504 117 l 592 146 q 504 27 568 71 q 354 -17 440 -17 z "},"Č":{"ha":892,"x_min":108,"x_max":799,"o":"m 528 1063 l 464 1063 l 254 1279 l 325 1279 l 496 1126 l 667 1279 l 738 1279 l 528 1063 m 497 -17 q 274 58 364 -17 q 146 242 183 132 q 108 486 108 351 q 123 640 108 567 q 169 776 138 713 q 244 888 200 840 q 354 962 289 935 q 497 989 419 989 q 677 947 613 989 q 785 832 742 904 l 719 794 q 633 887 683 853 q 497 921 582 921 q 319 855 392 921 q 217 694 247 789 q 186 486 186 600 q 264 178 186 303 q 497 53 342 53 q 732 188 658 53 l 799 161 q 686 34 763 85 q 497 -17 610 -17 z "},"č":{"ha":663,"x_min":86,"x_max":604,"o":"m 394 800 l 331 800 l 121 1017 l 192 1017 l 363 864 l 533 1017 l 604 1017 l 394 800 m 354 -17 q 158 81 231 -17 q 86 354 86 179 q 160 628 86 529 q 364 726 233 726 q 497 688 440 726 q 582 578 554 650 l 513 551 q 363 658 471 658 q 164 354 164 658 q 214 132 164 211 q 356 53 264 53 q 460 85 415 53 q 522 172 504 117 l 592 146 q 504 27 568 71 q 354 -17 440 -17 z "},"Ď":{"ha":933,"x_min":150,"x_max":825,"o":"m 442 1063 l 378 1063 l 168 1279 l 239 1279 l 410 1126 l 581 1279 l 651 1279 l 442 1063 m 150 972 l 390 972 q 594 931 507 972 q 731 818 682 889 q 802 664 779 747 q 825 486 825 581 q 813 349 825 415 q 769 219 800 283 q 690 106 738 154 q 563 29 642 58 q 385 0 485 0 l 150 0 l 150 972 m 388 69 q 532 94 468 69 q 635 160 596 119 q 701 256 675 200 q 737 367 726 311 q 747 486 747 424 q 728 640 747 568 q 669 773 708 713 q 560 869 629 833 q 399 904 490 904 l 224 904 l 224 69 l 388 69 z "},"ď":{"ha":946,"x_min":96,"x_max":886,"o":"m 376 -17 q 172 84 247 -17 q 96 356 96 185 q 172 628 96 531 q 382 726 247 726 q 578 633 496 726 l 578 967 l 651 1003 l 651 0 l 578 0 l 578 82 q 376 -17 499 -17 m 886 989 l 886 971 q 792 672 886 774 l 771 688 q 813 989 813 778 l 886 989 m 388 53 q 496 88 444 53 q 578 181 547 124 l 578 535 q 388 658 504 658 q 229 579 285 658 q 174 356 174 500 q 232 140 174 226 q 388 53 290 53 z "},"Đ":{"ha":933,"x_min":53,"x_max":825,"o":"m 150 451 l 53 451 l 53 519 l 150 519 l 150 972 l 390 972 q 594 931 507 972 q 731 818 682 889 q 802 664 779 747 q 825 486 825 581 q 813 349 825 415 q 769 219 800 283 q 690 106 738 154 q 563 29 642 58 q 385 0 485 0 l 150 0 l 150 451 m 388 69 q 532 94 468 69 q 635 160 596 119 q 701 256 675 200 q 737 367 726 311 q 747 486 747 424 q 728 640 747 568 q 669 773 708 713 q 560 869 629 833 q 399 904 490 904 l 224 904 l 224 519 l 453 519 l 453 451 l 224 451 l 224 69 l 388 69 z "},"đ":{"ha":775,"x_min":86,"x_max":736,"o":"m 642 779 l 642 0 l 568 0 l 568 82 q 367 -17 486 -17 q 162 83 238 -17 q 86 344 86 182 q 162 608 86 513 q 372 703 238 703 q 568 610 486 703 l 568 779 l 369 779 l 369 846 l 568 846 l 568 967 l 642 1003 l 642 846 l 736 846 l 736 779 l 642 779 m 378 53 q 486 88 435 53 q 568 181 538 124 l 568 511 q 490 597 539 560 q 378 633 442 633 q 219 558 275 633 q 164 344 164 483 q 223 138 164 222 q 378 53 282 53 z "},"Ē":{"ha":818,"x_min":150,"x_max":711,"o":"m 188 1118 l 188 1183 l 646 1183 l 646 1118 l 188 1118 m 150 0 l 150 972 l 681 972 l 681 903 l 224 903 l 224 538 l 532 538 l 532 469 l 224 469 l 224 69 l 711 69 l 711 0 l 150 0 z "},"ē":{"ha":729,"x_min":86,"x_max":651,"o":"m 150 856 l 150 921 l 608 921 l 608 856 l 150 856 m 382 -17 q 166 88 246 -17 q 86 356 86 192 q 167 628 86 529 q 382 726 249 726 q 577 637 503 726 q 651 369 651 547 q 650 328 651 346 l 164 328 q 231 124 174 194 q 386 54 288 54 q 550 111 475 54 l 590 61 q 382 -17 497 -17 m 163 394 l 575 394 q 516 599 574 539 q 382 660 458 660 q 228 593 288 660 q 163 394 169 526 z "},"Ĕ":{"ha":818,"x_min":150,"x_max":711,"o":"m 415 1069 q 233 1132 294 1069 q 172 1293 172 1194 l 244 1293 q 292 1177 244 1218 q 415 1136 340 1136 q 538 1177 490 1136 q 586 1293 586 1218 l 657 1293 q 596 1132 657 1194 q 415 1069 535 1069 m 150 0 l 150 972 l 681 972 l 681 903 l 224 903 l 224 538 l 532 538 l 532 469 l 224 469 l 224 69 l 711 69 l 711 0 l 150 0 z "},"ĕ":{"ha":729,"x_min":86,"x_max":651,"o":"m 381 807 q 199 869 260 807 q 138 1031 138 932 l 210 1031 q 258 915 210 956 q 381 874 306 874 q 503 915 456 874 q 551 1031 551 956 l 622 1031 q 561 869 622 932 q 381 807 500 807 m 382 -17 q 166 88 246 -17 q 86 356 86 192 q 167 628 86 529 q 382 726 249 726 q 577 637 503 726 q 651 369 651 547 q 650 328 651 346 l 164 328 q 231 124 174 194 q 386 54 288 54 q 550 111 475 54 l 590 61 q 382 -17 497 -17 m 163 394 l 575 394 q 516 599 574 539 q 382 660 458 660 q 228 593 288 660 q 163 394 169 526 z "},"Ė":{"ha":818,"x_min":150,"x_max":711,"o":"m 463 1119 q 455 1112 463 1119 q 425 1104 447 1104 q 388 1119 403 1104 q 372 1157 372 1135 q 388 1195 372 1179 q 425 1211 403 1211 q 463 1196 447 1211 q 478 1157 478 1181 q 463 1119 478 1135 m 150 0 l 150 972 l 681 972 l 681 903 l 224 903 l 224 538 l 532 538 l 532 469 l 224 469 l 224 69 l 711 69 l 711 0 l 150 0 z "},"ė":{"ha":729,"x_min":86,"x_max":651,"o":"m 419 857 q 412 849 419 857 q 382 842 404 842 q 344 857 360 842 q 329 894 329 872 q 344 933 329 917 q 382 949 360 949 q 419 933 404 949 q 435 894 435 918 q 419 857 435 872 m 382 -17 q 166 88 246 -17 q 86 356 86 192 q 167 628 86 529 q 382 726 249 726 q 577 637 503 726 q 651 369 651 547 q 650 328 651 346 l 164 328 q 231 124 174 194 q 386 54 288 54 q 550 111 475 54 l 590 61 q 382 -17 497 -17 m 163 394 l 575 394 q 516 599 574 539 q 382 660 458 660 q 228 593 288 660 q 163 394 169 526 z "},"Ę":{"ha":818,"x_min":150,"x_max":711,"o":"m 536 -325 q 434 -290 475 -325 q 393 -189 393 -256 q 434 -78 393 -129 q 546 0 475 -28 l 150 0 l 150 972 l 681 972 l 681 903 l 224 903 l 224 538 l 532 538 l 532 469 l 224 469 l 224 69 l 711 69 l 711 0 l 665 0 q 523 -56 586 0 q 460 -183 460 -112 q 483 -249 460 -226 q 540 -271 507 -271 q 622 -232 583 -271 l 667 -264 q 536 -325 614 -325 z "},"ę":{"ha":729,"x_min":86,"x_max":651,"o":"m 399 -325 q 298 -290 339 -325 q 257 -189 257 -256 q 375 -17 257 -82 q 164 90 242 -14 q 86 356 86 193 q 167 628 86 529 q 382 726 249 726 q 577 637 503 726 q 651 369 651 547 q 650 328 651 346 l 164 328 q 231 124 174 194 q 386 54 288 54 q 550 111 475 54 l 590 61 q 476 -6 560 33 q 322 -183 322 -76 q 346 -249 322 -226 q 403 -271 369 -271 q 486 -232 447 -271 l 529 -264 q 399 -325 476 -325 m 382 660 q 228 594 288 660 q 163 394 169 528 l 575 394 q 516 601 574 542 q 382 660 458 660 z "},"Ě":{"ha":818,"x_min":150,"x_max":711,"o":"m 460 1063 l 396 1063 l 186 1279 l 257 1279 l 428 1126 l 599 1279 l 669 1279 l 460 1063 m 150 0 l 150 972 l 681 972 l 681 903 l 224 903 l 224 538 l 532 538 l 532 469 l 224 469 l 224 69 l 711 69 l 711 0 l 150 0 z "},"ě":{"ha":729,"x_min":86,"x_max":651,"o":"m 414 800 l 350 800 l 140 1017 l 211 1017 l 382 864 l 553 1017 l 624 1017 l 414 800 m 382 -17 q 166 88 246 -17 q 86 356 86 192 q 167 628 86 529 q 382 726 249 726 q 577 637 503 726 q 651 369 651 547 q 650 328 651 346 l 164 328 q 231 124 174 194 q 386 54 288 54 q 550 111 475 54 l 590 61 q 382 -17 497 -17 m 163 394 l 575 394 q 516 599 574 539 q 382 660 458 660 q 228 593 288 660 q 163 394 169 526 z "},"Ĝ":{"ha":949,"x_min":108,"x_max":819,"o":"m 668 1063 l 497 1217 l 326 1063 l 256 1063 l 465 1279 l 529 1279 l 739 1063 l 668 1063 m 499 -17 q 320 26 397 -17 q 198 140 243 68 q 131 300 153 213 q 108 486 108 388 q 148 735 108 625 q 278 917 188 846 q 499 989 368 989 q 781 844 682 989 l 715 804 q 499 921 633 921 q 353 882 415 921 q 256 778 290 843 q 203 640 221 714 q 186 486 186 567 q 217 274 186 368 q 320 116 247 179 q 499 53 393 53 q 676 128 611 53 q 742 343 742 204 l 742 381 l 550 381 l 550 447 l 819 447 l 819 371 q 731 82 819 181 q 499 -17 643 -17 z "},"ĝ":{"ha":778,"x_min":86,"x_max":644,"o":"m 567 800 l 396 954 l 225 800 l 154 800 l 364 1017 l 428 1017 l 638 800 l 567 800 m 322 -296 l 286 -236 q 507 -175 443 -228 q 571 -28 571 -122 l 571 99 q 367 -17 504 -17 q 167 81 249 -17 q 86 356 86 179 q 165 627 86 528 q 372 726 243 726 q 495 696 444 726 q 571 625 546 665 l 571 710 l 644 710 l 644 -11 q 322 -296 644 -279 m 379 53 q 488 91 436 53 q 571 188 540 129 l 571 536 q 486 626 539 593 q 381 658 433 658 q 219 580 275 658 q 164 356 164 501 q 225 134 164 215 q 379 53 286 53 z "},"Ğ":{"ha":949,"x_min":108,"x_max":819,"o":"m 497 1069 q 315 1132 376 1069 q 254 1293 254 1194 l 326 1293 q 374 1177 326 1218 q 497 1136 422 1136 q 620 1177 572 1136 q 668 1293 668 1218 l 739 1293 q 678 1132 739 1194 q 497 1069 617 1069 m 499 -17 q 320 26 397 -17 q 198 140 243 68 q 131 300 153 213 q 108 486 108 388 q 148 735 108 625 q 278 917 188 846 q 499 989 368 989 q 781 844 682 989 l 715 804 q 499 921 633 921 q 353 882 415 921 q 256 778 290 843 q 203 640 221 714 q 186 486 186 567 q 217 274 186 368 q 320 116 247 179 q 499 53 393 53 q 676 128 611 53 q 742 343 742 204 l 742 381 l 550 381 l 550 447 l 819 447 l 819 371 q 731 82 819 181 q 499 -17 643 -17 z "},"ğ":{"ha":778,"x_min":86,"x_max":644,"o":"m 397 807 q 215 869 276 807 q 154 1031 154 932 l 226 1031 q 274 915 226 956 q 397 874 322 874 q 520 915 472 874 q 568 1031 568 956 l 639 1031 q 578 869 639 932 q 397 807 517 807 m 322 -296 l 286 -236 q 507 -175 443 -228 q 571 -28 571 -122 l 571 99 q 367 -17 504 -17 q 167 81 249 -17 q 86 356 86 179 q 165 627 86 528 q 372 726 243 726 q 495 696 444 726 q 571 625 546 665 l 571 710 l 644 710 l 644 -11 q 322 -296 644 -279 m 379 53 q 488 91 436 53 q 571 188 540 129 l 571 536 q 486 626 539 593 q 381 658 433 658 q 219 580 275 658 q 164 356 164 501 q 225 134 164 215 q 379 53 286 53 z "},"Ġ":{"ha":949,"x_min":108,"x_max":819,"o":"m 536 1119 q 528 1112 536 1119 q 499 1104 521 1104 q 461 1119 476 1104 q 446 1157 446 1135 q 461 1195 446 1179 q 499 1211 476 1211 q 536 1196 521 1211 q 551 1157 551 1181 q 536 1119 551 1135 m 499 -17 q 320 26 397 -17 q 198 140 243 68 q 131 300 153 213 q 108 486 108 388 q 148 735 108 625 q 278 917 188 846 q 499 989 368 989 q 781 844 682 989 l 715 804 q 499 921 633 921 q 353 882 415 921 q 256 778 290 843 q 203 640 221 714 q 186 486 186 567 q 217 274 186 368 q 320 116 247 179 q 499 53 393 53 q 676 128 611 53 q 742 343 742 204 l 742 381 l 550 381 l 550 447 l 819 447 l 819 371 q 731 82 819 181 q 499 -17 643 -17 z "},"ġ":{"ha":778,"x_min":86,"x_max":644,"o":"m 433 857 q 426 849 433 857 q 396 842 418 842 q 358 857 374 842 q 343 894 343 872 q 358 933 343 917 q 396 949 374 949 q 433 933 418 949 q 449 894 449 918 q 433 857 449 872 m 322 -296 l 286 -236 q 507 -175 443 -228 q 571 -28 571 -122 l 571 99 q 367 -17 504 -17 q 167 81 249 -17 q 86 356 86 179 q 165 627 86 528 q 372 726 243 726 q 495 696 444 726 q 571 625 546 665 l 571 710 l 644 710 l 644 -11 q 322 -296 644 -279 m 379 53 q 488 91 436 53 q 571 188 540 129 l 571 536 q 486 626 539 593 q 381 658 433 658 q 219 580 275 658 q 164 356 164 501 q 225 134 164 215 q 379 53 286 53 z "},"Ģ":{"ha":949,"x_min":108,"x_max":819,"o":"m 499 -17 q 320 26 397 -17 q 198 140 243 68 q 131 300 153 213 q 108 486 108 388 q 148 735 108 625 q 278 917 188 846 q 499 989 368 989 q 781 844 682 989 l 715 804 q 499 921 633 921 q 353 882 415 921 q 256 778 290 843 q 203 640 221 714 q 186 486 186 567 q 217 274 186 368 q 320 116 247 179 q 499 53 393 53 q 676 128 611 53 q 742 343 742 204 l 742 381 l 550 381 l 550 447 l 819 447 l 819 371 q 731 82 819 181 q 499 -17 643 -17 m 447 -335 q 497 -197 493 -276 q 453 -181 469 -197 q 438 -139 438 -164 q 454 -97 438 -114 q 493 -81 471 -81 q 536 -100 518 -81 q 554 -154 554 -119 q 530 -260 554 -210 q 467 -340 506 -311 l 447 -335 z "},"ģ":{"ha":778,"x_min":86,"x_max":644,"o":"m 393 838 q 351 857 368 838 q 333 911 333 876 q 357 1018 333 968 q 421 1097 381 1068 l 439 1092 q 390 954 394 1031 q 434 938 418 954 q 450 896 450 921 q 433 854 450 871 q 393 838 415 838 m 322 -296 l 286 -236 q 507 -175 443 -228 q 571 -28 571 -122 l 571 99 q 367 -17 504 -17 q 167 81 249 -17 q 86 356 86 179 q 165 627 86 528 q 372 726 243 726 q 495 696 444 726 q 571 625 546 665 l 571 710 l 644 710 l 644 -11 q 322 -296 644 -279 m 379 53 q 488 91 436 53 q 571 188 540 129 l 571 536 q 486 626 539 593 q 381 658 433 658 q 219 580 275 658 q 164 356 164 501 q 225 134 164 215 q 379 53 286 53 z "},"Ĥ":{"ha":944,"x_min":150,"x_max":796,"o":"m 642 1063 l 471 1217 l 300 1063 l 229 1063 l 439 1279 l 503 1279 l 713 1063 l 642 1063 m 722 0 l 722 471 l 224 471 l 224 0 l 150 0 l 150 972 l 224 972 l 224 540 l 722 540 l 722 972 l 796 972 l 796 0 l 722 0 z "},"ĥ":{"ha":772,"x_min":135,"x_max":646,"o":"m 568 1063 l 397 1217 l 226 1063 l 156 1063 l 365 1279 l 429 1279 l 639 1063 l 568 1063 m 135 0 l 135 968 l 208 1003 l 208 607 q 290 697 236 667 q 404 726 344 726 q 586 651 526 726 q 646 414 646 575 l 646 0 l 572 0 l 572 439 q 399 660 572 660 q 208 425 208 660 l 208 0 l 135 0 z "},"Ħ":{"ha":944,"x_min":29,"x_max":915,"o":"m 722 0 l 722 471 l 224 471 l 224 0 l 150 0 l 150 750 l 29 750 l 29 819 l 150 819 l 150 972 l 224 972 l 224 819 l 722 819 l 722 972 l 796 972 l 796 819 l 915 819 l 915 750 l 796 750 l 796 0 l 722 0 m 722 540 l 722 750 l 224 750 l 224 540 l 722 540 z "},"ħ":{"ha":772,"x_min":42,"x_max":646,"o":"m 135 0 l 135 765 l 42 765 l 42 832 l 135 832 l 135 968 l 208 1003 l 208 832 l 422 832 l 422 765 l 208 765 l 208 560 q 291 649 238 619 q 406 679 344 679 q 587 603 528 679 q 646 367 646 528 l 646 0 l 572 0 l 572 392 q 399 613 572 613 q 208 378 208 613 l 208 0 l 135 0 z "},"Ĩ":{"ha":372,"x_min":-50,"x_max":418,"o":"m 294 1099 q 172 1144 244 1099 q 65 1190 99 1190 q 17 1167 36 1190 q -4 1104 -3 1144 l -50 1104 q -19 1217 -50 1176 q 75 1257 13 1257 q 198 1211 125 1257 q 304 1165 271 1165 q 353 1188 333 1165 q 374 1251 372 1211 l 418 1251 q 387 1139 418 1179 q 294 1099 356 1099 m 150 0 l 150 972 l 224 972 l 224 0 l 150 0 z "},"ĩ":{"ha":347,"x_min":-62,"x_max":406,"o":"m 282 836 q 159 882 232 836 q 53 928 86 928 q 4 905 24 928 q -17 842 -15 882 l -62 842 q -31 954 -62 914 q 63 994 0 994 q 185 949 113 994 q 292 903 258 903 q 340 926 321 903 q 361 989 360 949 l 406 989 q 374 876 406 917 q 282 836 343 836 m 138 0 l 138 710 l 211 710 l 211 0 l 138 0 z "},"Ī":{"ha":372,"x_min":-46,"x_max":413,"o":"m -46 1118 l -46 1183 l 413 1183 l 413 1118 l -46 1118 m 150 0 l 150 972 l 224 972 l 224 0 l 150 0 z "},"ī":{"ha":347,"x_min":-58,"x_max":400,"o":"m -58 856 l -58 921 l 400 921 l 400 856 l -58 856 m 138 0 l 138 710 l 211 710 l 211 0 l 138 0 z "},"Ĭ":{"ha":372,"x_min":-58,"x_max":426,"o":"m 185 1069 q 3 1132 64 1069 q -58 1293 -58 1194 l 14 1293 q 62 1177 14 1218 q 185 1136 110 1136 q 308 1177 260 1136 q 356 1293 356 1218 l 426 1293 q 365 1132 426 1194 q 185 1069 304 1069 m 150 0 l 150 972 l 224 972 l 224 0 l 150 0 z "},"ĭ":{"ha":347,"x_min":-71,"x_max":414,"o":"m 172 807 q -10 869 51 807 q -71 1031 -71 932 l 1 1031 q 49 915 1 956 q 172 874 97 874 q 295 915 247 874 q 343 1031 343 956 l 414 1031 q 353 869 414 932 q 172 807 292 807 m 138 0 l 138 710 l 211 710 l 211 0 l 138 0 z "},"Į":{"ha":372,"x_min":15,"x_max":289,"o":"m 158 -325 q 56 -290 97 -325 q 15 -189 15 -256 q 51 -82 15 -133 q 150 3 88 -31 l 150 972 l 224 972 l 224 0 q 118 -81 154 -31 q 82 -183 82 -131 q 106 -249 82 -226 q 163 -271 129 -271 q 244 -232 206 -271 l 289 -264 q 158 -325 236 -325 z "},"į":{"ha":347,"x_min":4,"x_max":276,"o":"m 211 883 q 203 875 211 883 q 174 868 196 868 q 137 883 151 868 q 122 919 122 897 q 137 959 122 943 q 174 975 151 975 q 211 959 196 975 q 226 919 226 943 q 211 883 226 897 m 146 -325 q 45 -290 86 -325 q 4 -189 4 -256 q 40 -82 4 -133 q 138 3 75 -31 l 138 710 l 211 710 l 211 0 q 106 -81 142 -31 q 69 -183 69 -131 q 93 -249 69 -226 q 150 -271 117 -271 q 233 -232 194 -271 l 276 -264 q 146 -325 224 -325 z "},"İ":{"ha":372,"x_min":133,"x_max":239,"o":"m 224 1119 q 216 1112 224 1119 q 186 1104 208 1104 q 149 1119 164 1104 q 133 1157 133 1135 q 149 1195 133 1179 q 186 1211 164 1211 q 224 1196 208 1211 q 239 1157 239 1181 q 224 1119 239 1135 m 150 0 l 150 972 l 224 972 l 224 0 l 150 0 z "},"ı":{"ha":347,"x_min":138,"x_max":211,"o":"m 138 0 l 138 710 l 211 710 l 211 0 l 138 0 z "},"Ĳ":{"ha":1114,"x_min":150,"x_max":968,"o":"m 150 0 l 150 972 l 224 972 l 224 0 l 150 0 m 679 -17 q 520 25 579 -17 q 426 149 461 67 l 486 181 q 560 83 519 114 q 682 51 601 51 q 832 108 769 51 q 894 297 894 164 l 894 972 l 968 972 l 968 313 q 942 150 968 218 q 870 48 915 82 q 778 -1 825 14 q 679 -17 732 -17 z "},"ĳ":{"ha":715,"x_min":122,"x_max":594,"o":"m 211 883 q 203 875 211 883 q 174 868 196 868 q 137 883 151 868 q 122 919 122 897 q 137 959 122 943 q 174 975 151 975 q 211 959 196 975 q 226 919 226 943 q 211 883 226 897 m 580 883 q 573 875 580 883 q 543 868 565 868 q 506 883 521 868 q 490 919 490 897 q 506 959 490 943 q 543 975 521 975 q 580 959 565 975 q 594 919 594 943 q 580 883 594 897 m 138 0 l 138 710 l 211 710 l 211 0 l 138 0 m 369 -296 l 335 -236 q 467 -190 428 -228 q 507 -78 507 -151 l 507 710 l 581 710 l 581 -57 q 533 -221 581 -162 q 369 -296 481 -289 z "},"Ĵ":{"ha":735,"x_min":47,"x_max":792,"o":"m 721 1063 l 550 1217 l 379 1063 l 308 1063 l 518 1279 l 582 1279 l 792 1063 l 721 1063 m 300 -17 q 141 25 200 -17 q 47 149 82 67 l 107 181 q 181 83 140 114 q 303 51 222 51 q 453 108 390 51 q 515 297 515 164 l 515 972 l 589 972 l 589 313 q 563 150 589 218 q 491 48 536 82 q 399 -1 446 14 q 300 -17 353 -17 z "},"ĵ":{"ha":347,"x_min":-65,"x_max":418,"o":"m 347 800 l 176 954 l 6 800 l -65 800 l 144 1017 l 208 1017 l 418 800 l 347 800 m 1 -296 l -33 -236 q 99 -190 60 -228 q 139 -78 139 -151 l 139 710 l 213 710 l 213 -57 q 165 -221 213 -162 q 1 -296 113 -289 z "},"Ķ":{"ha":876,"x_min":150,"x_max":794,"o":"m 711 0 l 394 579 l 224 365 l 224 0 l 150 0 l 150 972 l 224 972 l 224 465 l 626 972 l 710 972 l 446 642 l 794 0 l 711 0 m 393 -335 q 443 -197 439 -276 q 399 -181 415 -197 q 383 -139 383 -164 q 400 -97 383 -114 q 439 -81 417 -81 q 482 -100 464 -81 q 500 -154 500 -119 q 476 -260 500 -210 q 413 -340 451 -311 l 393 -335 z "},"ķ":{"ha":704,"x_min":135,"x_max":661,"o":"m 661 0 l 579 0 l 343 464 l 208 319 l 208 0 l 135 0 l 135 967 l 208 1003 l 208 408 l 485 710 l 572 710 l 394 518 l 661 0 m 307 -335 q 357 -197 353 -276 q 313 -181 329 -197 q 297 -139 297 -164 q 314 -97 297 -114 q 353 -81 331 -81 q 396 -100 378 -81 q 414 -154 414 -119 q 390 -260 414 -210 q 326 -340 365 -311 l 307 -335 z "},"ĸ":{"ha":721,"x_min":135,"x_max":681,"o":"m 597 0 l 389 388 l 208 160 l 208 0 l 135 0 l 135 710 l 208 710 l 208 263 l 558 710 l 644 710 l 439 450 l 681 0 l 597 0 z "},"Ĺ":{"ha":757,"x_min":75,"x_max":706,"o":"m 75 1063 l 278 1279 l 390 1279 l 150 1063 l 75 1063 m 150 0 l 150 972 l 224 972 l 224 69 l 706 69 l 706 0 l 150 0 z "},"ĺ":{"ha":349,"x_min":63,"x_max":378,"o":"m 63 1050 l 265 1267 l 378 1267 l 138 1050 l 63 1050 m 138 0 l 138 967 l 211 1003 l 211 0 l 138 0 z "},"Ļ":{"ha":757,"x_min":150,"x_max":706,"o":"m 150 0 l 150 972 l 224 972 l 224 69 l 706 69 l 706 0 l 150 0 m 382 -335 q 432 -197 428 -276 q 388 -181 404 -197 q 372 -139 372 -164 q 389 -97 372 -114 q 428 -81 406 -81 q 471 -100 453 -81 q 489 -154 489 -119 q 465 -260 489 -210 q 401 -340 440 -311 l 382 -335 z "},"ļ":{"ha":349,"x_min":119,"x_max":236,"o":"m 138 0 l 138 967 l 211 1003 l 211 0 l 138 0 m 129 -335 q 179 -197 175 -276 q 135 -181 151 -197 q 119 -139 119 -164 q 136 -97 119 -114 q 175 -81 153 -81 q 218 -100 200 -81 q 236 -154 236 -119 q 212 -260 236 -210 q 149 -340 188 -311 l 129 -335 z "},"Ľ":{"ha":757,"x_min":-54,"x_max":706,"o":"m 219 1063 l 156 1063 l -54 1279 l 17 1279 l 188 1126 l 358 1279 l 429 1279 l 219 1063 m 150 0 l 150 972 l 224 972 l 224 69 l 706 69 l 706 0 l 150 0 z "},"ľ":{"ha":515,"x_min":147,"x_max":488,"o":"m 147 0 l 147 967 l 221 1003 l 221 0 l 147 0 m 488 989 l 488 971 q 393 672 488 774 l 372 688 q 414 989 414 778 l 488 989 z "},"Ŀ":{"ha":757,"x_min":150,"x_max":706,"o":"m 150 0 l 150 972 l 224 972 l 224 69 l 706 69 l 706 0 l 150 0 m 558 407 q 513 426 532 407 q 494 471 494 446 q 513 517 494 497 q 558 536 532 536 q 604 517 586 536 q 622 471 622 497 q 604 426 622 444 q 558 407 586 407 z "},"ŀ":{"ha":479,"x_min":147,"x_max":468,"o":"m 147 0 l 147 967 l 221 1003 l 221 0 l 147 0 m 404 360 q 359 379 378 360 q 340 424 340 399 q 359 469 340 450 q 404 489 378 489 q 450 469 432 489 q 468 424 468 450 q 450 378 468 397 q 404 360 432 360 z "},"Ł":{"ha":757,"x_min":46,"x_max":706,"o":"m 150 0 l 150 397 l 46 318 l 46 399 l 150 478 l 150 972 l 224 972 l 224 539 l 388 665 l 388 583 l 224 456 l 224 69 l 706 69 l 706 0 l 150 0 z "},"ł":{"ha":350,"x_min":40,"x_max":310,"o":"m 135 0 l 135 396 l 40 322 l 40 390 l 135 464 l 135 967 l 208 1003 l 208 518 l 310 596 l 310 528 l 208 450 l 208 0 l 135 0 z "},"Ń":{"ha":963,"x_min":150,"x_max":814,"o":"m 382 1064 l 585 1281 l 697 1281 l 457 1064 l 382 1064 m 814 0 l 740 0 l 264 768 q 224 836 228 828 l 224 768 l 224 0 l 150 0 l 150 972 l 224 972 l 699 201 q 740 132 713 179 l 740 201 l 740 972 l 814 972 l 814 0 z "},"ń":{"ha":772,"x_min":135,"x_max":646,"o":"m 286 800 l 489 1017 l 601 1017 l 361 800 l 286 800 m 572 0 l 572 439 q 399 660 572 660 q 208 425 208 660 l 208 0 l 135 0 l 135 710 l 208 710 l 208 607 q 290 697 238 667 q 404 726 343 726 q 586 651 526 726 q 646 414 646 575 l 646 0 l 572 0 z "},"Ņ":{"ha":963,"x_min":150,"x_max":814,"o":"m 814 0 l 740 0 l 264 768 q 224 836 228 828 l 224 768 l 224 0 l 150 0 l 150 972 l 224 972 l 699 201 q 740 132 713 179 l 740 201 l 740 972 l 814 972 l 814 0 m 436 -335 q 486 -197 482 -276 q 442 -181 458 -197 q 426 -139 426 -164 q 443 -97 426 -114 q 482 -81 460 -81 q 525 -100 507 -81 q 543 -154 543 -119 q 519 -260 543 -210 q 456 -340 494 -311 l 436 -335 z "},"ņ":{"ha":772,"x_min":135,"x_max":646,"o":"m 572 0 l 572 439 q 399 660 572 660 q 208 425 208 660 l 208 0 l 135 0 l 135 710 l 208 710 l 208 607 q 290 697 238 667 q 404 726 343 726 q 586 651 526 726 q 646 414 646 575 l 646 0 l 572 0 m 340 -335 q 390 -197 386 -276 q 347 -181 363 -197 q 331 -139 331 -164 q 347 -97 331 -114 q 386 -81 364 -81 q 429 -100 411 -81 q 447 -154 447 -119 q 423 -260 447 -210 q 360 -340 399 -311 l 340 -335 z "},"Ň":{"ha":963,"x_min":150,"x_max":814,"o":"m 514 1063 l 450 1063 l 240 1279 l 311 1279 l 482 1126 l 653 1279 l 724 1279 l 514 1063 m 814 0 l 740 0 l 264 768 q 224 836 228 828 l 224 768 l 224 0 l 150 0 l 150 972 l 224 972 l 699 201 q 740 132 713 179 l 740 201 l 740 972 l 814 972 l 814 0 z "},"ň":{"ha":772,"x_min":135,"x_max":646,"o":"m 431 800 l 367 800 l 157 1017 l 228 1017 l 399 864 l 569 1017 l 640 1017 l 431 800 m 572 0 l 572 439 q 399 660 572 660 q 208 425 208 660 l 208 0 l 135 0 l 135 710 l 208 710 l 208 607 q 290 697 238 667 q 404 726 343 726 q 586 651 526 726 q 646 414 646 575 l 646 0 l 572 0 z "},"ŉ":{"ha":1031,"x_min":94,"x_max":913,"o":"m 110 692 q 167 858 167 761 q 115 876 135 858 q 94 922 94 894 q 113 970 94 951 q 157 989 131 989 q 208 967 188 989 q 229 899 229 944 q 201 774 229 832 q 129 686 172 717 l 110 692 m 839 0 l 839 439 q 665 660 839 660 q 475 425 475 660 l 475 0 l 401 0 l 401 710 l 475 710 l 475 607 q 558 697 504 667 q 672 726 611 726 q 853 651 794 726 q 913 414 913 575 l 913 0 l 839 0 z "},"Ŋ":{"ha":963,"x_min":150,"x_max":814,"o":"m 603 -339 l 568 -279 q 740 -99 740 -264 l 740 0 l 264 767 q 245 799 260 775 q 224 836 231 822 l 224 768 l 224 0 l 150 0 l 150 972 l 224 972 l 699 201 q 740 132 713 179 l 740 201 l 740 972 l 814 972 l 814 -87 q 746 -281 814 -218 q 603 -339 697 -328 z "},"ŋ":{"ha":772,"x_min":135,"x_max":646,"o":"m 435 -296 l 400 -236 q 533 -190 493 -228 q 572 -78 572 -151 l 572 439 q 399 660 572 660 q 208 425 208 660 l 208 0 l 135 0 l 135 710 l 208 710 l 208 607 q 291 697 238 667 q 406 726 344 726 q 586 651 526 726 q 646 414 646 575 l 646 -57 q 597 -222 646 -165 q 435 -296 544 -289 z "},"Ō":{"ha":997,"x_min":108,"x_max":890,"o":"m 267 1118 l 267 1183 l 725 1183 l 725 1118 l 267 1118 m 650 13 q 616 -2 650 13 q 499 -17 582 -17 q 348 13 415 -17 q 236 90 281 42 q 163 206 192 139 q 121 342 133 272 q 108 486 108 411 q 121 631 108 561 q 163 767 133 700 q 236 882 192 833 q 348 960 281 931 q 499 989 415 989 q 650 960 582 989 q 762 882 718 931 q 835 767 806 833 q 878 631 865 700 q 890 486 890 561 q 878 342 890 411 q 835 206 865 272 q 762 90 806 139 q 650 13 718 42 m 353 89 q 384 71 353 89 q 499 53 415 53 q 645 92 582 53 q 744 195 708 131 q 796 333 779 260 q 813 486 813 406 q 796 648 813 574 q 744 785 779 722 q 646 885 708 849 q 499 921 583 921 q 353 882 415 921 q 255 778 290 843 q 203 640 219 714 q 186 486 186 567 q 203 324 186 399 q 255 188 219 250 q 353 89 290 125 z "},"ō":{"ha":756,"x_min":86,"x_max":671,"o":"m 146 856 l 146 921 l 604 921 l 604 856 l 146 856 m 591 83 q 551 33 591 83 q 378 -17 511 -17 q 165 81 244 -17 q 86 354 86 179 q 165 627 86 528 q 378 726 244 726 q 591 628 511 726 q 671 356 671 531 q 591 83 671 182 m 219 132 q 247 92 219 132 q 378 53 275 53 q 537 133 481 53 q 593 356 593 213 q 538 578 593 499 q 378 658 482 658 q 219 581 274 658 q 164 354 164 503 q 219 132 164 211 z "},"Ŏ":{"ha":997,"x_min":108,"x_max":890,"o":"m 497 1069 q 315 1132 376 1069 q 254 1293 254 1194 l 326 1293 q 374 1177 326 1218 q 497 1136 422 1136 q 620 1177 572 1136 q 668 1293 668 1218 l 739 1293 q 678 1132 739 1194 q 497 1069 617 1069 m 650 13 q 616 -2 650 13 q 499 -17 582 -17 q 348 13 415 -17 q 236 90 281 42 q 163 206 192 139 q 121 342 133 272 q 108 486 108 411 q 121 631 108 561 q 163 767 133 700 q 236 882 192 833 q 348 960 281 931 q 499 989 415 989 q 650 960 582 989 q 762 882 718 931 q 835 767 806 833 q 878 631 865 700 q 890 486 890 561 q 878 342 890 411 q 835 206 865 272 q 762 90 806 139 q 650 13 718 42 m 353 89 q 384 71 353 89 q 499 53 415 53 q 645 92 582 53 q 744 195 708 131 q 796 333 779 260 q 813 486 813 406 q 796 648 813 574 q 744 785 779 722 q 646 885 708 849 q 499 921 583 921 q 353 882 415 921 q 255 778 290 843 q 203 640 219 714 q 186 486 186 567 q 203 324 186 399 q 255 188 219 250 q 353 89 290 125 z "},"ŏ":{"ha":756,"x_min":86,"x_max":671,"o":"m 376 807 q 194 869 256 807 q 133 1031 133 932 l 206 1031 q 253 915 206 956 q 376 874 301 874 q 499 915 451 874 q 547 1031 547 956 l 618 1031 q 557 869 618 932 q 376 807 496 807 m 591 83 q 551 33 591 83 q 378 -17 511 -17 q 165 81 244 -17 q 86 354 86 179 q 165 627 86 528 q 378 726 244 726 q 591 628 511 726 q 671 356 671 531 q 591 83 671 182 m 219 132 q 247 92 219 132 q 378 53 275 53 q 537 133 481 53 q 593 356 593 213 q 538 578 593 499 q 378 658 482 658 q 219 581 274 658 q 164 354 164 503 q 219 132 164 211 z "},"Ő":{"ha":997,"x_min":108,"x_max":890,"o":"m 321 1063 l 246 1063 l 449 1279 l 561 1279 l 321 1063 m 596 1063 l 521 1063 l 724 1279 l 836 1279 l 596 1063 m 650 13 q 616 -2 650 13 q 499 -17 582 -17 q 348 13 415 -17 q 236 90 281 42 q 163 206 192 139 q 121 342 133 272 q 108 486 108 411 q 121 631 108 561 q 163 767 133 700 q 236 882 192 833 q 348 960 281 931 q 499 989 415 989 q 650 960 582 989 q 762 882 718 931 q 835 767 806 833 q 878 631 865 700 q 890 486 890 561 q 878 342 890 411 q 835 206 865 272 q 762 90 806 139 q 650 13 718 42 m 353 89 q 384 71 353 89 q 499 53 415 53 q 645 92 582 53 q 744 195 708 131 q 796 333 779 260 q 813 486 813 406 q 796 648 813 574 q 744 785 779 722 q 646 885 708 849 q 499 921 583 921 q 353 882 415 921 q 255 778 290 843 q 203 640 219 714 q 186 486 186 567 q 203 324 186 399 q 255 188 219 250 q 353 89 290 125 z "},"ő":{"ha":756,"x_min":86,"x_max":715,"o":"m 200 800 l 125 800 l 328 1017 l 440 1017 l 200 800 m 475 800 l 400 800 l 603 1017 l 715 1017 l 475 800 m 591 83 q 551 33 591 83 q 378 -17 511 -17 q 165 81 244 -17 q 86 354 86 179 q 165 627 86 528 q 378 726 244 726 q 591 628 511 726 q 671 356 671 531 q 591 83 671 182 m 219 132 q 247 92 219 132 q 378 53 275 53 q 537 133 481 53 q 593 356 593 213 q 538 578 593 499 q 378 658 482 658 q 219 581 274 658 q 164 354 164 503 q 219 132 164 211 z "},"Œ":{"ha":1267,"x_min":108,"x_max":1160,"o":"m 671 0 l 671 25 q 503 -17 597 -17 q 319 27 399 -17 q 196 144 240 71 q 130 304 151 218 q 108 486 108 390 q 121 633 108 563 q 164 769 133 703 q 238 883 194 835 q 350 960 282 931 q 503 989 418 989 q 671 949 599 989 l 671 972 l 1129 972 l 1129 903 l 744 903 l 744 538 l 981 538 l 981 469 l 744 469 l 744 69 l 1160 69 l 1160 0 l 671 0 m 503 53 q 671 107 593 53 l 671 868 q 503 921 601 921 q 354 882 418 921 q 255 778 290 843 q 202 640 219 714 q 185 486 185 567 q 202 324 185 399 q 255 186 219 249 q 354 88 290 124 q 503 53 418 53 z "},"œ":{"ha":1236,"x_min":86,"x_max":1158,"o":"m 379 -17 q 165 81 244 -17 q 86 354 86 179 q 166 627 86 528 q 379 726 246 726 q 633 550 564 726 q 734 681 667 636 q 889 726 801 726 q 1084 637 1010 726 q 1158 369 1158 547 q 1157 328 1158 346 l 671 328 q 738 124 681 194 q 893 54 794 54 q 1057 111 982 54 l 1097 61 q 889 -17 1007 -17 q 733 31 799 -17 q 633 164 667 78 q 535 31 601 78 q 379 -17 468 -17 m 669 394 l 1082 394 q 1023 601 1081 542 q 889 660 965 660 q 735 594 794 660 q 669 394 676 528 m 379 53 q 536 132 479 53 q 593 356 593 211 q 537 579 593 500 q 379 658 481 658 q 219 581 274 658 q 164 354 164 503 q 219 132 164 211 q 379 53 275 53 z "},"Ŕ":{"ha":896,"x_min":150,"x_max":785,"o":"m 319 1063 l 522 1279 l 635 1279 l 394 1063 l 319 1063 m 150 0 l 150 972 l 494 972 q 716 897 647 972 q 785 713 785 822 q 724 538 785 611 q 538 449 663 464 l 757 0 l 675 0 l 461 446 l 224 446 l 224 0 l 150 0 m 224 513 l 496 513 q 660 570 608 513 q 711 710 711 628 q 701 776 711 744 q 667 839 690 808 q 600 888 644 869 q 496 906 556 906 l 224 906 l 224 513 z "},"ŕ":{"ha":531,"x_min":135,"x_max":511,"o":"m 196 800 l 399 1017 l 511 1017 l 271 800 l 196 800 m 135 0 l 135 710 l 208 710 l 208 585 q 401 726 267 726 q 499 697 464 726 l 488 625 q 394 650 447 650 q 266 588 324 650 q 208 397 208 526 l 208 0 l 135 0 z "},"Ŗ":{"ha":896,"x_min":150,"x_max":785,"o":"m 150 0 l 150 972 l 494 972 q 716 897 647 972 q 785 713 785 822 q 724 538 785 611 q 538 449 663 464 l 757 0 l 675 0 l 461 446 l 224 446 l 224 0 l 150 0 m 224 513 l 496 513 q 660 570 608 513 q 711 710 711 628 q 701 776 711 744 q 667 839 690 808 q 600 888 644 869 q 496 906 556 906 l 224 906 l 224 513 m 399 -335 q 449 -197 444 -276 q 405 -181 421 -197 q 389 -139 389 -164 q 406 -97 389 -114 q 444 -81 422 -81 q 488 -100 469 -81 q 506 -154 506 -119 q 481 -260 506 -210 q 418 -340 457 -311 l 399 -335 z "},"ŗ":{"ha":531,"x_min":117,"x_max":499,"o":"m 135 0 l 135 710 l 208 710 l 208 585 q 401 726 267 726 q 499 697 464 726 l 488 625 q 394 650 447 650 q 266 588 324 650 q 208 397 208 526 l 208 0 l 135 0 m 126 -362 q 176 -225 172 -304 q 133 -208 149 -225 q 117 -167 117 -192 q 133 -125 117 -142 q 172 -108 150 -108 q 215 -128 197 -108 q 233 -182 233 -147 q 209 -288 233 -237 q 146 -368 185 -339 l 126 -362 z "},"Ř":{"ha":896,"x_min":150,"x_max":785,"o":"m 464 1063 l 400 1063 l 190 1279 l 261 1279 l 432 1126 l 603 1279 l 674 1279 l 464 1063 m 150 0 l 150 972 l 494 972 q 716 897 647 972 q 785 713 785 822 q 724 538 785 611 q 538 449 663 464 l 757 0 l 675 0 l 461 446 l 224 446 l 224 0 l 150 0 m 224 513 l 496 513 q 660 570 608 513 q 711 710 711 628 q 701 776 711 744 q 667 839 690 808 q 600 888 644 869 q 496 906 556 906 l 224 906 l 224 513 z "},"ř":{"ha":531,"x_min":67,"x_max":550,"o":"m 340 800 l 276 800 l 67 1017 l 138 1017 l 308 864 l 479 1017 l 550 1017 l 340 800 m 135 0 l 135 710 l 208 710 l 208 585 q 401 726 267 726 q 499 697 464 726 l 488 625 q 394 650 447 650 q 266 588 324 650 q 208 397 208 526 l 208 0 l 135 0 z "},"Ś":{"ha":822,"x_min":97,"x_max":707,"o":"m 313 1063 l 515 1279 l 628 1279 l 388 1063 l 313 1063 m 413 -17 q 216 41 300 -17 q 97 185 132 99 l 169 210 q 267 94 203 138 q 414 51 331 51 q 572 102 514 51 q 631 246 631 153 q 404 488 631 403 q 303 532 344 511 q 217 586 261 553 q 149 666 172 619 q 126 769 126 713 q 200 926 126 864 q 401 989 274 989 q 569 946 499 989 q 663 832 640 903 l 593 810 q 397 921 543 921 q 254 881 306 921 q 203 769 203 840 q 221 697 203 729 q 276 638 239 664 q 347 597 314 613 q 435 558 379 581 q 532 513 490 536 q 617 452 574 489 q 683 363 660 415 q 707 247 707 311 q 626 53 707 124 q 413 -17 544 -17 z "},"ś":{"ha":639,"x_min":93,"x_max":553,"o":"m 231 800 l 433 1017 l 546 1017 l 306 800 l 231 800 m 326 -17 q 93 99 193 -17 l 146 146 q 331 50 228 50 q 440 81 399 50 q 481 169 481 111 q 432 269 481 232 q 296 342 383 307 q 144 426 196 381 q 93 549 93 471 q 153 677 93 628 q 311 726 213 726 q 529 629 442 726 l 478 586 q 310 660 401 660 q 203 630 242 660 q 164 550 164 600 q 176 499 164 521 q 217 458 188 476 q 266 430 247 439 q 332 401 285 421 q 417 365 386 381 q 483 324 447 350 q 536 260 519 297 q 553 172 553 222 q 492 35 553 86 q 326 -17 432 -17 z "},"Ŝ":{"ha":815,"x_min":97,"x_max":707,"o":"m 572 1063 l 401 1217 l 231 1063 l 160 1063 l 369 1279 l 433 1279 l 643 1063 l 572 1063 m 413 -17 q 216 41 300 -17 q 97 185 132 99 l 169 210 q 267 94 203 138 q 414 51 331 51 q 572 102 514 51 q 631 246 631 153 q 404 488 631 403 q 303 532 344 511 q 217 586 261 553 q 149 666 172 619 q 126 769 126 713 q 200 926 126 864 q 401 989 274 989 q 569 946 499 989 q 663 832 640 903 l 593 810 q 397 921 543 921 q 254 881 306 921 q 203 769 203 840 q 221 697 203 729 q 276 638 239 664 q 347 597 314 613 q 435 558 379 581 q 532 513 490 536 q 617 452 574 489 q 683 363 660 415 q 707 247 707 311 q 626 53 707 124 q 413 -17 544 -17 z "},"ŝ":{"ha":639,"x_min":69,"x_max":553,"o":"m 482 800 l 311 954 l 140 800 l 69 800 l 279 1017 l 343 1017 l 553 800 l 482 800 m 326 -17 q 93 99 193 -17 l 146 146 q 331 50 228 50 q 440 81 399 50 q 481 169 481 111 q 432 269 481 232 q 296 342 383 307 q 144 426 196 381 q 93 549 93 471 q 153 677 93 628 q 311 726 213 726 q 529 629 442 726 l 478 586 q 310 660 401 660 q 203 630 242 660 q 164 550 164 600 q 176 499 164 521 q 217 458 188 476 q 266 430 247 439 q 332 401 285 421 q 417 365 386 381 q 483 324 447 350 q 536 260 519 297 q 553 172 553 222 q 492 35 553 86 q 326 -17 432 -17 z "},"Ş":{"ha":815,"x_min":97,"x_max":707,"o":"m 400 -325 q 289 -286 331 -325 l 339 -253 q 394 -272 358 -272 q 453 -250 431 -272 q 476 -194 476 -228 q 451 -142 476 -164 q 389 -119 425 -119 q 338 -128 354 -119 l 322 -110 l 392 -15 q 208 47 286 -10 q 97 185 129 103 l 169 210 q 267 96 203 138 q 414 54 331 54 q 572 103 515 54 q 629 246 629 153 q 404 488 629 403 q 303 532 343 511 q 217 586 263 553 q 149 665 172 619 q 126 769 126 711 q 200 926 126 864 q 401 989 274 989 q 569 946 499 989 q 663 832 640 903 l 593 808 q 397 919 544 919 q 255 880 306 919 q 204 769 204 840 q 222 697 204 729 q 277 638 240 664 q 347 597 314 613 q 435 558 381 581 q 532 513 490 536 q 617 453 574 489 q 683 364 660 417 q 707 247 707 311 q 635 61 707 131 q 442 -15 563 -8 l 404 -79 q 510 -113 475 -79 q 546 -194 546 -147 q 505 -288 546 -251 q 400 -325 464 -325 z "},"ş":{"ha":639,"x_min":93,"x_max":553,"o":"m 299 -325 q 188 -286 229 -325 l 238 -253 q 293 -272 257 -272 q 352 -250 329 -272 q 375 -194 375 -228 q 349 -142 375 -164 q 288 -119 324 -119 q 236 -128 253 -119 l 221 -110 l 292 -14 q 93 99 178 0 l 146 146 q 331 50 228 50 q 440 81 399 50 q 481 169 481 111 q 432 269 481 232 q 296 342 383 307 q 144 426 196 381 q 93 549 93 471 q 153 677 93 628 q 311 726 213 726 q 529 629 442 726 l 478 586 q 310 660 401 660 q 203 630 242 660 q 164 550 164 600 q 176 499 164 521 q 217 458 188 476 q 266 430 247 439 q 332 401 285 421 q 417 365 386 381 q 483 324 447 350 q 536 260 519 297 q 553 172 553 222 q 496 38 553 89 q 340 -17 439 -14 l 303 -79 q 409 -113 374 -79 q 444 -194 444 -147 q 403 -288 444 -251 q 299 -325 363 -325 z "},"Š":{"ha":815,"x_min":97,"x_max":707,"o":"m 435 1063 l 371 1063 l 161 1279 l 232 1279 l 403 1126 l 574 1279 l 644 1279 l 435 1063 m 413 -17 q 216 41 300 -17 q 97 185 132 99 l 169 210 q 267 94 203 138 q 414 51 331 51 q 572 102 514 51 q 631 246 631 153 q 404 488 631 403 q 303 532 344 511 q 217 586 261 553 q 149 666 172 619 q 126 769 126 713 q 200 926 126 864 q 401 989 274 989 q 569 946 499 989 q 663 832 640 903 l 593 810 q 397 921 543 921 q 254 881 306 921 q 203 769 203 840 q 221 697 203 729 q 276 638 239 664 q 347 597 314 613 q 435 558 379 581 q 532 513 490 536 q 617 452 574 489 q 683 363 660 415 q 707 247 707 311 q 626 53 707 124 q 413 -17 544 -17 z "},"š":{"ha":639,"x_min":71,"x_max":554,"o":"m 344 800 l 281 800 l 71 1017 l 142 1017 l 313 864 l 483 1017 l 554 1017 l 344 800 m 326 -17 q 93 99 193 -17 l 146 146 q 331 50 228 50 q 440 81 399 50 q 481 169 481 111 q 432 269 481 232 q 296 342 383 307 q 144 426 196 381 q 93 549 93 471 q 153 677 93 628 q 311 726 213 726 q 529 629 442 726 l 478 586 q 310 660 401 660 q 203 630 242 660 q 164 550 164 600 q 176 499 164 521 q 217 458 188 476 q 266 430 247 439 q 332 401 285 421 q 417 365 386 381 q 483 324 447 350 q 536 260 519 297 q 553 172 553 222 q 492 35 553 86 q 326 -17 432 -17 z "},"Ţ":{"ha":786,"x_min":89,"x_max":697,"o":"m 364 -325 q 253 -286 294 -325 l 303 -253 q 358 -272 322 -272 q 417 -250 394 -272 q 440 -194 440 -228 q 415 -142 440 -164 q 353 -119 389 -119 q 301 -128 318 -119 l 286 -110 l 369 0 l 356 0 l 356 904 l 89 904 l 89 972 l 697 972 l 697 904 l 429 904 l 429 0 l 415 0 l 368 -79 q 474 -113 439 -79 q 510 -194 510 -147 q 469 -288 510 -251 q 364 -325 428 -325 z "},"ţ":{"ha":507,"x_min":51,"x_max":432,"o":"m 253 -325 q 142 -286 183 -325 l 192 -253 q 247 -272 211 -272 q 306 -250 283 -272 q 329 -194 329 -228 q 303 -142 329 -164 q 242 -119 278 -119 q 190 -128 207 -119 l 175 -110 l 251 -7 q 172 146 172 22 l 172 643 l 51 643 l 51 710 l 172 710 l 172 967 l 246 1003 l 246 710 l 426 710 l 426 643 l 246 643 l 246 169 q 262 83 246 113 q 326 54 278 54 q 432 92 375 54 l 424 14 q 307 -17 374 -17 l 294 -17 l 257 -79 q 363 -113 328 -79 q 399 -194 399 -147 q 358 -288 399 -251 q 253 -325 317 -325 z "},"Ť":{"ha":786,"x_min":89,"x_max":697,"o":"m 426 1063 l 363 1063 l 153 1279 l 224 1279 l 394 1126 l 565 1279 l 636 1279 l 426 1063 m 429 903 l 429 0 l 356 0 l 356 903 l 89 903 l 89 972 l 697 972 l 697 903 l 429 903 z "},"ť":{"ha":531,"x_min":61,"x_max":492,"o":"m 492 1167 l 492 1149 q 397 850 492 951 l 376 865 q 418 1167 418 956 l 492 1167 m 317 -17 q 182 146 182 -17 l 182 643 l 61 643 l 61 710 l 182 710 l 182 967 l 256 1003 l 256 710 l 436 710 l 436 643 l 256 643 l 256 169 q 272 83 256 113 q 336 54 288 54 q 442 92 386 54 l 433 14 q 317 -17 383 -17 z "},"Ŧ":{"ha":786,"x_min":89,"x_max":697,"o":"m 697 903 l 429 903 l 429 475 l 619 475 l 619 406 l 429 406 l 429 0 l 356 0 l 356 406 l 165 406 l 165 475 l 356 475 l 356 903 l 89 903 l 89 972 l 697 972 l 697 903 z "},"ŧ":{"ha":528,"x_min":65,"x_max":446,"o":"m 321 -17 q 186 146 186 -17 l 186 342 l 65 342 l 65 408 l 186 408 l 186 643 l 65 643 l 65 710 l 186 710 l 186 967 l 260 1003 l 260 710 l 440 710 l 440 643 l 260 643 l 260 408 l 440 408 l 440 342 l 260 342 l 260 169 q 276 83 260 113 q 340 54 292 54 q 446 92 389 54 l 438 14 q 321 -17 388 -17 z "},"Ũ":{"ha":929,"x_min":143,"x_max":786,"o":"m 574 1099 q 451 1144 524 1099 q 344 1190 378 1190 q 296 1167 315 1190 q 275 1104 276 1144 l 229 1104 q 260 1217 229 1176 q 354 1257 292 1257 q 477 1211 404 1257 q 583 1165 550 1165 q 632 1188 613 1165 q 653 1251 651 1211 l 697 1251 q 666 1139 697 1179 q 574 1099 635 1099 m 465 -17 q 143 354 143 -17 l 143 972 l 217 972 l 217 356 q 465 51 217 51 q 713 356 713 51 l 713 972 l 786 972 l 786 354 q 465 -17 786 -17 z "},"ũ":{"ha":772,"x_min":128,"x_max":639,"o":"m 493 836 q 370 882 443 836 q 264 928 297 928 q 215 905 235 928 q 194 842 196 882 l 149 842 q 180 954 149 914 q 274 994 211 994 q 397 949 324 994 q 503 903 469 903 q 551 926 532 903 q 572 989 571 949 l 617 989 q 585 876 617 917 q 493 836 554 836 m 565 0 l 565 94 q 372 -17 501 -17 q 188 58 247 -17 q 128 296 128 133 l 128 710 l 201 710 l 201 271 q 374 50 201 50 q 565 286 565 50 l 565 710 l 639 710 l 639 0 l 565 0 z "},"Ū":{"ha":929,"x_min":143,"x_max":786,"o":"m 233 1118 l 233 1183 l 692 1183 l 692 1118 l 233 1118 m 465 -17 q 143 354 143 -17 l 143 972 l 217 972 l 217 356 q 465 51 217 51 q 713 356 713 51 l 713 972 l 786 972 l 786 354 q 465 -17 786 -17 z "},"ū":{"ha":772,"x_min":128,"x_max":639,"o":"m 154 856 l 154 921 l 613 921 l 613 856 l 154 856 m 565 0 l 565 94 q 372 -17 501 -17 q 188 58 247 -17 q 128 296 128 133 l 128 710 l 201 710 l 201 271 q 374 50 201 50 q 565 286 565 50 l 565 710 l 639 710 l 639 0 l 565 0 z "},"Ŭ":{"ha":929,"x_min":143,"x_max":786,"o":"m 464 1069 q 282 1132 343 1069 q 221 1293 221 1194 l 293 1293 q 341 1177 293 1218 q 464 1136 389 1136 q 587 1177 539 1136 q 635 1293 635 1218 l 706 1293 q 644 1132 706 1194 q 464 1069 583 1069 m 465 -17 q 143 354 143 -17 l 143 972 l 217 972 l 217 356 q 465 51 217 51 q 713 356 713 51 l 713 972 l 786 972 l 786 354 q 465 -17 786 -17 z "},"ŭ":{"ha":772,"x_min":128,"x_max":639,"o":"m 383 807 q 201 869 263 807 q 140 1031 140 932 l 213 1031 q 260 915 213 956 q 383 874 308 874 q 506 915 458 874 q 554 1031 554 956 l 625 1031 q 564 869 625 932 q 383 807 503 807 m 565 0 l 565 94 q 372 -17 501 -17 q 188 58 247 -17 q 128 296 128 133 l 128 710 l 201 710 l 201 271 q 374 50 201 50 q 565 286 565 50 l 565 710 l 639 710 l 639 0 l 565 0 z "},"Ů":{"ha":929,"x_min":143,"x_max":786,"o":"m 578 1059 q 554 1036 578 1059 q 465 1013 531 1013 q 353 1059 400 1013 q 306 1169 306 1106 q 353 1279 306 1233 q 465 1325 400 1325 q 578 1279 531 1325 q 625 1169 625 1233 q 578 1059 625 1106 m 465 1071 q 533 1099 506 1071 q 561 1169 561 1128 q 533 1240 561 1213 q 465 1268 506 1268 q 399 1240 426 1268 q 371 1169 371 1213 q 399 1099 371 1128 q 465 1071 426 1071 m 465 -17 q 143 354 143 -17 l 143 972 l 217 972 l 217 356 q 465 51 217 51 q 713 356 713 51 l 713 972 l 786 972 l 786 354 q 465 -17 786 -17 z "},"ů":{"ha":772,"x_min":128,"x_max":639,"o":"m 494 797 q 471 773 494 797 q 382 750 447 750 q 269 797 317 750 q 222 907 222 843 q 269 1017 222 971 q 382 1063 317 1063 q 494 1017 447 1063 q 542 907 542 971 q 494 797 542 843 m 382 808 q 450 837 422 808 q 478 907 478 865 q 450 978 478 950 q 382 1006 422 1006 q 315 978 343 1006 q 288 907 288 950 q 315 837 288 865 q 382 808 343 808 m 565 0 l 565 94 q 372 -17 501 -17 q 188 58 247 -17 q 128 296 128 133 l 128 710 l 201 710 l 201 271 q 374 50 201 50 q 565 286 565 50 l 565 710 l 639 710 l 639 0 l 565 0 z "},"Ű":{"ha":929,"x_min":143,"x_max":833,"o":"m 318 1063 l 243 1063 l 446 1279 l 558 1279 l 318 1063 m 593 1063 l 518 1063 l 721 1279 l 833 1279 l 593 1063 m 465 -17 q 143 354 143 -17 l 143 972 l 217 972 l 217 356 q 465 51 217 51 q 713 356 713 51 l 713 972 l 786 972 l 786 354 q 465 -17 786 -17 z "},"ű":{"ha":772,"x_min":128,"x_max":751,"o":"m 236 800 l 161 800 l 364 1017 l 476 1017 l 236 800 m 511 800 l 436 800 l 639 1017 l 751 1017 l 511 800 m 565 0 l 565 94 q 372 -17 501 -17 q 188 58 247 -17 q 128 296 128 133 l 128 710 l 201 710 l 201 271 q 374 50 201 50 q 565 286 565 50 l 565 710 l 639 710 l 639 0 l 565 0 z "},"Ų":{"ha":929,"x_min":143,"x_max":786,"o":"m 500 -325 q 398 -290 439 -325 q 357 -189 357 -256 q 478 -17 357 -85 l 461 -17 q 224 74 306 -15 q 143 354 143 163 l 143 972 l 217 972 l 217 356 q 284 119 217 188 q 467 51 351 51 q 713 356 713 51 l 713 972 l 786 972 l 786 354 q 736 117 786 200 q 590 -3 686 35 q 424 -183 424 -69 q 447 -249 424 -226 q 504 -271 471 -271 q 586 -232 547 -271 l 631 -264 q 500 -325 578 -325 z "},"ų":{"ha":772,"x_min":128,"x_max":681,"o":"m 550 -325 q 448 -290 489 -325 q 407 -189 407 -256 q 451 -78 407 -126 q 565 0 494 -29 l 565 94 q 372 -17 501 -17 q 188 58 247 -17 q 128 296 128 133 l 128 710 l 201 710 l 201 271 q 374 50 201 50 q 565 286 565 50 l 565 710 l 639 710 l 639 0 q 474 -183 474 -61 q 497 -249 474 -226 q 554 -271 521 -271 q 636 -232 597 -271 l 681 -264 q 550 -325 628 -325 z "},"Ŵ":{"ha":1153,"x_min":82,"x_max":1071,"o":"m 746 1063 l 575 1217 l 404 1063 l 333 1063 l 543 1279 l 607 1279 l 817 1063 l 746 1063 m 294 0 l 82 972 l 161 972 l 314 250 q 331 165 328 181 q 351 247 338 194 l 544 972 l 601 972 l 793 247 q 813 174 794 244 q 829 250 815 188 l 993 972 l 1071 972 l 847 0 l 796 0 l 604 699 q 572 818 603 703 q 556 753 567 794 q 542 699 544 711 l 349 0 l 294 0 z "},"ŵ":{"ha":974,"x_min":65,"x_max":910,"o":"m 657 800 l 486 954 l 315 800 l 244 800 l 454 1017 l 518 1017 l 728 800 l 657 800 m 243 0 l 65 710 l 139 710 l 265 181 l 282 107 q 303 181 289 133 l 461 710 l 513 710 l 672 181 l 694 103 q 711 181 700 131 l 836 710 l 910 710 l 732 0 l 669 0 l 517 476 l 486 572 q 457 476 479 549 l 306 0 l 243 0 z "},"Ŷ":{"ha":844,"x_min":69,"x_max":776,"o":"m 592 1063 l 421 1217 l 250 1063 l 179 1063 l 389 1279 l 453 1279 l 663 1063 l 592 1063 m 386 0 l 386 383 l 69 972 l 150 972 l 422 454 l 699 972 l 776 972 l 460 386 l 460 0 l 386 0 z "},"ŷ":{"ha":717,"x_min":65,"x_max":651,"o":"m 526 800 l 356 954 l 185 800 l 114 800 l 324 1017 l 388 1017 l 597 800 l 526 800 m 217 -269 l 322 19 l 65 710 l 139 710 l 332 178 q 344 143 336 167 q 356 107 351 119 l 381 178 l 575 710 l 651 710 l 290 -269 l 217 -269 z "},"Ÿ":{"ha":844,"x_min":69,"x_max":776,"o":"m 344 1119 q 337 1112 344 1119 q 307 1104 329 1104 q 269 1119 285 1104 q 254 1157 254 1135 q 269 1195 254 1179 q 307 1211 285 1211 q 344 1196 329 1211 q 360 1157 360 1181 q 344 1119 360 1135 m 575 1119 q 567 1112 575 1119 q 538 1104 560 1104 q 500 1119 515 1104 q 485 1157 485 1135 q 500 1195 485 1179 q 538 1211 515 1211 q 575 1196 560 1211 q 590 1157 590 1181 q 575 1119 590 1135 m 386 0 l 386 383 l 69 972 l 150 972 l 422 454 l 699 972 l 776 972 l 460 386 l 460 0 l 386 0 z "},"Ź":{"ha":856,"x_min":96,"x_max":761,"o":"m 342 1063 l 544 1279 l 657 1279 l 417 1063 l 342 1063 m 96 0 l 96 47 l 665 904 l 128 904 l 128 972 l 761 972 l 761 922 l 197 69 l 761 69 l 761 0 l 96 0 z "},"ź":{"ha":690,"x_min":96,"x_max":588,"o":"m 240 800 l 443 1017 l 556 1017 l 315 800 l 240 800 m 96 0 l 96 46 l 490 643 l 124 643 l 124 710 l 588 710 l 588 667 l 192 67 l 586 67 l 586 0 l 96 0 z "},"Ż":{"ha":856,"x_min":96,"x_max":761,"o":"m 476 1119 q 469 1112 476 1119 q 439 1104 461 1104 q 401 1119 417 1104 q 386 1157 386 1135 q 401 1195 386 1179 q 439 1211 417 1211 q 476 1196 461 1211 q 492 1157 492 1181 q 476 1119 492 1135 m 96 0 l 96 47 l 665 904 l 128 904 l 128 972 l 761 972 l 761 922 l 197 69 l 761 69 l 761 0 l 96 0 z "},"ż":{"ha":690,"x_min":96,"x_max":588,"o":"m 390 857 q 383 849 390 857 q 353 842 375 842 q 315 857 331 842 q 300 894 300 872 q 315 933 300 917 q 353 949 331 949 q 390 933 375 949 q 406 894 406 918 q 390 857 406 872 m 96 0 l 96 46 l 490 643 l 124 643 l 124 710 l 588 710 l 588 667 l 192 67 l 586 67 l 586 0 l 96 0 z "},"Ž":{"ha":856,"x_min":96,"x_max":761,"o":"m 486 1063 l 422 1063 l 213 1279 l 283 1279 l 454 1126 l 625 1279 l 696 1279 l 486 1063 m 96 0 l 96 47 l 665 904 l 128 904 l 128 972 l 761 972 l 761 922 l 197 69 l 761 69 l 761 0 l 96 0 z "},"ž":{"ha":690,"x_min":96,"x_max":594,"o":"m 385 800 l 321 800 l 111 1017 l 182 1017 l 353 864 l 524 1017 l 594 1017 l 385 800 m 96 0 l 96 46 l 490 643 l 124 643 l 124 710 l 588 710 l 588 667 l 192 67 l 586 67 l 586 0 l 96 0 z "},"ſ":{"ha":417,"x_min":138,"x_max":382,"o":"m 138 0 l 138 835 q 176 951 138 913 q 279 989 214 989 q 382 961 333 989 l 382 897 q 289 921 335 921 q 228 897 244 921 q 211 824 211 874 l 211 0 l 138 0 z "},"ƒ":{"ha":482,"x_min":18,"x_max":435,"o":"m 53 -296 l 18 -236 q 151 -190 111 -228 q 190 -78 190 -151 l 190 643 l 76 643 l 76 710 l 190 710 l 190 835 q 228 951 190 913 q 332 989 267 989 q 435 961 386 989 l 435 897 q 342 921 385 921 q 280 897 296 921 q 264 824 264 874 l 264 710 l 435 710 l 435 643 l 264 643 l 264 -57 q 53 -296 264 -279 z "},"Ǎ":{"ha":901,"x_min":88,"x_max":815,"o":"m 483 1063 l 419 1063 l 210 1279 l 281 1279 l 451 1126 l 622 1279 l 693 1279 l 483 1063 m 739 0 l 647 263 l 254 263 l 165 0 l 88 0 l 422 972 l 478 972 l 815 0 l 739 0 m 626 326 l 489 728 q 450 850 458 817 q 413 728 443 819 l 275 326 l 626 326 z "},"ǎ":{"ha":719,"x_min":93,"x_max":626,"o":"m 417 800 l 353 800 l 143 1017 l 214 1017 l 385 864 l 556 1017 l 626 1017 l 417 800 m 543 0 l 543 90 q 326 -17 450 -17 q 156 44 219 -17 q 93 219 93 106 q 165 390 93 332 q 343 449 236 449 q 543 390 443 449 l 543 472 q 498 620 543 579 q 379 661 453 661 q 167 589 279 661 l 144 653 q 386 726 267 726 q 465 716 428 726 q 537 681 501 706 q 593 608 572 657 q 614 489 614 558 l 614 0 l 543 0 m 332 49 q 543 174 447 49 l 543 319 q 349 383 447 383 q 218 342 271 383 q 165 219 165 300 q 210 95 165 142 q 332 49 254 49 z "},"Ǐ":{"ha":372,"x_min":-56,"x_max":428,"o":"m 218 1063 l 154 1063 l -56 1279 l 15 1279 l 186 1126 l 357 1279 l 428 1279 l 218 1063 m 150 0 l 150 972 l 224 972 l 224 0 l 150 0 z "},"ǐ":{"ha":347,"x_min":-68,"x_max":415,"o":"m 206 800 l 142 800 l -68 1017 l 3 1017 l 174 864 l 344 1017 l 415 1017 l 206 800 m 138 0 l 138 710 l 211 710 l 211 0 l 138 0 z "},"Ǒ":{"ha":997,"x_min":108,"x_max":890,"o":"m 531 1063 l 467 1063 l 257 1279 l 328 1279 l 499 1126 l 669 1279 l 740 1279 l 531 1063 m 650 13 q 616 -2 650 13 q 499 -17 582 -17 q 348 13 415 -17 q 236 90 281 42 q 163 206 192 139 q 121 342 133 272 q 108 486 108 411 q 121 631 108 561 q 163 767 133 700 q 236 882 192 833 q 348 960 281 931 q 499 989 415 989 q 650 960 582 989 q 762 882 718 931 q 835 767 806 833 q 878 631 865 700 q 890 486 890 561 q 878 342 890 411 q 835 206 865 272 q 762 90 806 139 q 650 13 718 42 m 353 89 q 384 71 353 89 q 499 53 415 53 q 645 92 582 53 q 744 195 708 131 q 796 333 779 260 q 813 486 813 406 q 796 648 813 574 q 744 785 779 722 q 646 885 708 849 q 499 921 583 921 q 353 882 415 921 q 255 778 290 843 q 203 640 219 714 q 186 486 186 567 q 203 324 186 399 q 255 188 219 250 q 353 89 290 125 z "},"ǒ":{"ha":756,"x_min":86,"x_max":671,"o":"m 410 800 l 346 800 l 136 1017 l 207 1017 l 378 864 l 549 1017 l 619 1017 l 410 800 m 591 83 q 551 33 591 83 q 378 -17 511 -17 q 165 81 244 -17 q 86 354 86 179 q 165 627 86 528 q 378 726 244 726 q 591 628 511 726 q 671 356 671 531 q 591 83 671 182 m 219 132 q 247 92 219 132 q 378 53 275 53 q 537 133 481 53 q 593 356 593 213 q 538 578 593 499 q 378 658 482 658 q 219 581 274 658 q 164 354 164 503 q 219 132 164 211 z "},"Ǔ":{"ha":929,"x_min":143,"x_max":786,"o":"m 497 1063 l 433 1063 l 224 1279 l 294 1279 l 465 1126 l 636 1279 l 707 1279 l 497 1063 m 465 -17 q 143 354 143 -17 l 143 972 l 217 972 l 217 356 q 465 51 217 51 q 713 356 713 51 l 713 972 l 786 972 l 786 354 q 465 -17 786 -17 z "},"ǔ":{"ha":772,"x_min":128,"x_max":639,"o":"m 408 800 l 344 800 l 135 1017 l 206 1017 l 376 864 l 547 1017 l 618 1017 l 408 800 m 565 0 l 565 94 q 372 -17 501 -17 q 188 58 247 -17 q 128 296 128 133 l 128 710 l 201 710 l 201 271 q 374 50 201 50 q 565 286 565 50 l 565 710 l 639 710 l 639 0 l 565 0 z "},"Ǽ":{"ha":1186,"x_min":-10,"x_max":1079,"o":"m 554 1063 l 757 1279 l 869 1279 l 629 1063 l 554 1063 m -10 0 l 554 972 l 1049 972 l 1049 903 l 651 903 l 651 538 l 914 538 l 914 469 l 651 469 l 651 69 l 1079 69 l 1079 0 l 578 0 l 578 263 l 225 263 l 75 0 l -10 0 m 260 326 l 578 326 l 578 888 q 539 818 576 885 l 260 326 z "},"ǽ":{"ha":1182,"x_min":93,"x_max":1107,"o":"m 497 800 l 700 1017 l 813 1017 l 572 800 l 497 800 m 326 -17 q 156 44 219 -17 q 93 219 93 106 q 164 390 93 332 q 343 449 235 449 q 543 390 443 449 l 543 472 q 379 661 543 661 q 167 589 279 661 l 144 653 q 386 726 267 726 q 522 692 464 726 q 597 581 579 657 q 697 690 633 653 q 838 726 760 726 q 1034 636 961 726 q 1107 369 1107 546 q 1106 328 1107 346 l 621 328 q 688 123 631 192 q 842 54 744 54 q 1006 111 931 54 l 1047 61 q 838 -17 954 -17 q 687 27 751 -17 q 588 143 622 71 q 466 23 538 63 q 326 -17 394 -17 m 619 394 l 1032 394 q 972 600 1031 540 q 839 660 914 660 q 685 594 744 660 q 619 394 626 529 m 332 49 q 462 93 401 49 q 563 206 522 138 q 543 319 547 256 q 349 383 447 383 q 218 342 271 383 q 165 219 165 300 q 210 95 165 142 q 332 49 254 49 z "},"Ǿ":{"ha":997,"x_min":108,"x_max":890,"o":"m 388 1063 l 590 1279 l 703 1279 l 463 1063 l 388 1063 m 124 -17 l 214 118 q 108 486 108 256 q 121 631 108 561 q 163 767 133 700 q 236 882 192 833 q 348 960 281 931 q 499 989 415 989 q 736 904 640 989 l 794 989 l 874 989 l 785 854 q 890 486 890 717 q 878 342 890 411 q 835 206 865 272 q 762 90 806 139 q 650 13 718 42 q 499 -17 582 -17 q 260 69 356 -17 l 203 -17 l 124 -17 m 257 183 l 697 843 q 499 921 617 921 q 352 882 415 921 q 254 778 289 843 q 202 640 219 714 q 185 486 185 567 q 257 183 185 297 m 499 53 q 645 92 582 53 q 744 195 708 131 q 796 333 779 260 q 813 486 813 406 q 740 789 813 675 l 300 129 q 499 53 376 53 z "},"ǿ":{"ha":756,"x_min":82,"x_max":674,"o":"m 589 1017 l 349 800 l 274 800 l 476 1017 l 589 1017 m 674 726 l 599 618 q 671 356 671 519 q 591 83 671 182 q 378 -17 511 -17 q 200 46 271 -17 l 157 -17 l 82 -17 l 157 92 q 86 354 86 192 q 165 627 86 528 q 378 726 244 726 q 556 665 483 726 l 599 726 l 674 726 m 164 354 q 203 158 164 236 l 515 606 q 378 658 463 658 q 219 581 274 658 q 164 354 164 503 m 593 356 q 553 553 593 476 l 242 106 q 378 53 294 53 q 537 133 481 53 q 593 356 593 213 z "},"Ș":{"ha":815,"x_min":97,"x_max":707,"o":"m 413 -17 q 216 41 300 -17 q 97 185 132 99 l 169 210 q 267 94 203 138 q 414 51 331 51 q 572 102 514 51 q 631 246 631 153 q 404 488 631 403 q 303 532 344 511 q 217 586 261 553 q 149 666 172 619 q 126 769 126 713 q 200 926 126 864 q 401 989 274 989 q 569 946 499 989 q 663 832 640 903 l 593 810 q 397 921 543 921 q 254 881 306 921 q 203 769 203 840 q 221 697 203 729 q 276 638 239 664 q 347 597 314 613 q 435 558 379 581 q 532 513 490 536 q 617 452 574 489 q 683 363 660 415 q 707 247 707 311 q 626 53 707 124 q 413 -17 544 -17 m 365 -335 q 415 -197 411 -276 q 372 -181 388 -197 q 356 -139 356 -164 q 372 -97 356 -114 q 411 -81 389 -81 q 454 -100 436 -81 q 472 -154 472 -119 q 448 -260 472 -210 q 385 -340 424 -311 l 365 -335 z "},"ș":{"ha":639,"x_min":93,"x_max":553,"o":"m 326 -17 q 93 99 193 -17 l 146 146 q 331 50 228 50 q 440 81 399 50 q 481 169 481 111 q 432 269 481 232 q 296 342 383 307 q 144 426 196 381 q 93 549 93 471 q 153 677 93 628 q 311 726 213 726 q 529 629 442 726 l 478 586 q 310 660 401 660 q 203 630 242 660 q 164 550 164 600 q 176 499 164 521 q 217 458 188 476 q 266 430 247 439 q 332 401 285 421 q 417 365 386 381 q 483 324 447 350 q 536 260 519 297 q 553 172 553 222 q 492 35 553 86 q 326 -17 432 -17 m 279 -335 q 329 -197 325 -276 q 285 -181 301 -197 q 269 -139 269 -164 q 286 -97 269 -114 q 325 -81 303 -81 q 368 -100 350 -81 q 386 -154 386 -119 q 362 -260 386 -210 q 299 -340 338 -311 l 279 -335 z "},"Ț":{"ha":786,"x_min":89,"x_max":697,"o":"m 429 903 l 429 0 l 356 0 l 356 903 l 89 903 l 89 972 l 697 972 l 697 903 l 429 903 m 349 -335 q 399 -197 394 -276 q 355 -181 371 -197 q 339 -139 339 -164 q 356 -97 339 -114 q 394 -81 372 -81 q 438 -100 419 -81 q 456 -154 456 -119 q 431 -260 456 -210 q 368 -340 407 -311 l 349 -335 z "},"ț":{"ha":507,"x_min":51,"x_max":432,"o":"m 307 -17 q 172 146 172 -17 l 172 643 l 51 643 l 51 710 l 172 710 l 172 967 l 246 1003 l 246 710 l 426 710 l 426 643 l 246 643 l 246 169 q 262 83 246 113 q 326 54 278 54 q 432 92 375 54 l 424 14 q 307 -17 374 -17 m 250 -335 q 300 -197 296 -276 q 256 -181 272 -197 q 240 -139 240 -164 q 257 -97 240 -114 q 296 -81 274 -81 q 339 -100 321 -81 q 357 -154 357 -119 q 333 -260 357 -210 q 269 -340 308 -311 l 250 -335 z "},"ȷ":{"ha":347,"x_min":-33,"x_max":213,"o":"m 1 -296 l -33 -236 q 99 -190 60 -228 q 139 -78 139 -151 l 139 710 l 213 710 l 213 -57 q 165 -221 213 -162 q 1 -296 113 -289 z "},"ˆ":{"ha":463,"x_min":-10,"x_max":474,"o":"m 403 800 l 232 954 l 61 800 l -10 800 l 200 1017 l 264 1017 l 474 800 l 403 800 z "},"ˇ":{"ha":463,"x_min":-8,"x_max":475,"o":"m 265 800 l 201 800 l -8 1017 l 63 1017 l 233 864 l 404 1017 l 475 1017 l 265 800 z "},"ˉ":{"ha":463,"x_min":1,"x_max":460,"o":"m 1 856 l 1 921 l 460 921 l 460 856 l 1 856 z "},"˘":{"ha":463,"x_min":-11,"x_max":474,"o":"m 232 807 q 50 869 111 807 q -11 1031 -11 932 l 61 1031 q 109 915 61 956 q 232 874 157 874 q 355 915 307 874 q 403 1031 403 956 l 474 1031 q 413 869 474 932 q 232 807 351 807 z "},"˙":{"ha":463,"x_min":178,"x_max":283,"o":"m 268 857 q 260 849 268 857 q 231 842 253 842 q 193 857 208 842 q 178 894 178 872 q 193 933 178 917 q 231 949 208 949 q 268 933 253 949 q 283 894 283 918 q 268 857 283 872 z "},"˚":{"ha":463,"x_min":74,"x_max":393,"o":"m 346 797 q 322 773 346 797 q 233 750 299 750 q 121 797 168 750 q 74 907 74 843 q 121 1017 74 971 q 233 1063 168 1063 q 346 1017 299 1063 q 393 907 393 971 q 346 797 393 843 m 233 808 q 301 837 274 808 q 329 907 329 865 q 301 978 329 950 q 233 1006 274 1006 q 167 978 194 1006 q 139 907 139 950 q 167 837 139 865 q 233 808 194 808 z "},"˛":{"ha":463,"x_min":96,"x_max":368,"o":"m 238 -325 q 137 -290 178 -325 q 96 -189 96 -256 q 147 -69 96 -124 q 285 14 197 -15 l 346 14 q 161 -183 161 -62 q 185 -249 161 -226 q 242 -271 208 -271 q 325 -232 286 -271 l 368 -264 q 238 -325 315 -325 z "},"˜":{"ha":463,"x_min":-3,"x_max":465,"o":"m 342 836 q 219 882 292 836 q 113 928 146 928 q 64 905 83 928 q 43 842 44 882 l -3 842 q 28 954 -3 914 q 122 994 60 994 q 245 949 172 994 q 351 903 318 903 q 400 926 381 903 q 421 989 419 949 l 465 989 q 434 876 465 917 q 342 836 403 836 z "},"˝":{"ha":463,"x_min":78,"x_max":668,"o":"m 153 800 l 78 800 l 281 1017 l 393 1017 l 153 800 m 428 800 l 353 800 l 556 1017 l 668 1017 l 428 800 z "},"̒":{"ha":0,"x_min":-289,"x_max":-172,"o":"m -229 838 q -272 857 -254 838 q -289 911 -289 876 q -265 1018 -289 968 q -201 1097 -242 1068 l -183 1092 q -232 954 -228 1031 q -188 938 -204 954 q -172 896 -172 921 q -190 854 -172 871 q -229 838 -207 838 z "},"̦":{"ha":0,"x_min":-283,"x_max":-167,"o":"m -274 -335 q -224 -197 -228 -276 q -267 -181 -251 -197 q -283 -139 -283 -164 q -267 -97 -283 -114 q -228 -81 -250 -81 q -185 -100 -203 -81 q -167 -154 -167 -119 q -191 -260 -167 -210 q -254 -340 -215 -311 l -274 -335 z "},"Ω":{"ha":1022,"x_min":117,"x_max":904,"o":"m 607 0 l 607 79 q 814 542 814 272 q 804 650 814 597 q 772 753 794 703 q 715 840 749 803 q 628 899 681 876 q 510 921 575 921 q 333 862 404 921 q 233 720 261 803 q 206 540 206 638 q 414 79 206 271 l 414 0 l 117 0 l 117 69 l 357 69 q 128 542 128 228 q 149 700 128 624 q 213 843 169 776 q 332 949 256 910 q 510 989 408 989 q 688 949 611 989 q 808 843 765 910 q 872 701 851 776 q 892 542 892 625 q 664 69 892 228 l 904 69 l 904 0 l 607 0 z "},"μ":{"ha":776,"x_min":131,"x_max":642,"o":"m 568 0 l 568 96 q 367 -17 492 -17 q 204 69 257 -17 l 204 -242 l 131 -278 l 131 710 l 204 710 l 204 271 q 249 97 204 143 q 378 50 294 50 q 568 286 568 50 l 568 710 l 642 710 l 642 0 l 568 0 z "},"π":{"ha":918,"x_min":78,"x_max":831,"o":"m 704 -17 q 569 146 569 -17 l 569 633 l 314 633 l 314 490 q 276 158 314 283 q 140 -28 239 33 l 78 21 q 141 73 115 46 q 192 148 167 100 q 229 273 217 196 q 242 456 242 350 l 242 633 l 106 633 l 106 710 l 824 710 l 824 633 l 643 633 l 643 171 q 660 84 643 114 q 725 54 676 54 q 831 92 778 54 l 822 14 q 704 -17 769 -17 z "},"Ẁ":{"ha":1153,"x_min":82,"x_max":1071,"o":"m 610 1063 l 369 1279 l 482 1279 l 685 1063 l 610 1063 m 294 0 l 82 972 l 161 972 l 314 250 q 331 165 328 181 q 351 247 338 194 l 544 972 l 601 972 l 793 247 q 813 174 794 244 q 829 250 815 188 l 993 972 l 1071 972 l 847 0 l 796 0 l 604 699 q 572 818 603 703 q 556 753 567 794 q 542 699 544 711 l 349 0 l 294 0 z "},"ẁ":{"ha":974,"x_min":65,"x_max":910,"o":"m 521 800 l 281 1017 l 393 1017 l 596 800 l 521 800 m 243 0 l 65 710 l 139 710 l 265 181 l 282 107 q 303 181 289 133 l 461 710 l 513 710 l 672 181 l 694 103 q 711 181 700 131 l 836 710 l 910 710 l 732 0 l 669 0 l 517 476 l 486 572 q 457 476 479 549 l 306 0 l 243 0 z "},"Ẃ":{"ha":1153,"x_min":82,"x_max":1071,"o":"m 464 1063 l 667 1279 l 779 1279 l 539 1063 l 464 1063 m 294 0 l 82 972 l 161 972 l 314 250 q 331 165 328 181 q 351 247 338 194 l 544 972 l 601 972 l 793 247 q 813 174 794 244 q 829 250 815 188 l 993 972 l 1071 972 l 847 0 l 796 0 l 604 699 q 572 818 603 703 q 556 753 567 794 q 542 699 544 711 l 349 0 l 294 0 z "},"ẃ":{"ha":974,"x_min":65,"x_max":910,"o":"m 375 800 l 578 1017 l 690 1017 l 450 800 l 375 800 m 243 0 l 65 710 l 139 710 l 265 181 l 282 107 q 303 181 289 133 l 461 710 l 513 710 l 672 181 l 694 103 q 711 181 700 131 l 836 710 l 910 710 l 732 0 l 669 0 l 517 476 l 486 572 q 457 476 479 549 l 306 0 l 243 0 z "},"Ẅ":{"ha":1153,"x_min":82,"x_max":1071,"o":"m 499 1119 q 491 1112 499 1119 q 461 1104 483 1104 q 424 1119 439 1104 q 408 1157 408 1135 q 424 1195 408 1179 q 461 1211 439 1211 q 499 1196 483 1211 q 514 1157 514 1181 q 499 1119 514 1135 m 729 1119 q 722 1112 729 1119 q 692 1104 714 1104 q 654 1119 669 1104 q 639 1157 639 1135 q 654 1195 639 1179 q 692 1211 669 1211 q 729 1196 714 1211 q 744 1157 744 1181 q 729 1119 744 1135 m 294 0 l 82 972 l 161 972 l 314 250 q 331 165 328 181 q 351 247 338 194 l 544 972 l 601 972 l 793 247 q 813 174 794 244 q 829 250 815 188 l 993 972 l 1071 972 l 847 0 l 796 0 l 604 699 q 572 818 603 703 q 556 753 567 794 q 542 699 544 711 l 349 0 l 294 0 z "},"ẅ":{"ha":974,"x_min":65,"x_max":910,"o":"m 410 857 q 402 849 410 857 q 372 842 394 842 q 335 857 350 842 q 319 894 319 872 q 335 933 319 917 q 372 949 350 949 q 410 933 394 949 q 425 894 425 918 q 410 857 425 872 m 640 857 q 633 849 640 857 q 603 842 625 842 q 565 857 581 842 q 550 894 550 872 q 565 933 550 917 q 603 949 581 949 q 640 933 625 949 q 656 894 656 918 q 640 857 656 872 m 243 0 l 65 710 l 139 710 l 265 181 l 282 107 q 303 181 289 133 l 461 710 l 513 710 l 672 181 l 694 103 q 711 181 700 131 l 836 710 l 910 710 l 732 0 l 669 0 l 517 476 l 486 572 q 457 476 479 549 l 306 0 l 243 0 z "},"Ỳ":{"ha":844,"x_min":69,"x_max":776,"o":"m 438 1063 l 197 1279 l 310 1279 l 513 1063 l 438 1063 m 386 0 l 386 383 l 69 972 l 150 972 l 422 454 l 699 972 l 776 972 l 460 386 l 460 0 l 386 0 z "},"ỳ":{"ha":717,"x_min":65,"x_max":651,"o":"m 390 800 l 150 1017 l 263 1017 l 465 800 l 390 800 m 217 -269 l 322 19 l 65 710 l 139 710 l 332 178 q 344 143 336 167 q 356 107 351 119 l 381 178 l 575 710 l 651 710 l 290 -269 l 217 -269 z "},"–":{"ha":726,"x_min":94,"x_max":633,"o":"m 94 365 l 94 432 l 633 432 l 633 365 l 94 365 z "},"—":{"ha":838,"x_min":13,"x_max":825,"o":"m 13 365 l 13 432 l 825 432 l 825 365 l 13 365 z "},"―":{"ha":838,"x_min":13,"x_max":825,"o":"m 13 365 l 13 432 l 825 432 l 825 365 l 13 365 z "},"‘":{"ha":297,"x_min":78,"x_max":213,"o":"m 150 686 q 99 708 119 686 q 78 776 78 731 q 106 901 78 843 q 178 989 135 958 l 197 983 q 140 817 140 914 q 192 799 172 817 q 213 753 213 781 q 194 705 213 724 q 150 686 176 686 z "},"’":{"ha":297,"x_min":85,"x_max":221,"o":"m 101 692 q 158 858 158 761 q 106 876 126 858 q 85 922 85 894 q 103 970 85 951 q 147 989 121 989 q 199 967 178 989 q 221 899 221 944 q 192 775 221 833 q 121 686 163 717 l 101 692 z "},"‚":{"ha":297,"x_min":85,"x_max":221,"o":"m 101 -190 q 158 -24 158 -121 q 106 -6 128 -24 q 85 40 85 13 q 103 90 85 71 q 147 108 121 108 q 199 85 178 108 q 221 18 221 63 q 192 -107 221 -49 q 121 -196 163 -165 l 101 -190 z "},"‛":{"ha":297,"x_min":78,"x_max":213,"o":"m 178 686 q 106 774 135 717 q 78 899 78 832 q 99 967 78 944 q 150 989 119 989 q 194 970 176 989 q 213 922 213 951 q 192 876 213 894 q 140 858 172 858 q 197 692 140 761 l 178 686 z "},"“":{"ha":556,"x_min":78,"x_max":471,"o":"m 150 686 q 99 708 119 686 q 78 776 78 731 q 106 901 78 843 q 178 989 135 958 l 197 983 q 140 817 140 914 q 192 799 172 817 q 213 753 213 781 q 194 705 213 724 q 150 686 176 686 m 408 686 q 357 708 378 686 q 336 776 336 731 q 365 901 336 843 q 436 989 393 958 l 456 983 q 399 817 399 914 q 451 799 431 817 q 471 753 471 781 q 453 705 471 724 q 408 686 435 686 z "},"”":{"ha":556,"x_min":85,"x_max":479,"o":"m 101 692 q 158 858 158 761 q 106 876 126 858 q 85 922 85 894 q 103 970 85 951 q 147 989 121 989 q 199 967 178 989 q 221 899 221 944 q 192 775 221 833 q 121 686 163 717 l 101 692 m 360 692 q 417 858 417 761 q 364 876 385 858 q 343 922 343 894 q 361 970 343 951 q 406 989 379 989 q 458 967 436 989 q 479 899 479 944 q 450 775 479 833 q 379 686 421 717 l 360 692 z "},"„":{"ha":556,"x_min":85,"x_max":479,"o":"m 101 -190 q 158 -24 158 -121 q 106 -6 128 -24 q 85 40 85 13 q 103 90 85 71 q 147 108 121 108 q 199 85 178 108 q 221 18 221 63 q 192 -107 221 -49 q 121 -196 163 -165 l 101 -190 m 360 -190 q 417 -24 417 -121 q 365 -6 386 -24 q 343 40 343 13 q 361 90 343 71 q 406 108 379 108 q 458 85 436 108 q 479 18 479 63 q 450 -107 479 -49 q 379 -196 421 -165 l 360 -190 z "},"†":{"ha":775,"x_min":121,"x_max":656,"o":"m 410 640 l 425 469 l 393 -196 l 385 -196 l 350 469 l 363 640 l 169 621 l 121 621 l 121 692 l 169 692 l 361 671 l 350 815 l 350 989 l 425 989 l 425 815 l 413 671 l 606 692 l 656 692 l 656 621 l 606 621 l 410 640 z "},"‡":{"ha":775,"x_min":121,"x_max":656,"o":"m 656 101 l 606 101 l 413 122 l 425 -22 l 425 -196 l 350 -196 l 350 -22 l 361 122 l 169 101 l 121 101 l 121 174 l 169 174 l 363 153 l 350 324 l 350 469 l 363 640 l 169 621 l 121 621 l 121 692 l 169 692 l 361 671 l 350 815 l 350 989 l 425 989 l 425 815 l 413 671 l 606 692 l 656 692 l 656 621 l 606 621 l 410 640 l 425 469 l 425 324 l 410 153 l 606 174 l 656 174 l 656 101 z "},"•":{"ha":575,"x_min":135,"x_max":442,"o":"m 397 382 q 375 360 397 382 q 288 339 353 339 q 178 382 222 339 q 135 488 135 425 q 178 594 135 550 q 288 638 222 638 q 397 593 351 638 q 442 488 442 549 q 397 382 442 425 z "},"…":{"ha":1226,"x_min":153,"x_max":1072,"o":"m 262 1 q 252 -8 262 1 q 217 -18 243 -18 q 172 1 190 -18 q 153 46 153 21 q 172 92 153 72 q 217 111 190 111 q 262 92 243 111 q 281 46 281 72 q 262 1 281 21 m 658 1 q 648 -8 658 1 q 613 -18 639 -18 q 567 1 586 -18 q 549 46 549 21 q 567 92 549 72 q 613 111 586 111 q 658 92 639 111 q 676 46 676 72 q 658 1 676 21 m 1053 1 q 1044 -8 1053 1 q 1008 -18 1035 -18 q 963 1 982 -18 q 944 46 944 21 q 963 92 944 72 q 1008 111 982 111 q 1053 92 1035 111 q 1072 46 1072 72 q 1053 1 1072 21 z "},"‰":{"ha":1763,"x_min":89,"x_max":1681,"o":"m 303 494 q 142 568 194 494 q 89 742 89 642 q 142 913 89 836 q 303 989 194 989 q 465 915 413 989 q 518 742 518 840 q 465 569 518 643 q 303 494 413 494 m 324 -17 l 244 -17 l 908 989 l 988 989 l 324 -17 m 196 612 q 214 586 196 612 q 303 560 232 560 q 410 613 374 560 q 446 742 446 665 q 410 871 446 818 q 303 924 374 924 q 196 869 232 924 q 160 742 160 815 q 196 612 160 664 m 1090 58 q 1064 20 1090 58 q 929 -17 1038 -17 q 767 57 821 -17 q 714 231 714 131 q 767 401 714 325 q 929 478 821 478 q 1090 403 1038 478 q 1143 231 1143 329 q 1090 58 1143 132 m 1628 58 q 1601 20 1628 58 q 1467 -17 1575 -17 q 1305 57 1358 -17 q 1251 231 1251 131 q 1305 401 1251 325 q 1467 478 1358 478 q 1628 403 1575 478 q 1681 231 1681 329 q 1628 58 1681 132 m 822 101 q 840 75 822 101 q 929 49 858 49 q 1036 102 1000 49 q 1072 231 1072 156 q 1036 360 1072 307 q 929 413 1000 413 q 822 359 857 413 q 786 231 786 306 q 822 101 786 153 m 1360 101 q 1378 75 1360 101 q 1467 49 1396 49 q 1574 102 1538 49 q 1610 231 1610 156 q 1574 360 1610 307 q 1467 413 1538 413 q 1359 359 1394 413 q 1324 231 1324 306 q 1360 101 1324 153 z "},"′":{"ha":282,"x_min":79,"x_max":204,"o":"m 79 590 l 107 1014 l 204 1014 l 142 590 l 79 590 z "},"″":{"ha":536,"x_min":79,"x_max":457,"o":"m 79 590 l 107 1014 l 204 1014 l 142 590 l 79 590 m 332 590 l 360 1014 l 457 1014 l 396 590 l 332 590 z "},"‹":{"ha":407,"x_min":67,"x_max":361,"o":"m 278 0 l 67 356 l 278 710 l 361 710 l 150 356 l 361 0 l 278 0 z "},"›":{"ha":407,"x_min":46,"x_max":340,"o":"m 46 0 l 257 356 l 46 710 l 129 710 l 340 356 l 129 0 l 46 0 z "},"⁄":{"ha":449,"x_min":-147,"x_max":596,"o":"m -147 -17 l 518 989 l 596 989 l -69 -17 l -147 -17 z "},"ⁿ":{"ha":635,"x_min":115,"x_max":528,"o":"m 453 393 l 453 726 q 422 876 453 832 q 328 921 390 921 q 228 875 265 921 q 190 732 190 829 l 190 393 l 115 393 l 115 975 l 190 975 l 190 890 q 346 989 242 989 q 483 926 439 989 q 528 718 528 863 l 528 393 l 453 393 z "},"₤":{"ha":815,"x_min":135,"x_max":761,"o":"m 135 0 l 135 74 q 271 340 264 179 l 135 340 l 135 403 l 271 403 q 243 511 269 450 l 135 511 l 135 574 l 218 574 q 182 726 182 664 q 259 913 182 836 q 481 989 336 989 q 740 907 638 989 l 711 840 q 481 918 614 918 q 317 861 372 918 q 261 726 261 804 q 301 574 261 664 l 564 574 l 564 511 l 328 511 q 350 403 349 453 l 564 403 l 564 340 l 347 340 q 204 68 335 182 l 761 68 l 761 0 l 135 0 z "},"€":{"ha":829,"x_min":72,"x_max":765,"o":"m 504 -17 q 271 79 353 -17 q 165 331 189 175 l 72 331 l 100 394 l 157 394 q 154 478 154 422 q 158 560 154 518 l 72 560 l 100 622 l 167 622 q 280 885 193 781 q 518 989 367 989 q 735 929 643 989 l 706 861 q 517 919 626 919 q 333 836 399 919 q 246 622 268 753 l 607 622 l 581 560 l 238 560 q 233 467 233 511 q 238 394 233 431 l 511 394 l 486 331 l 246 331 q 331 132 268 210 q 503 54 393 54 q 706 151 628 54 l 765 113 q 504 -17 672 -17 z "},"℅":{"ha":1372,"x_min":85,"x_max":1288,"o":"m 315 378 q 146 459 207 378 q 85 683 85 540 q 147 908 85 826 q 318 989 210 989 q 513 864 457 989 l 440 836 q 313 918 404 918 q 201 857 240 918 q 161 683 161 796 q 201 510 161 571 q 314 449 240 449 q 447 540 410 449 l 515 514 q 440 415 492 451 q 315 378 389 378 m 289 -17 l 953 989 l 1033 989 l 369 -17 l 289 -17 m 1033 -17 q 849 64 917 -17 q 781 289 781 144 q 849 513 781 432 q 1033 594 918 594 q 1219 513 1151 594 q 1288 289 1288 432 q 1219 64 1288 144 q 1033 -17 1151 -17 m 1033 54 q 1165 116 1118 54 q 1213 289 1213 178 q 1166 463 1213 401 q 1033 524 1119 524 q 904 462 951 524 q 857 289 857 400 q 905 117 857 179 q 1033 54 953 54 z "},"ℓ":{"ha":626,"x_min":110,"x_max":532,"o":"m 349 -17 q 219 135 219 -17 l 219 365 q 169 337 203 354 q 133 318 135 319 l 110 374 q 219 435 169 397 l 219 733 q 379 989 219 989 q 488 938 443 989 q 532 790 532 886 q 510 657 532 719 q 444 544 488 594 q 372 467 401 494 q 294 404 342 440 l 294 167 q 315 76 294 101 q 374 51 336 51 q 476 100 428 51 l 496 54 q 349 -17 433 -17 m 378 919 q 315 876 335 919 q 294 717 294 833 l 294 479 q 457 775 457 610 q 437 879 457 839 q 378 919 417 919 z "},"№":{"ha":1635,"x_min":150,"x_max":1506,"o":"m 1251 378 q 1067 458 1135 378 q 999 683 999 539 q 1067 908 999 826 q 1251 989 1136 989 q 1438 908 1369 989 q 1506 683 1506 826 q 1438 458 1506 539 q 1251 378 1369 378 m 814 0 l 740 0 l 264 768 q 224 836 228 828 l 224 768 l 224 0 l 150 0 l 150 972 l 224 972 l 699 201 q 740 132 713 179 l 740 201 l 740 972 l 814 972 l 814 0 m 1251 449 q 1383 510 1336 449 q 1431 683 1431 572 q 1384 857 1431 796 q 1251 918 1338 918 q 1122 856 1169 918 q 1075 683 1075 794 q 1123 511 1075 574 q 1251 449 1171 449 m 1017 188 l 1017 251 l 1489 251 l 1489 188 l 1017 188 z "},"™":{"ha":1089,"x_min":51,"x_max":969,"o":"m 214 386 l 214 913 l 51 913 l 51 972 l 440 972 l 440 913 l 278 913 l 278 386 l 214 386 m 969 386 l 906 386 l 906 765 l 882 713 l 738 374 l 590 713 l 568 767 l 568 386 l 504 386 l 504 972 l 550 972 l 719 571 l 736 532 l 753 571 l 922 972 l 969 972 l 969 386 z "},"Ω":{"ha":1022,"x_min":117,"x_max":904,"o":"m 607 0 l 607 79 q 814 542 814 272 q 804 650 814 597 q 772 753 794 703 q 715 840 749 803 q 628 899 681 876 q 510 921 575 921 q 333 862 404 921 q 233 720 261 803 q 206 540 206 638 q 414 79 206 271 l 414 0 l 117 0 l 117 69 l 357 69 q 128 542 128 228 q 149 700 128 624 q 213 843 169 776 q 332 949 256 910 q 510 989 408 989 q 688 949 611 989 q 808 843 765 910 q 872 701 851 776 q 892 542 892 625 q 664 69 892 228 l 904 69 l 904 0 l 607 0 z "},"℮":{"ha":1125,"x_min":90,"x_max":1035,"o":"m 569 -17 q 229 122 368 -17 q 90 486 90 261 q 131 708 90 610 q 239 868 171 807 q 393 961 307 929 q 574 993 479 993 q 744 960 664 993 q 888 866 824 928 q 990 706 951 804 q 1035 486 1029 608 l 300 486 l 300 160 q 417 80 346 110 q 569 50 489 50 q 919 251 788 50 l 976 217 q 805 42 900 101 q 569 -17 710 -17 m 300 551 l 832 553 l 832 821 q 720 897 789 867 q 572 926 651 926 q 300 829 404 926 l 300 551 z "},"⅓":{"ha":994,"x_min":28,"x_max":936,"o":"m 28 -17 l 692 989 l 769 989 l 106 -17 l 28 -17 m 121 393 l 121 850 l 50 850 l 50 896 q 144 979 128 897 l 190 979 l 190 393 l 121 393 m 742 -17 q 539 119 597 -17 l 601 144 q 742 43 646 43 q 832 73 799 43 q 865 154 865 103 q 835 236 865 203 q 756 269 806 269 l 710 269 l 710 329 l 740 329 q 815 360 788 329 q 842 436 842 392 q 815 508 842 479 q 739 536 789 536 q 615 447 656 536 l 554 469 q 628 562 579 528 q 742 596 678 596 q 865 554 818 596 q 913 440 913 513 q 890 362 913 399 q 829 308 868 325 q 907 256 878 294 q 936 160 936 217 q 881 31 936 79 q 742 -17 826 -17 z "},"⅔":{"ha":1213,"x_min":61,"x_max":1154,"o":"m 61 393 q 74 485 61 444 q 119 559 88 525 q 178 613 151 593 q 256 667 204 633 q 336 735 311 701 q 361 822 361 769 q 332 897 361 864 q 246 929 303 929 q 119 828 146 929 l 61 851 q 126 951 76 913 q 251 989 175 989 q 381 943 331 989 q 431 819 431 897 q 394 700 431 747 q 276 604 358 653 q 181 533 213 565 q 136 460 149 500 l 429 460 l 429 393 l 61 393 m 246 -17 l 910 989 l 988 989 l 324 -17 l 246 -17 m 960 -17 q 757 119 815 -17 l 819 144 q 960 43 864 43 q 1050 73 1017 43 q 1083 154 1083 103 q 1053 236 1083 203 q 974 269 1024 269 l 928 269 l 928 329 l 958 329 q 1033 360 1006 329 q 1060 436 1060 392 q 1033 508 1060 479 q 957 536 1007 536 q 833 447 874 536 l 772 469 q 847 562 797 528 q 960 596 896 596 q 1083 554 1036 596 q 1131 440 1131 513 q 1108 362 1131 399 q 1047 308 1086 325 q 1125 256 1096 294 q 1154 160 1154 217 q 1099 31 1154 79 q 960 -17 1044 -17 z "},"⅛":{"ha":983,"x_min":28,"x_max":911,"o":"m 28 -17 l 692 989 l 769 989 l 106 -17 l 28 -17 m 121 393 l 121 850 l 50 850 l 50 896 q 144 979 128 897 l 190 979 l 190 393 l 121 393 m 858 33 q 832 8 858 33 q 722 -17 806 -17 q 587 33 639 -17 q 535 161 535 83 q 638 322 535 281 q 583 369 604 336 q 561 442 561 401 q 607 553 561 510 q 722 596 653 596 q 838 553 792 596 q 883 442 883 510 q 862 369 883 403 q 807 322 840 336 q 911 161 911 281 q 858 33 911 83 m 722 346 q 793 372 767 346 q 819 439 819 397 q 793 510 819 483 q 722 538 767 538 q 652 510 679 538 q 625 439 625 483 q 652 372 625 397 q 722 346 679 346 m 722 43 q 808 76 775 43 q 842 168 842 110 q 809 255 842 219 q 722 290 776 290 q 637 254 671 290 q 603 168 603 218 q 637 76 603 110 q 722 43 671 43 z "},"⅜":{"ha":1185,"x_min":51,"x_max":1111,"o":"m 254 376 q 51 513 110 376 l 114 538 q 254 436 158 436 q 344 466 311 436 q 378 547 378 496 q 348 629 378 596 q 268 663 318 663 l 222 663 l 222 722 l 253 722 q 327 753 300 722 q 354 829 354 785 q 328 901 354 872 q 251 929 301 929 q 128 840 168 929 l 67 863 q 141 955 92 921 q 254 989 190 989 q 378 947 331 989 q 425 833 425 906 q 403 755 425 792 q 342 701 381 718 q 419 649 390 688 q 449 553 449 610 q 394 424 449 472 q 254 376 339 376 m 226 -17 l 890 989 l 968 989 l 304 -17 l 226 -17 m 1058 33 q 1032 8 1058 33 q 922 -17 1006 -17 q 787 33 839 -17 q 735 161 735 83 q 838 322 735 281 q 783 369 804 336 q 761 442 761 401 q 807 553 761 510 q 922 596 853 596 q 1038 553 992 596 q 1083 442 1083 510 q 1062 369 1083 403 q 1007 322 1040 336 q 1111 161 1111 281 q 1058 33 1111 83 m 922 346 q 993 372 967 346 q 1019 439 1019 397 q 993 510 1019 483 q 922 538 967 538 q 852 510 879 538 q 825 439 825 483 q 852 372 825 397 q 922 346 879 346 m 922 43 q 1008 76 975 43 q 1042 168 1042 110 q 1009 255 1042 219 q 922 290 976 290 q 837 254 871 290 q 803 168 803 218 q 837 76 803 110 q 922 43 871 43 z "},"⅝":{"ha":1161,"x_min":50,"x_max":1088,"o":"m 204 -17 l 868 989 l 946 989 l 282 -17 l 204 -17 m 226 376 q 122 398 169 376 q 50 446 75 419 l 88 494 q 224 436 146 436 q 328 475 292 436 q 365 575 365 514 q 333 671 365 633 q 243 708 301 708 q 111 650 161 708 l 64 665 l 111 972 l 390 972 l 390 908 l 161 908 l 133 729 q 251 768 185 768 q 384 715 333 768 q 435 575 435 661 q 376 433 435 490 q 226 376 318 376 m 1035 33 q 1008 8 1035 33 q 899 -17 982 -17 q 763 33 815 -17 q 711 161 711 83 q 814 322 711 281 q 759 369 781 336 q 738 442 738 401 q 783 553 738 510 q 899 596 829 596 q 1014 553 968 596 q 1060 442 1060 510 q 1038 369 1060 403 q 983 322 1017 336 q 1088 161 1088 281 q 1035 33 1088 83 m 899 346 q 969 372 943 346 q 996 439 996 397 q 969 510 996 483 q 899 538 943 538 q 828 510 856 538 q 801 439 801 483 q 828 372 801 397 q 899 346 856 346 m 899 43 q 985 76 951 43 q 1018 168 1018 110 q 985 255 1018 219 q 899 290 953 290 q 813 254 847 290 q 779 168 779 218 q 813 76 779 110 q 899 43 847 43 z "},"⅞":{"ha":1035,"x_min":33,"x_max":963,"o":"m 76 -17 l 740 989 l 818 989 l 154 -17 l 76 -17 m 142 393 q 322 910 144 678 l 33 910 l 33 972 l 393 972 l 393 901 q 214 393 219 704 l 142 393 m 910 33 q 883 8 910 33 q 774 -17 857 -17 q 638 33 690 -17 q 586 161 586 83 q 689 322 586 281 q 634 369 656 336 q 613 442 613 401 q 658 553 613 510 q 774 596 704 596 q 889 553 843 596 q 935 442 935 510 q 913 369 935 403 q 858 322 892 336 q 963 161 963 281 q 910 33 963 83 m 774 346 q 844 372 818 346 q 871 439 871 397 q 844 510 871 483 q 774 538 818 538 q 703 510 731 538 q 676 439 676 483 q 703 372 676 397 q 774 346 731 346 m 774 43 q 860 76 826 43 q 893 168 893 110 q 860 255 893 219 q 774 290 828 290 q 688 254 722 290 q 654 168 654 218 q 688 76 654 110 q 774 43 722 43 z "},"←":{"ha":1125,"x_min":69,"x_max":1042,"o":"m 363 293 q 338 304 356 293 l 88 474 q 69 500 69 488 q 88 526 69 515 l 338 697 q 363 708 356 708 q 379 693 379 708 q 371 664 379 686 l 325 531 l 1042 544 l 1042 456 l 325 469 l 371 338 q 379 308 379 313 q 363 293 379 293 z "},"↑":{"ha":558,"x_min":72,"x_max":486,"o":"m 236 0 l 249 715 l 110 667 q 90 663 100 663 q 72 682 72 663 q 81 701 72 689 l 254 957 q 279 972 265 972 q 304 957 293 972 l 478 701 q 486 682 486 689 q 468 663 486 663 q 449 667 458 663 l 310 715 l 324 0 l 236 0 z "},"→":{"ha":1125,"x_min":83,"x_max":1056,"o":"m 764 293 q 747 308 747 293 q 756 338 747 313 l 801 469 l 83 456 l 83 544 l 801 531 l 756 664 q 747 693 747 686 q 764 708 747 708 q 789 697 769 708 l 1038 526 q 1056 500 1056 517 q 1038 474 1056 486 l 789 304 q 764 293 769 293 z "},"↓":{"ha":563,"x_min":74,"x_max":489,"o":"m 282 0 q 260 13 268 0 l 79 279 q 74 293 74 285 q 93 311 74 311 q 103 310 100 311 l 250 258 l 239 974 l 325 974 l 313 258 l 460 310 q 469 311 463 311 q 489 293 489 311 q 483 279 489 285 l 303 13 q 282 0 294 0 z "},"↔":{"ha":1182,"x_min":69,"x_max":1113,"o":"m 819 293 q 803 308 803 293 q 811 338 803 313 l 856 465 l 326 465 l 371 338 q 379 308 379 313 q 363 293 379 293 q 338 304 356 293 l 88 474 q 69 500 69 488 q 88 526 69 515 l 338 697 q 363 708 356 708 q 379 693 379 708 q 371 664 379 686 l 326 535 l 856 535 l 811 664 q 803 693 803 686 q 819 708 803 708 q 844 697 826 708 l 1094 526 q 1113 500 1113 515 q 1094 474 1113 488 l 844 304 q 819 293 826 293 z "},"↕":{"ha":563,"x_min":74,"x_max":489,"o":"m 281 -236 q 254 -218 267 -236 l 85 32 q 74 57 74 50 q 89 74 74 74 q 118 65 93 74 l 246 21 l 246 808 l 118 764 q 89 756 93 756 q 74 772 74 756 q 85 797 74 778 l 254 1046 q 281 1064 267 1064 q 307 1046 297 1064 l 478 797 q 489 772 489 778 q 474 756 489 756 q 444 764 467 756 l 315 808 l 315 21 l 444 65 q 474 74 467 74 q 489 57 489 74 q 478 32 489 50 l 307 -218 q 281 -236 297 -236 z "},"↖":{"ha":861,"x_min":90,"x_max":815,"o":"m 754 111 l 257 628 l 196 501 q 169 471 182 471 q 149 503 154 471 l 93 792 q 90 813 90 806 q 115 838 90 838 q 140 833 124 838 l 426 779 q 457 758 457 772 q 426 733 457 746 l 299 671 l 815 174 l 754 111 z "},"↗":{"ha":861,"x_min":46,"x_max":771,"o":"m 107 111 l 46 174 l 563 671 l 435 733 q 404 758 404 746 q 435 779 404 772 l 721 833 q 746 838 738 838 q 771 813 771 838 q 768 792 771 806 l 713 503 q 692 471 707 471 q 665 501 679 471 l 604 628 l 107 111 z "},"↘":{"ha":861,"x_min":46,"x_max":771,"o":"m 746 111 q 721 115 738 111 l 435 169 q 404 190 404 176 q 435 215 404 203 l 563 278 l 46 775 l 107 838 l 604 321 l 665 447 q 692 478 679 478 q 713 446 707 478 l 768 157 q 771 136 771 143 q 746 111 771 111 z "},"↙":{"ha":861,"x_min":90,"x_max":815,"o":"m 115 111 q 90 136 90 111 q 93 157 90 143 l 149 446 q 169 478 154 478 q 196 447 182 478 l 257 321 l 754 838 l 815 775 l 299 278 l 426 215 q 457 190 457 203 q 426 169 457 176 l 140 115 q 115 111 124 111 z "},"↳":{"ha":944,"x_min":138,"x_max":875,"o":"m 857 324 q 875 297 875 314 q 857 271 875 283 l 608 101 q 583 90 589 90 q 567 106 567 90 q 575 135 567 110 l 619 263 l 138 263 l 138 972 l 214 972 l 214 332 l 619 332 l 575 461 q 567 490 567 483 q 583 506 567 506 q 608 494 589 506 l 857 324 z "},"↴":{"ha":944,"x_min":138,"x_max":875,"o":"m 860 456 q 875 439 875 456 q 864 414 875 433 l 694 165 q 668 147 682 147 q 642 165 651 147 l 471 414 q 460 439 460 433 q 475 456 460 456 q 504 447 482 456 l 631 404 l 631 903 l 138 903 l 138 972 l 706 972 l 706 404 l 831 447 q 860 456 856 456 z "},"↵":{"ha":944,"x_min":69,"x_max":808,"o":"m 732 972 l 808 972 l 808 263 l 326 263 l 371 135 q 379 106 379 110 q 363 90 379 90 q 338 101 356 90 l 88 271 q 69 297 69 285 q 88 324 69 313 l 338 494 q 363 506 356 506 q 379 490 379 506 q 371 461 379 483 l 326 332 l 732 332 l 732 972 z "},"↶":{"ha":1072,"x_min":69,"x_max":929,"o":"m 337 888 q 385 939 337 888 q 585 989 433 989 q 833 888 736 989 q 929 618 929 788 l 929 0 l 854 0 l 854 618 q 778 840 854 760 q 585 921 703 921 q 390 841 465 921 q 315 618 315 761 l 315 564 l 442 607 q 471 615 464 615 q 486 599 486 615 q 474 574 486 592 l 304 325 q 278 307 294 307 q 251 325 264 307 l 82 574 q 69 599 69 592 q 85 615 69 615 q 114 607 92 615 l 240 564 l 240 618 q 337 888 240 788 z "},"↷":{"ha":1072,"x_min":143,"x_max":1003,"o":"m 988 615 q 1003 599 1003 615 q 992 574 1003 593 l 821 325 q 794 307 811 307 q 768 325 781 307 l 599 574 q 588 599 588 593 q 603 615 588 615 q 632 607 607 615 l 757 564 l 757 618 q 682 841 757 761 q 488 921 607 921 q 294 840 369 921 q 218 618 218 760 l 218 0 l 143 0 l 143 618 q 240 888 143 788 q 488 989 336 989 q 735 888 639 989 q 832 618 832 788 l 832 564 l 958 607 q 988 615 981 615 z "},"↸":{"ha":861,"x_min":90,"x_max":815,"o":"m 90 903 l 90 972 l 815 972 l 815 903 l 90 903 m 754 28 l 257 544 l 196 418 q 169 388 182 388 q 149 419 154 388 l 93 708 q 90 729 90 722 q 115 754 90 754 q 140 750 124 754 l 426 696 q 457 675 457 689 q 426 650 457 663 l 299 588 l 815 90 l 754 28 z "},"↹":{"ha":1110,"x_min":138,"x_max":972,"o":"m 600 536 q 575 547 593 536 l 325 717 q 307 743 307 731 q 325 769 307 758 l 575 940 q 600 951 593 951 q 617 936 617 951 q 608 907 617 929 l 563 774 l 972 788 l 972 699 l 563 713 l 608 581 q 617 551 617 556 q 600 536 617 536 m 138 550 l 138 938 l 218 938 l 218 550 l 138 550 m 510 -258 q 493 -243 493 -258 q 501 -214 493 -236 l 547 -81 l 138 -94 l 138 -7 l 547 -19 l 501 114 q 493 143 493 136 q 510 158 493 158 q 535 147 517 158 l 785 -24 q 803 -50 803 -37 q 785 -76 803 -65 l 535 -246 q 510 -258 518 -258 m 892 -244 l 892 151 l 972 151 l 972 -244 l 892 -244 z "},"↺":{"ha":1175,"x_min":139,"x_max":1065,"o":"m 1065 878 q 1035 853 1065 867 l 914 794 q 1036 486 1036 661 q 904 169 1036 300 q 588 38 772 38 q 271 169 403 38 q 139 486 139 300 q 271 803 139 671 l 324 750 q 214 486 214 636 q 324 223 214 333 q 588 113 435 113 q 851 223 742 113 q 961 486 961 333 q 861 740 961 631 l 803 621 q 776 590 789 590 q 756 622 761 590 l 701 911 q 699 932 699 925 q 724 957 699 957 q 749 953 732 957 l 1033 899 q 1065 878 1065 892 z "},"⇚":{"ha":1125,"x_min":69,"x_max":1042,"o":"m 1042 581 l 342 581 l 322 525 l 1042 525 l 1042 476 l 322 476 l 342 421 l 1042 421 l 1042 372 l 358 372 l 371 338 q 379 308 379 313 q 363 293 379 293 q 338 304 356 293 l 88 474 q 69 500 69 488 q 88 526 69 515 l 338 697 q 363 708 356 708 q 379 693 379 708 q 371 664 379 686 l 358 629 l 1042 629 l 1042 581 z "},"⇛":{"ha":1125,"x_min":83,"x_max":1056,"o":"m 1038 526 q 1056 500 1056 517 q 1038 474 1056 486 l 789 304 q 764 293 769 293 q 747 308 747 293 q 756 338 747 313 l 768 372 l 83 372 l 83 421 l 785 421 l 804 476 l 83 476 l 83 525 l 804 525 l 785 581 l 83 581 l 83 629 l 768 629 l 756 664 q 747 693 747 686 q 764 708 747 708 q 789 697 769 708 l 1038 526 z "},"⇜":{"ha":1125,"x_min":69,"x_max":1042,"o":"m 903 535 l 1042 535 l 1042 465 l 860 465 l 832 553 l 765 349 l 700 349 l 635 553 l 568 349 l 503 349 l 465 465 l 326 465 l 371 338 q 379 308 379 313 q 363 293 379 293 q 338 304 356 293 l 88 474 q 69 500 69 488 q 88 526 69 515 l 338 697 q 363 708 356 708 q 379 693 379 708 q 371 664 379 686 l 326 535 l 508 535 l 535 449 l 601 654 l 667 654 l 732 449 l 799 654 l 864 654 l 903 535 z "},"⇝":{"ha":1125,"x_min":83,"x_max":1056,"o":"m 1038 526 q 1056 500 1056 517 q 1038 474 1056 486 l 789 304 q 764 293 769 293 q 747 308 747 293 q 756 338 747 313 l 800 465 l 661 465 l 624 349 l 558 349 l 493 553 l 426 349 l 361 349 l 294 553 l 267 465 l 83 465 l 83 535 l 224 535 l 263 654 l 328 654 l 393 449 l 460 654 l 525 654 l 590 449 l 618 535 l 800 535 l 756 664 q 747 693 747 686 q 764 708 747 708 q 789 697 769 708 l 1038 526 z "},"⇞":{"ha":558,"x_min":72,"x_max":486,"o":"m 449 667 l 317 713 l 317 475 l 472 475 l 472 406 l 317 406 l 317 256 l 472 256 l 472 186 l 317 186 l 317 0 l 242 0 l 242 186 l 86 186 l 86 256 l 242 256 l 242 406 l 86 406 l 86 475 l 242 475 l 242 713 l 110 667 q 90 663 100 663 q 72 682 72 663 q 81 701 72 689 l 254 957 q 279 972 265 972 q 304 957 293 972 l 478 701 q 486 682 486 689 q 468 663 486 663 q 449 667 458 663 z "},"⇟":{"ha":558,"x_min":72,"x_max":486,"o":"m 468 311 q 481 305 475 311 q 486 292 486 299 q 478 272 486 285 l 304 17 q 279 0 294 0 q 254 17 264 0 l 81 272 q 72 292 72 285 q 78 305 72 299 q 90 311 83 311 q 110 306 96 311 l 242 260 l 242 497 l 86 497 l 86 567 l 242 567 l 242 717 l 86 717 l 86 786 l 242 786 l 242 972 l 317 972 l 317 786 l 472 786 l 472 717 l 317 717 l 317 567 l 472 567 l 472 497 l 317 497 l 317 260 l 449 306 q 468 311 463 311 z "},"⇠":{"ha":1125,"x_min":69,"x_max":1042,"o":"m 371 664 l 326 535 l 478 535 l 478 465 l 326 465 l 371 338 q 379 308 379 313 q 363 293 379 293 q 338 304 356 293 l 88 474 q 69 500 69 488 q 88 526 69 515 l 338 697 q 363 708 356 708 q 379 693 379 708 q 371 664 379 686 m 596 465 l 596 535 l 760 535 l 760 465 l 596 465 m 878 535 l 1042 535 l 1042 465 l 878 465 l 878 535 z "},"⇡":{"ha":556,"x_min":72,"x_max":486,"o":"m 478 701 q 486 682 486 689 q 468 663 486 663 q 449 667 458 663 l 317 713 l 317 557 l 242 557 l 242 713 l 110 667 q 90 663 100 663 q 72 682 72 663 q 81 701 72 689 l 254 957 q 279 972 265 972 q 304 957 293 972 l 478 701 m 242 279 l 242 449 l 317 449 l 317 279 l 242 279 m 242 0 l 242 169 l 317 169 l 317 0 l 242 0 z "},"⇢":{"ha":1125,"x_min":76,"x_max":1049,"o":"m 1031 526 q 1049 500 1049 517 q 1031 474 1049 486 l 782 304 q 757 293 763 293 q 740 308 740 293 q 749 338 740 313 l 793 465 l 640 465 l 640 535 l 793 535 l 749 664 q 740 693 740 686 q 757 708 740 708 q 782 697 763 708 l 1031 526 m 76 465 l 76 535 l 240 535 l 240 465 l 76 465 m 358 465 l 358 535 l 522 535 l 522 465 l 358 465 z "},"⇣":{"ha":558,"x_min":72,"x_max":486,"o":"m 317 972 l 317 803 l 242 803 l 242 972 l 317 972 m 317 694 l 317 525 l 242 525 l 242 694 l 317 694 m 468 311 q 481 305 475 311 q 486 292 486 299 q 478 272 486 285 l 304 17 q 279 0 294 0 q 254 17 264 0 l 81 272 q 72 292 72 285 q 78 305 72 299 q 90 311 83 311 q 110 306 96 311 l 242 260 l 242 415 l 317 415 l 317 260 l 449 306 q 468 311 463 311 z "},"⇤":{"ha":1049,"x_min":138,"x_max":965,"o":"m 138 144 l 138 854 l 211 854 l 211 144 l 138 144 m 600 293 q 575 304 593 293 l 325 474 q 307 500 307 488 q 325 526 307 515 l 575 697 q 600 708 593 708 q 617 693 617 708 q 608 664 617 686 l 563 531 l 965 544 l 965 456 l 563 469 l 608 338 q 617 308 617 313 q 600 293 617 293 z "},"⇥":{"ha":1049,"x_min":83,"x_max":913,"o":"m 839 144 l 839 854 l 913 854 l 913 144 l 839 144 m 450 293 q 433 308 433 293 q 442 338 433 313 l 488 469 l 83 456 l 83 544 l 488 531 l 442 664 q 433 693 433 686 q 450 708 433 708 q 475 697 456 708 l 724 526 q 742 500 742 517 q 724 474 742 486 l 475 304 q 450 293 456 293 z "},"∂":{"ha":818,"x_min":68,"x_max":715,"o":"m 347 -17 q 146 60 224 -17 q 68 256 68 136 q 163 507 68 410 q 389 604 257 604 q 642 426 590 604 q 646 511 646 465 q 556 808 646 707 q 317 922 467 908 l 333 989 q 622 838 529 964 q 715 478 715 711 q 681 232 715 339 q 560 54 646 125 q 347 -17 475 -17 m 344 56 q 535 127 464 56 q 607 319 607 199 q 550 476 607 422 q 392 529 493 529 q 213 458 282 529 q 144 272 144 388 q 201 115 144 174 q 344 56 257 56 z "},"∆":{"ha":917,"x_min":94,"x_max":824,"o":"m 94 0 l 431 972 l 485 972 l 824 0 l 94 0 m 193 71 l 725 71 l 500 718 l 458 843 q 417 719 424 739 l 193 71 z "},"∏":{"ha":985,"x_min":150,"x_max":836,"o":"m 761 -194 l 761 899 l 224 899 l 224 -194 l 150 -194 l 150 972 l 836 972 l 836 -194 l 761 -194 z "},"∑":{"ha":872,"x_min":90,"x_max":796,"o":"m 90 -197 l 90 -136 l 485 400 l 110 908 l 110 969 l 768 969 l 768 897 l 211 897 l 576 403 l 190 -125 l 796 -125 l 796 -197 l 90 -197 z "},"−":{"ha":914,"x_min":131,"x_max":783,"o":"m 131 439 l 131 511 l 783 511 l 783 439 l 131 439 z "},"∕":{"ha":449,"x_min":-147,"x_max":596,"o":"m -147 -17 l 518 989 l 596 989 l -69 -17 l -147 -17 z "},"∙":{"ha":297,"x_min":85,"x_max":213,"o":"m 149 421 q 103 440 122 421 q 85 485 85 460 q 103 531 85 511 q 149 550 122 550 q 194 531 176 550 q 213 485 213 511 q 194 440 213 458 q 149 421 176 421 z "},"√":{"ha":772,"x_min":89,"x_max":701,"o":"m 701 972 l 407 0 l 325 0 l 89 454 l 164 454 l 361 78 l 624 972 l 701 972 z "},"∞":{"ha":1399,"x_min":75,"x_max":1324,"o":"m 1022 189 q 700 439 813 189 q 565 256 642 322 q 376 189 488 189 q 160 271 246 189 q 75 496 75 353 q 161 724 75 640 q 376 807 247 807 q 699 553 572 807 q 830 741 756 675 q 1019 807 904 807 q 1238 724 1151 807 q 1324 496 1324 640 q 1238 271 1324 353 q 1022 189 1153 189 m 382 256 q 671 496 551 256 q 382 740 549 740 q 217 674 282 740 q 151 496 151 608 q 217 320 151 385 q 382 256 282 256 m 1017 256 q 1182 320 1117 256 q 1247 496 1247 385 q 1182 674 1247 608 q 1015 740 1117 740 q 725 496 847 740 q 1017 256 844 256 z "},"∫":{"ha":560,"x_min":68,"x_max":492,"o":"m 175 -194 q 68 -168 118 -194 l 68 -110 q 161 -131 122 -131 q 226 -106 208 -131 q 243 -33 243 -82 l 243 835 q 383 989 243 989 q 492 961 442 989 l 492 903 q 399 925 432 925 q 334 900 351 925 q 317 826 317 875 l 317 -40 q 175 -194 317 -194 z "},"≈":{"ha":914,"x_min":133,"x_max":781,"o":"m 613 510 q 447 564 549 510 q 296 618 344 618 q 219 589 249 618 q 188 510 190 560 l 133 510 q 176 637 133 585 q 301 689 218 689 q 469 634 367 689 q 618 579 572 579 q 695 609 665 579 q 728 689 725 639 l 781 689 q 739 561 781 613 q 613 510 697 510 m 613 264 q 447 319 549 264 q 296 374 344 374 q 219 344 249 374 q 188 264 190 315 l 133 264 q 175 392 133 340 q 301 444 217 444 q 469 390 367 444 q 618 336 572 336 q 695 365 665 336 q 728 444 725 394 l 781 444 q 738 316 781 368 q 613 264 696 264 z "},"≠":{"ha":914,"x_min":142,"x_max":790,"o":"m 424 317 l 351 171 l 271 171 l 344 317 l 142 317 l 142 392 l 385 392 l 471 560 l 142 560 l 142 635 l 510 635 l 574 758 l 653 758 l 589 635 l 790 635 l 790 560 l 550 560 l 463 392 l 790 392 l 790 317 l 424 317 z "},"≤":{"ha":914,"x_min":131,"x_max":783,"o":"m 782 242 l 131 501 l 131 576 l 782 836 l 782 753 l 226 539 l 782 325 l 782 242 m 131 0 l 131 72 l 783 72 l 783 0 l 131 0 z "},"≥":{"ha":914,"x_min":131,"x_max":783,"o":"m 131 242 l 131 325 l 688 539 l 131 753 l 131 836 l 782 576 l 782 501 l 131 242 m 131 0 l 131 72 l 783 72 l 783 0 l 131 0 z "},"◊":{"ha":858,"x_min":111,"x_max":750,"o":"m 392 -17 l 111 486 l 392 989 l 469 989 l 750 486 l 469 -17 l 392 -17 m 431 935 l 183 486 l 431 39 l 679 486 l 431 935 z "},"◌":{"ha":933,"x_min":96,"x_max":838,"o":"m 436 794 q 431 800 436 794 q 425 825 425 806 q 437 857 425 844 q 467 869 449 869 q 497 857 485 869 q 508 825 508 844 q 497 794 508 806 q 467 783 486 783 q 436 794 447 783 m 299 800 q 310 832 299 819 q 342 844 322 844 q 372 832 360 844 q 383 800 383 819 q 372 770 383 782 q 342 758 360 758 q 311 770 324 758 q 299 800 299 782 m 560 770 q 555 776 560 770 q 549 800 549 782 q 561 831 549 818 q 590 843 574 843 q 622 831 610 843 q 635 800 635 819 q 622 770 635 782 q 590 758 610 758 q 560 770 572 758 m 193 731 q 205 760 193 749 q 236 772 217 772 q 267 761 256 772 q 278 731 278 750 q 267 699 278 711 q 236 688 256 688 q 205 699 217 688 q 193 731 193 711 m 667 699 q 661 705 667 699 q 656 731 656 711 q 667 761 656 750 q 697 772 678 772 q 728 760 717 772 q 740 731 740 749 q 728 699 740 711 q 697 688 717 688 q 667 699 678 688 m 738 594 q 732 600 738 594 q 726 624 726 606 q 738 655 726 642 q 768 668 750 668 q 799 655 786 668 q 811 624 811 642 q 799 594 811 606 q 768 582 786 582 q 738 594 750 582 m 135 593 q 128 599 135 593 q 122 624 122 606 q 135 654 122 642 q 165 667 147 667 q 196 654 183 667 q 208 624 208 642 q 195 593 208 606 q 165 581 182 581 q 135 593 147 581 m 96 499 q 108 530 96 518 q 140 542 121 542 q 171 530 160 542 q 182 499 182 518 q 170 469 182 481 q 140 457 158 457 q 108 469 121 457 q 96 499 96 481 m 751 499 q 763 530 751 518 q 793 542 774 542 q 824 530 811 542 q 838 499 838 518 q 824 469 838 481 q 793 457 811 457 q 763 469 775 457 q 751 499 751 481 m 135 343 q 128 349 135 343 q 122 374 122 356 q 135 404 122 392 q 165 417 147 417 q 195 404 183 417 q 207 374 207 392 q 195 343 207 356 q 165 331 183 331 q 135 343 147 331 m 725 375 q 738 405 725 393 q 768 417 750 417 q 799 405 786 417 q 811 375 811 393 q 799 344 811 356 q 768 332 786 332 q 738 344 750 332 q 725 375 725 356 m 205 238 q 199 244 205 238 q 193 268 193 250 q 205 299 193 286 q 236 311 217 311 q 266 299 254 311 q 278 268 278 288 q 267 238 278 250 q 236 226 256 226 q 205 238 217 226 m 656 268 q 667 299 656 288 q 697 311 679 311 q 728 299 717 311 q 740 268 740 286 q 728 238 740 250 q 697 226 717 226 q 667 238 678 226 q 656 268 656 250 m 299 199 q 311 228 299 217 q 343 240 324 240 q 373 228 361 240 q 385 199 385 217 q 372 167 385 181 q 343 154 360 154 q 311 167 324 154 q 299 199 299 179 m 562 167 q 556 173 562 167 q 550 197 550 179 q 562 228 550 215 q 592 240 574 240 q 623 228 611 240 q 635 197 635 217 q 623 166 635 178 q 592 154 611 154 q 562 167 574 154 m 437 141 q 431 147 437 141 q 425 172 425 153 q 437 203 425 192 q 467 215 449 215 q 497 203 485 215 q 508 172 508 192 q 497 141 508 153 q 467 129 485 129 q 437 141 449 129 z "},"":{"ha":0,"x_min":-301,"x_max":-186,"o":"m -186 1014 l -186 996 q -281 697 -186 799 l -301 713 q -260 1014 -260 803 l -186 1014 z "},"ﬁ":{"ha":792,"x_min":47,"x_max":671,"o":"m 235 643 l 235 0 l 161 0 l 161 643 l 47 643 l 47 710 l 161 710 l 161 835 q 199 951 161 913 q 303 989 238 989 q 406 961 357 989 l 406 897 q 313 921 356 921 q 251 897 267 921 q 235 824 235 872 l 235 710 l 406 710 l 406 643 l 235 643 m 656 883 q 648 875 656 883 q 618 868 640 868 q 581 883 596 868 q 567 919 567 897 q 581 959 567 943 q 618 975 596 975 q 656 959 640 975 q 671 919 671 943 q 656 883 671 897 m 582 0 l 582 710 l 656 710 l 656 0 l 582 0 z "},"ﬂ":{"ha":793,"x_min":47,"x_max":656,"o":"m 582 0 l 582 967 l 656 1003 l 656 0 l 582 0 m 235 643 l 235 0 l 161 0 l 161 643 l 47 643 l 47 710 l 161 710 l 161 835 q 199 951 161 913 q 303 989 238 989 q 406 961 357 989 l 406 897 q 313 921 356 921 q 251 897 267 921 q 235 824 235 872 l 235 710 l 406 710 l 406 643 l 235 643 z "}}}
